<svg width="196" height="169" viewBox="0 0 196 169" fill="none" xmlns="http://www.w3.org/2000/svg">
<g id="12 1" clip-path="url(#clip0_1_1012)">
<path id="Vector" d="M75.6759 153.928L70.5717 158.092L74.6281 152.06C71.4323 146.923 66.2056 142.484 66.2056 142.484C66.2056 142.484 55.3619 151.692 55.3619 158.93C55.3619 166.168 60.2168 168.695 66.2056 168.695C72.1943 168.695 77.0491 166.168 77.0491 158.93C77.0491 157.319 76.5111 155.61 75.6759 153.928Z" fill="#F2F2F2"/>
<path id="Vector_2" d="M69.2591 158.318V158.674C69.2352 162.822 68.4461 166.057 66.8977 168.336C66.8758 168.369 66.8519 168.401 66.8299 168.435L66.6566 168.341L66.4912 168.249C68.2089 165.789 68.8167 162.311 68.8386 158.694C68.8406 158.577 68.8426 158.459 68.8406 158.341C68.8346 156.809 68.729 155.26 68.5596 153.756C68.5477 153.639 68.5338 153.521 68.5198 153.402C68.2847 151.417 67.9459 149.52 67.5991 147.872C67.5752 147.756 67.5493 147.639 67.5234 147.524C66.9236 144.737 66.3118 142.719 66.1723 142.272C66.1564 142.217 66.1464 142.187 66.1444 142.18L66.3337 142.132L66.3357 142.13L66.527 142.083C66.529 142.09 66.5629 142.191 66.6187 142.378C66.8319 143.077 67.3859 144.976 67.9299 147.48C67.9538 147.593 67.9798 147.71 68.0037 147.826C68.2866 149.163 68.5636 150.658 68.7828 152.226C68.8386 152.62 68.8885 153.009 68.9323 153.392C68.9482 153.51 68.9622 153.628 68.9742 153.745C69.1575 155.372 69.2525 156.896 69.2591 158.318Z" fill="white"/>
<path id="Vector_3" d="M67.9299 147.48C67.7964 147.496 67.6609 147.512 67.5234 147.524C67.15 147.558 66.7749 147.576 66.3995 147.576C64.7997 147.578 63.2198 147.261 61.7763 146.65C61.6926 146.744 61.6089 146.837 61.5232 146.933C63.0418 147.59 64.7097 147.93 66.3995 147.929C66.8002 147.929 67.2007 147.91 67.5991 147.872C67.7346 147.86 67.8702 147.844 68.0037 147.826C69.1058 147.686 70.1775 147.399 71.1821 146.973C71.0964 146.876 71.0127 146.781 70.931 146.687C69.9802 147.081 68.9689 147.348 67.9299 147.48Z" fill="white"/>
<path id="Vector_4" d="M68.9323 153.392C68.7948 153.399 68.6573 153.402 68.5198 153.402C68.4779 153.404 68.4341 153.404 68.3923 153.404C66.6588 153.404 64.9511 153.033 63.4146 152.321C61.8781 151.61 60.5585 150.58 59.5683 149.319C59.4886 149.423 59.4089 149.527 59.3311 149.633C60.3633 150.909 61.7236 151.949 63.2993 152.666C64.875 153.383 66.6209 153.757 68.3923 153.757C68.4481 153.757 68.5039 153.757 68.5597 153.756C68.6991 153.754 68.8366 153.75 68.9741 153.745C71.1018 153.648 73.1531 153.011 74.8827 151.908C74.8189 151.804 74.7552 151.7 74.6894 151.595C73.0084 152.678 71.0077 153.302 68.9323 153.392Z" fill="white"/>
<path id="Vector_5" d="M69.2591 158.318C69.1196 158.328 68.9801 158.335 68.8406 158.341C68.6912 158.346 68.5417 158.349 68.3922 158.349C66.0629 158.347 63.7972 157.676 61.9342 156.437C60.0712 155.198 58.7112 153.457 58.0578 151.475C57.9681 151.618 57.8784 151.76 57.7927 151.903C58.5289 153.88 59.9493 155.601 61.8521 156.822C63.7549 158.042 66.0433 158.7 68.3922 158.703C68.5417 158.703 68.6912 158.701 68.8386 158.694C68.9801 158.69 69.1196 158.683 69.2591 158.674C72.0767 158.479 74.7052 157.342 76.6124 155.493C76.5706 155.363 76.5227 155.234 76.4749 155.103C74.6328 156.966 72.0445 158.119 69.2591 158.318Z" fill="white"/>
<path id="Vector_6" d="M195.716 9.05041H0.283491C0.208433 9.05018 0.136543 9.02359 0.0835599 8.97647C0.0305771 8.92935 0.000823975 8.86553 0.000823975 8.79901C0.000823975 8.73248 0.0305771 8.66867 0.0835599 8.62155C0.136543 8.57443 0.208433 8.54784 0.283491 8.54761H195.716C195.791 8.54784 195.863 8.57443 195.916 8.62155C195.969 8.66867 195.999 8.73248 195.999 8.79901C195.999 8.86553 195.969 8.92935 195.916 8.97647C195.863 9.02359 195.791 9.05018 195.716 9.05041Z" fill="#CACACA"/>
<path id="Vector_7" d="M6.66794 5.53077C8.39113 5.53077 9.78805 4.29266 9.78805 2.76538C9.78805 1.2381 8.39113 0 6.66794 0C4.94474 0 3.54782 1.2381 3.54782 2.76538C3.54782 4.29266 4.94474 5.53077 6.66794 5.53077Z" fill="#3F3D56"/>
<path id="Vector_8" d="M17.4465 5.53077C19.1697 5.53077 20.5666 4.29266 20.5666 2.76538C20.5666 1.2381 19.1697 0 17.4465 0C15.7233 0 14.3264 1.2381 14.3264 2.76538C14.3264 4.29266 15.7233 5.53077 17.4465 5.53077Z" fill="#3F3D56"/>
<path id="Vector_9" d="M28.2251 5.53077C29.9483 5.53077 31.3452 4.29266 31.3452 2.76538C31.3452 1.2381 29.9483 0 28.2251 0C26.5019 0 25.105 1.2381 25.105 2.76538C25.105 4.29266 26.5019 5.53077 28.2251 5.53077Z" fill="#3F3D56"/>
<path id="Vector_10" d="M189.258 1.69151H181.6C181.45 1.69105 181.306 1.63787 181.2 1.54363C181.094 1.44939 181.035 1.32176 181.035 1.18871C181.035 1.05566 181.094 0.928035 181.2 0.833793C181.306 0.73955 181.45 0.686376 181.6 0.685916H189.258C189.333 0.685688 189.407 0.698523 189.476 0.723688C189.545 0.748854 189.608 0.785854 189.661 0.832566C189.714 0.879278 189.756 0.934781 189.784 0.995897C189.813 1.05701 189.828 1.12254 189.828 1.18871C189.828 1.25489 189.813 1.32041 189.784 1.38153C189.756 1.44264 189.714 1.49815 189.661 1.54486C189.608 1.59157 189.545 1.62857 189.476 1.65373C189.407 1.6789 189.333 1.69174 189.258 1.69151Z" fill="#3F3D56"/>
<path id="Vector_11" d="M189.258 3.57701H181.6C181.45 3.57655 181.306 3.52337 181.2 3.42913C181.094 3.33489 181.035 3.20726 181.035 3.07421C181.035 2.94116 181.094 2.81353 181.2 2.71929C181.306 2.62505 181.45 2.57187 181.6 2.57141H189.258C189.333 2.57119 189.407 2.58402 189.476 2.60919C189.545 2.63435 189.608 2.67135 189.661 2.71806C189.714 2.76478 189.756 2.82028 189.784 2.88139C189.813 2.94251 189.828 3.00804 189.828 3.07421C189.828 3.14038 189.813 3.20591 189.784 3.26702C189.756 3.32814 189.714 3.38364 189.661 3.43036C189.608 3.47707 189.545 3.51407 189.476 3.53923C189.407 3.5644 189.333 3.57723 189.258 3.57701Z" fill="#3F3D56"/>
<path id="Vector_12" d="M189.258 5.46251H181.6C181.45 5.46205 181.306 5.40887 181.2 5.31463C181.094 5.22038 181.035 5.09276 181.035 4.95971C181.035 4.82666 181.094 4.69904 181.2 4.60479C181.306 4.51055 181.45 4.45737 181.6 4.45691H189.258C189.333 4.45668 189.407 4.46952 189.476 4.49469C189.545 4.51985 189.608 4.55685 189.661 4.60356C189.714 4.65027 189.756 4.70578 189.784 4.7669C189.813 4.82801 189.828 4.89353 189.828 4.95971C189.828 5.02588 189.813 5.09141 189.784 5.15252C189.756 5.21364 189.714 5.26915 189.661 5.31586C189.608 5.36257 189.545 5.39957 189.476 5.42473C189.407 5.4499 189.333 5.46274 189.258 5.46251Z" fill="#3F3D56"/>
<path id="Vector_13" d="M184.985 20.4196H5.88757V104.52H184.985V20.4196Z" fill="#F0F0F0"/>
<path id="Vector_14" d="M184.985 36.1617V35.337H150.122V20.4196H149.191V35.337H114.328V20.4196H113.397V35.337H78.5341V20.4196H77.6036V35.337H42.7403V20.4196H41.8098V35.337H5.88757V36.1617H41.8098V52.6417H5.88757V53.4664H41.8098V69.9464H5.88757V70.7711H41.8098V87.2481H5.88757V88.0728H41.8098V104.52H42.7403V88.0728H77.6036V104.52H78.5341V88.0728H113.397V104.52H114.328V88.0728H149.191V104.52H150.122V88.0728H184.985V87.2481H150.122V70.7711H184.985V69.9464H150.122V53.4665H184.985V52.6417H150.122V36.1617L184.985 36.1617ZM77.6036 87.2481H42.7403V70.7711H77.6036V87.2481ZM77.6036 69.9464H42.7403V53.4665H77.6036V69.9464ZM77.6036 52.6417H42.7403V36.1617H77.6036V52.6417ZM113.397 87.2481H78.5341V70.7711H113.397V87.2481ZM113.397 69.9464H78.5341V53.4665H113.397V69.9464ZM113.397 52.6417H78.5341V36.1618H113.397V52.6417ZM149.191 87.2481H114.328V70.7712H149.191V87.2481ZM149.191 69.9464H114.328V53.4665H149.191V69.9464ZM149.191 52.6417H114.328V36.1618H149.191V52.6417Z" fill="white"/>
<path id="Vector_15" d="M61.6575 40.1696H49.6758V50.4505H61.6575V40.1696Z" fill="#CACACA"/>
<path id="Vector_16" d="M171.969 73.4594H159.987V83.7403H171.969V73.4594Z" fill="#CACACA"/>
<path id="Vector_17" d="M65.3796 90.5541H53.3979V100.835H65.3796V90.5541Z" fill="#CACACA"/>
<path id="Vector_18" d="M68.9207 38.2621H56.939V48.543H68.9207V38.2621Z" fill="#03A4FF"/>
<path id="Vector_19" d="M125.244 80.998L139.463 69.7704L143.657 71.6124L126.604 87.465L125.244 80.998Z" fill="#FFB6B6"/>
<path id="Vector_20" d="M141.334 73.6293C143.203 73.6293 144.718 72.2865 144.718 70.6302C144.718 68.9738 143.203 67.6311 141.334 67.6311C139.465 67.6311 137.95 68.9738 137.95 70.6302C137.95 72.2865 139.465 73.6293 141.334 73.6293Z" fill="#FFB6B6"/>
<path id="Vector_21" d="M111.935 165.506H108.571L106.97 154.005L111.936 154.005L111.935 165.506Z" fill="#FFB6B6"/>
<path id="Vector_22" d="M112.793 168.397L101.945 168.396V168.275C101.945 167.282 102.39 166.33 103.182 165.628C103.974 164.927 105.048 164.532 106.168 164.532L112.794 164.533L112.793 168.397Z" fill="#2F2E41"/>
<path id="Vector_23" d="M99.7538 165.506H96.3893L94.7887 154.005L99.7541 154.005L99.7538 165.506Z" fill="#FFB6B6"/>
<path id="Vector_24" d="M100.612 168.397L89.7637 168.396V168.275C89.7637 167.282 90.2086 166.33 91.0005 165.628C91.7923 164.927 92.8662 164.532 93.986 164.532L100.612 164.533L100.612 168.397Z" fill="#2F2E41"/>
<path id="Vector_25" d="M114.761 99.7611C114.761 99.7611 123.22 99.1613 120.513 112.357C117.806 125.553 112.199 161.651 112.199 161.651L107.115 162.27L104.112 114.117L101.84 162.27L95.3745 161.651L89.0442 109.958C89.0442 109.958 87.0116 105.802 89.043 102.931C91.0745 100.061 114.761 99.7611 114.761 99.7611Z" fill="#2F2E41"/>
<path id="Vector_26" d="M109.347 67.0711L111.696 65.9559C111.696 65.9559 117.482 65.5185 119.844 71.5432L126.107 79.9272L136.258 72.1296L140.657 74.8288L127.863 88.362L122.544 88.9644L111.039 75.7685L109.347 67.0711Z" fill="#3F3D56"/>
<path id="Vector_27" d="M100.824 42.7386C91.1745 42.7386 88.4734 52.1338 88.4734 57.4341C88.4734 62.7345 94.0031 61.9328 100.824 61.9328C103.752 61.9328 106.44 62.0793 108.557 61.8287L109.575 59.6253L110.394 61.4511C112.132 60.8852 113.175 59.7351 113.175 57.4341C113.175 52.1338 110.806 42.7386 100.824 42.7386Z" fill="#2F2E41"/>
<path id="Vector_28" d="M100.783 61.924C105.373 61.924 109.094 58.6261 109.094 54.5579C109.094 50.4898 105.373 47.1919 100.783 47.1919C96.1929 47.1919 92.472 50.4898 92.472 54.5579C92.472 58.6261 96.1929 61.924 100.783 61.924Z" fill="#FFB6B6"/>
<path id="Vector_29" d="M91.1805 53.8352H94.4676L95.9178 50.2363L96.2077 53.8352H97.7788L98.6248 51.7359L98.794 53.8352H110.468C110.468 51.7672 109.541 49.7838 107.891 48.3215C106.241 46.8591 104.004 46.0376 101.67 46.0376H99.9783C97.645 46.0376 95.4072 46.8591 93.7573 48.3215C92.1074 49.7838 91.1805 51.7672 91.1805 53.8352Z" fill="#2F2E41"/>
<path id="Vector_30" d="M146.748 59.2557H134.766V69.5367H146.748V59.2557Z" fill="#03A4FF"/>
<path id="Vector_31" d="M117.391 97.0474C116.114 97.0619 112.271 76.8486 112.271 76.8486L111.696 65.9559L107.496 65.8308V65.5859C107.496 65.0943 107.276 64.6228 106.883 64.2751C106.491 63.9275 105.959 63.7322 105.404 63.7322H97.4058C96.8745 63.7324 96.3632 63.912 95.9759 64.2345C95.5886 64.5569 95.3545 64.998 95.321 65.468L92.0276 65.3699L86.3239 81.4312C86.3239 81.4312 91.5797 96.3547 89.043 102.931C89.043 102.931 113.758 104.812 118.489 100.637C118.489 100.637 118.667 97.0328 117.391 97.0474Z" fill="#3F3D56"/>
<path id="Vector_32" d="M93.4431 67.3711L92.0276 65.3699C92.0276 65.3699 87.4222 64.3608 85.5261 67.0656C83.6301 69.7703 78.0569 84.4259 78.0569 84.4259L83.8094 86.2253L90.3372 78.1142L93.4431 67.3711Z" fill="#3F3D56"/>
<path id="Vector_33" d="M107.834 77.85H95.8526V88.1309H107.834V77.85Z" fill="#03A4FF"/>
<path id="Vector_34" d="M86.6598 81.5658L82.4913 81.1749C82.2281 81.6726 82.0961 82.2169 82.1052 82.7665C82.1143 83.3161 82.2643 83.8567 82.544 84.3474C82.8236 84.838 83.2255 85.2658 83.7192 85.5985C84.2129 85.9312 84.7855 86.16 85.3937 86.2675L101.887 89.1851L100.167 84.4889L86.6598 81.5658Z" fill="#FFB6B6"/>
<path id="Vector_35" d="M101.937 89.2393C103.806 89.2393 105.321 87.8965 105.321 86.2402C105.321 84.5838 103.806 83.2411 101.937 83.2411C100.068 83.2411 98.5533 84.5838 98.5533 86.2402C98.5533 87.8965 100.068 89.2393 101.937 89.2393Z" fill="#FFB6B6"/>
<path id="Vector_36" d="M97.7129 89.3305L85.1474 86.7857C84.2369 86.599 83.3961 86.2072 82.7065 85.6481C82.017 85.0891 81.5019 84.3817 81.2112 83.5945L80.7034 82.2065L83.9645 79.932L98.9049 83.6331L97.7129 89.3305Z" fill="#3F3D56"/>
<path id="Vector_37" d="M168.323 169H39.4005C39.3107 169 39.2247 168.968 39.1612 168.912C39.0978 168.856 39.0621 168.78 39.0621 168.7C39.0621 168.621 39.0978 168.544 39.1612 168.488C39.2247 168.432 39.3107 168.4 39.4005 168.4H168.323C168.413 168.4 168.499 168.432 168.562 168.488C168.626 168.544 168.661 168.621 168.661 168.7C168.661 168.78 168.626 168.856 168.562 168.912C168.499 168.968 168.413 169 168.323 169Z" fill="#CACACA"/>
</g>
<defs>
<clipPath id="clip0_1_1012">
<rect width="196" height="169" fill="white"/>
</clipPath>
</defs>
</svg>
