<svg width="246" height="187" viewBox="0 0 246 187" fill="none" xmlns="http://www.w3.org/2000/svg">
<g id="11 1" clip-path="url(#clip0_1_950)">
<path id="Vector" d="M207.705 129.863C207.45 129.557 207.26 129.194 207.149 128.799C207.037 128.405 207.006 127.988 207.058 127.58C207.111 127.171 207.245 126.779 207.451 126.433C207.658 126.087 207.931 125.794 208.253 125.575L206.194 115.794L210.686 117.621L211.953 126.629C212.255 127.241 212.34 127.953 212.193 128.629C212.045 129.305 211.674 129.898 211.15 130.297C210.627 130.696 209.987 130.872 209.352 130.792C208.717 130.712 208.131 130.381 207.705 129.863Z" fill="#FFB8B8"/>
<path id="Vector_2" d="M207.394 122.1L203.446 113.801L203.98 92.9016L204.233 93.4829C204.529 94.16 211.457 110.106 210.963 115.444L211.755 120.323L207.394 122.1Z" fill="#3F3D56"/>
<path id="Vector_3" d="M204.82 183.438H207.986L209.492 170.16L204.819 170.161L204.82 183.438Z" fill="#FFB8B8"/>
<path id="Vector_4" d="M204.012 182.314L210.247 182.314H210.248C211.302 182.314 212.312 182.769 213.058 183.579C213.803 184.389 214.221 185.488 214.221 186.634V186.774L204.012 186.775L204.012 182.314Z" fill="#2F2E41"/>
<path id="Vector_5" d="M173.535 180.822L176.586 181.744L181.309 169.391L176.807 168.03L173.535 180.822Z" fill="#FFB8B8"/>
<path id="Vector_6" d="M173.034 179.504L179.042 181.32L179.042 181.32C180.057 181.627 180.919 182.36 181.437 183.357C181.955 184.355 182.088 185.536 181.806 186.639L181.771 186.775L171.935 183.801L173.034 179.504Z" fill="#2F2E41"/>
<path id="Vector_7" d="M201.663 178.262L195.273 128.52L181.471 177.98L170.619 173.952L186.173 107.723L186.275 107.715L202.569 106.483L214.341 174.241L201.663 178.262Z" fill="#2F2E41"/>
<path id="Vector_8" d="M199.973 84.2834C199.973 84.2834 194.033 80.914 186.027 82.3179C186.027 82.3179 181.765 93.4949 186.027 97.9442L187.189 109.132C187.189 109.132 198.036 116.152 201.652 108.009L201.135 98.7435C201.135 98.7435 203.718 94.2996 201.652 91.0464C200.413 89.059 199.822 86.6782 199.973 84.2834Z" fill="#03A4FF"/>
<path id="Vector_9" d="M200.725 135.172L201.768 111.652L198.817 83.6721L198.953 83.6498C202.823 83.0153 204.065 90.2648 204.116 90.5737L210.853 131.985L200.725 135.172Z" fill="#3F3D56"/>
<path id="Vector_10" d="M187.59 135.417L175.68 133.979L175.684 133.837C175.726 131.92 176.751 86.8496 179.623 83.6576C182.513 80.4465 187.965 81.8359 188.196 81.897L188.311 81.9271L187.331 100.998L187.59 135.417Z" fill="#3F3D56"/>
<path id="Vector_11" d="M189.784 108.48C189.423 108.608 189.041 108.65 188.664 108.6C188.287 108.551 187.925 108.412 187.602 108.194C187.28 107.976 187.006 107.684 186.798 107.338C186.591 106.992 186.456 106.601 186.403 106.192L177.346 104.263L180.707 100.544L188.792 102.946C189.43 102.894 190.062 103.099 190.57 103.52C191.079 103.942 191.427 104.552 191.549 105.234C191.671 105.916 191.559 106.623 191.234 107.221C190.909 107.82 190.393 108.267 189.784 108.48Z" fill="#FFB8B8"/>
<path id="Vector_12" d="M184.951 106.222L182 105.532C177.644 106.957 170.039 101.942 166.966 99.7144C166.387 99.2953 166.2 98.4649 166.408 97.2466C166.716 95.5425 167.58 94.0167 168.841 92.9509L179.665 83.62L182.397 83.1233L183.209 88.1228L176.312 96.1761L186.464 102.184L184.951 106.222Z" fill="#3F3D56"/>
<path id="Vector_13" d="M183.784 78.0854V71.6024C183.784 68.8596 184.786 66.2291 186.57 64.2896C188.354 62.3501 190.774 61.2605 193.296 61.2605C195.819 61.2605 198.239 62.3501 200.023 64.2896C201.807 66.2291 202.809 68.8596 202.809 71.6024V78.0854C202.809 78.4537 202.674 78.8068 202.434 79.0672C202.195 79.3277 201.87 79.4742 201.531 79.4746H185.062C184.723 79.4742 184.398 79.3277 184.159 79.0672C183.919 78.8068 183.784 78.4537 183.784 78.0854Z" fill="#2F2E41"/>
<path id="Vector_14" d="M192.914 79.4108C196.766 79.4108 199.888 76.0161 199.888 71.8285C199.888 67.6409 196.766 64.2462 192.914 64.2462C189.062 64.2462 185.94 67.6409 185.94 71.8285C185.94 76.0161 189.062 79.4108 192.914 79.4108Z" fill="#FFB8B8"/>
<path id="Vector_15" d="M185.748 71.7993C185.682 71.7156 185.632 71.6174 185.604 71.5113C185.575 71.4051 185.568 71.2935 185.582 71.1839L186.408 64.9295C186.425 64.8022 186.47 64.6814 186.54 64.578C186.61 64.4745 186.703 64.3917 186.81 64.3371C191.027 62.1915 195.303 62.1887 199.52 64.3289C199.632 64.3866 199.728 64.4748 199.799 64.585C199.87 64.6952 199.914 64.8235 199.926 64.9575L200.477 71.2201C200.487 71.3272 200.475 71.4352 200.444 71.5373C200.413 71.6394 200.362 71.7332 200.296 71.8128C200.229 71.8924 200.148 71.956 200.058 71.9995C199.967 72.043 199.869 72.0655 199.77 72.0655H198.372C198.237 72.0651 198.105 72.0231 197.991 71.9442C197.877 71.8654 197.786 71.753 197.729 71.6202L197.125 70.2141C197.086 70.123 197.021 70.0483 196.939 70.0011C196.858 69.9539 196.764 69.9368 196.673 69.9524C196.581 69.968 196.497 70.0155 196.433 70.0877C196.369 70.1598 196.328 70.2528 196.316 70.3525L196.197 71.3892C196.175 71.5758 196.092 71.7474 195.962 71.8719C195.833 71.9964 195.666 72.0652 195.493 72.0655H186.285C186.183 72.0655 186.083 72.0417 185.99 71.9958C185.898 71.9499 185.815 71.8828 185.748 71.7993Z" fill="#2F2E41"/>
<path id="Vector_16" d="M156.46 12.4617H0V118.385H156.46V12.4617Z" fill="#E6E6E6"/>
<path id="Vector_17" d="M39.1475 32.8676H10.4919V53.1177H39.1475V32.8676Z" fill="white"/>
<path id="Vector_18" d="M74.7543 32.8676H46.0987V53.1177H74.7543V32.8676Z" fill="white"/>
<path id="Vector_19" d="M110.361 32.8676H81.7055V53.1177H110.361V32.8676Z" fill="white"/>
<path id="Vector_20" d="M145.968 32.8676H117.312V53.1177H145.968V32.8676Z" fill="white"/>
<path id="Vector_21" d="M39.1475 61.5292H10.4919V81.7793H39.1475V61.5292Z" fill="white"/>
<path id="Vector_22" d="M74.7543 61.5292H46.0987V81.7793H74.7543V61.5292Z" fill="white"/>
<path id="Vector_23" d="M110.361 61.5292H81.7055V81.7793H110.361V61.5292Z" fill="white"/>
<path id="Vector_24" d="M145.968 61.5292H117.312V81.7793H145.968V61.5292Z" fill="white"/>
<path id="Vector_25" d="M39.1475 90.1909H10.4919V110.441H39.1475V90.1909Z" fill="white"/>
<path id="Vector_26" d="M74.7543 90.1909H46.0987V110.441H74.7543V90.1909Z" fill="white"/>
<path id="Vector_27" d="M110.361 90.1909H81.7055V110.441H110.361V90.1909Z" fill="white"/>
<path id="Vector_28" d="M145.968 90.1909H117.312V110.441H145.968V90.1909Z" fill="white"/>
<path id="Vector_29" d="M40.9776 24.9232C43.3515 24.9232 45.2759 22.831 45.2759 20.2501C45.2759 17.6692 43.3515 15.577 40.9776 15.577C38.6037 15.577 36.6792 17.6692 36.6792 20.2501C36.6792 22.831 38.6037 24.9232 40.9776 24.9232Z" fill="white"/>
<path id="Vector_30" d="M112.044 24.9232C114.418 24.9232 116.342 22.831 116.342 20.2501C116.342 17.6692 114.418 15.577 112.044 15.577C109.67 15.577 107.745 17.6692 107.745 20.2501C107.745 22.831 109.67 24.9232 112.044 24.9232Z" fill="white"/>
<path id="Vector_31" d="M42.6969 0H39.2582V21.4963H42.6969V0Z" fill="#E6E6E6"/>
<path id="Vector_32" d="M113.763 0H110.324V21.4963H113.763V0Z" fill="#E6E6E6"/>
<path id="Vector_33" d="M138.12 42.9926C138.119 44.6844 137.556 46.3189 136.535 47.5956C135.514 48.8723 134.103 49.7055 132.562 49.9421C131.021 50.1788 129.454 49.803 128.147 48.8837C126.841 47.9645 125.884 46.5636 125.451 44.9384C125.019 43.3132 125.14 41.5729 125.793 40.0374C126.446 38.5018 127.587 37.274 129.006 36.5796C130.425 35.8853 132.027 35.771 133.518 36.2578C135.008 36.7445 136.287 37.7997 137.119 39.2293C137.774 40.3551 138.121 41.6603 138.12 42.9926Z" fill="#03A4FF"/>
<path id="Vector_34" d="M137.119 39.2292L130.74 46.1629C130.339 45.4881 128.106 42.3521 128.106 42.3521C128.392 42.0376 128.697 41.7445 129.02 41.4747L130.872 44.1595L136.372 38.1802C136.651 38.5034 136.901 38.8547 137.119 39.2292Z" fill="white"/>
<path id="Vector_35" d="M66.9066 71.6542C66.9051 73.3461 66.3421 74.9805 65.3211 76.2572C64.3 77.5339 62.8895 78.3671 61.3486 78.6038C59.8078 78.8404 58.2401 78.4646 56.9337 77.5453C55.6273 76.6261 54.6699 75.2252 54.2374 73.6C53.805 71.9748 53.9265 70.2346 54.5796 68.699C55.2327 67.1634 56.3736 65.9356 57.7927 65.2413C59.2117 64.5469 60.8136 64.4326 62.3039 64.9194C63.7943 65.4061 65.073 66.4613 65.9051 67.8909C66.5604 69.0167 66.9078 70.3219 66.9066 71.6542Z" fill="#03A4FF"/>
<path id="Vector_36" d="M65.9051 67.891L59.5264 74.8246C59.1255 74.1498 56.8919 71.0139 56.8919 71.0139C57.1782 70.6993 57.4836 70.4062 57.8062 70.1364L59.6583 72.8213L65.1582 66.8419C65.4371 67.1652 65.6872 67.5164 65.9051 67.891Z" fill="white"/>
<path id="Vector_37" d="M31.2998 71.6543C31.2983 73.3461 30.7353 74.9805 29.7143 76.2572C28.6932 77.5339 27.2826 78.3672 25.7418 78.6038C24.2009 78.8405 22.6333 78.4646 21.3269 77.5454C20.0205 76.6261 19.0631 75.2252 18.6306 73.6C18.1981 71.9749 18.3196 70.2346 18.9727 68.699C19.6259 67.1634 20.7668 65.9356 22.1858 65.2413C23.6049 64.5469 25.2068 64.4326 26.6971 64.9194C28.1875 65.4062 29.4662 66.4613 30.2983 67.8909C30.9536 69.0168 31.301 70.322 31.2998 71.6543Z" fill="#03A4FF"/>
<path id="Vector_38" d="M30.2983 67.891L23.9196 74.8246C23.5187 74.1498 21.2851 71.0139 21.2851 71.0139C21.5714 70.6993 21.8768 70.4062 22.1994 70.1364L24.0515 72.8213L29.5514 66.8419C29.8303 67.1652 30.0804 67.5164 30.2983 67.891Z" fill="white"/>
<path id="Vector_39" d="M245.716 187H137.529C137.453 187 137.381 186.967 137.328 186.91C137.275 186.852 137.245 186.773 137.245 186.691C137.245 186.609 137.275 186.531 137.328 186.473C137.381 186.415 137.453 186.383 137.529 186.383H245.716C245.791 186.383 245.864 186.415 245.917 186.473C245.97 186.531 246 186.609 246 186.691C246 186.773 245.97 186.852 245.917 186.91C245.864 186.967 245.791 187 245.716 187Z" fill="#3F3D56"/>
</g>
<defs>
<clipPath id="clip0_1_950">
<rect width="246" height="187" fill="white"/>
</clipPath>
</defs>
</svg>
