<svg width="204" height="151" viewBox="0 0 204 151" fill="none" xmlns="http://www.w3.org/2000/svg">
<g id="16 1" clip-path="url(#clip0_1_2332)">
<path id="Vector" d="M73.1748 86.9019C80.166 73.2042 93.5017 62.6867 107.619 63.6999C97.2055 76.3123 91.1334 92.6205 90.4767 109.739C90.2449 116.342 90.6043 123.713 86.6681 128.658C84.2189 131.734 80.4753 133.224 76.7944 133.537C73.1134 133.849 69.4333 133.108 65.8015 132.371L64.9205 132.672C64.5851 116.92 66.1837 100.599 73.1748 86.9019Z" fill="#F0F0F0"/>
<path id="Vector_2" d="M107.64 64.0297C97.2005 69.6271 88.2991 78.9753 82.8348 90.3762C81.6535 92.841 80.6476 95.4559 80.2089 98.2207C79.77 100.987 80.0766 103.62 80.9248 106.247C81.7002 108.649 82.7432 111.005 82.9809 113.575C83.2316 116.284 82.3367 118.817 80.726 120.827C78.7552 123.286 76.1085 124.81 73.4737 126.2C70.5483 127.744 67.4878 129.296 65.4158 132.176C65.1648 132.526 64.6932 132.071 64.9438 131.723C68.5488 126.711 74.7195 125.768 78.9986 121.731C80.9953 119.847 82.4943 117.281 82.3997 114.275C82.317 111.646 81.2434 109.215 80.4394 106.791C79.5951 104.245 79.1741 101.686 79.4768 98.972C79.7866 96.1959 80.7027 93.5317 81.8223 91.044C84.3473 85.4337 87.8029 80.283 91.7614 75.8305C96.3108 70.7126 101.613 66.4992 107.438 63.3726C107.799 63.1792 107.998 63.8376 107.64 64.0297Z" fill="white"/>
<path id="Vector_3" d="M84.4351 86.566C82.8347 85.2626 81.7024 83.3681 81.2404 81.2207C80.7784 79.0733 81.0167 76.8129 81.9129 74.8432C82.0954 74.4454 82.6591 74.7427 82.4763 75.141C81.6388 76.9735 81.4169 79.0791 81.8508 81.0777C82.2847 83.0764 83.3458 84.8365 84.8425 86.0403C85.1675 86.3023 84.7582 86.8265 84.4351 86.566Z" fill="white"/>
<path id="Vector_4" d="M80.3876 105.087C84.3977 104.434 88.0397 102.122 90.5873 98.6114C90.8395 98.2634 91.3111 98.7175 91.0593 99.0652C88.4021 102.713 84.6076 105.11 80.4332 105.779C80.0353 105.843 79.9918 105.15 80.3876 105.087Z" fill="white"/>
<path id="Vector_5" d="M96.6188 71.5671C97.1437 72.2151 97.8048 72.7077 98.5429 73.0008C99.281 73.2939 100.073 73.3782 100.847 73.2462C101.244 73.1772 101.287 73.8702 100.893 73.9388C100.037 74.0802 99.1622 73.9859 98.3461 73.6641C97.53 73.3423 96.7971 72.8028 96.2114 72.0927C96.1511 72.031 96.1143 71.946 96.1083 71.855C96.1023 71.764 96.1276 71.6739 96.1791 71.603C96.2334 71.5337 96.31 71.4911 96.3923 71.4843C96.4746 71.4776 96.556 71.5073 96.6188 71.5671Z" fill="white"/>
<path id="Vector_6" d="M135.707 106.911C135.46 106.962 135.213 107.013 134.964 107.069C131.65 107.773 128.392 108.776 125.223 110.068C124.976 110.164 124.728 110.265 124.484 110.368C116.879 113.571 109.874 118.319 103.826 124.371C101.421 126.781 99.1839 129.392 97.1346 132.18C94.3046 136.031 91.5113 140.458 87.8132 142.969C87.43 143.236 87.0323 143.476 86.6225 143.688L65.3187 133.846C65.2804 133.796 65.2398 133.752 65.2012 133.703L64.3345 133.353C64.4311 133.201 64.5344 133.046 64.631 132.893C64.6868 132.805 64.7473 132.719 64.803 132.63C64.8417 132.572 64.8806 132.514 64.9125 132.459C64.9253 132.439 64.9384 132.42 64.9492 132.406C64.9811 132.351 65.016 132.304 65.0458 132.254C65.6206 131.384 66.2018 130.516 66.7894 129.652C66.7915 129.647 66.7915 129.647 66.7982 129.643C71.2913 123.071 76.3164 116.858 82.0284 111.693C82.2003 111.537 82.374 111.377 82.5556 111.226C85.1419 108.913 87.8936 106.84 90.7831 105.027C92.3682 104.04 93.9972 103.143 95.6637 102.339C99.9734 100.271 104.548 98.9719 109.22 98.4879C118.535 97.5245 128.022 99.8898 135.166 106.407C135.348 106.574 135.526 106.739 135.707 106.911Z" fill="#F0F0F0"/>
<path id="Vector_7" d="M135.547 107.19C124.186 104.659 112.026 106.154 101.5 111.592C99.2243 112.768 97.0077 114.181 95.1628 116.095C93.3172 118.009 92.1387 120.317 91.3958 122.983C90.7167 125.421 90.2755 128.002 89.0762 130.213C87.8121 132.544 85.7285 133.966 83.3559 134.491C80.4528 135.133 77.5158 134.575 74.6606 133.919C71.4905 133.189 68.208 132.376 64.9964 133.287C64.6073 133.397 64.4763 132.718 64.8649 132.608C70.4525 131.023 75.8888 134.409 81.4879 134.055C84.1006 133.889 86.6843 132.846 88.2338 130.382C89.5887 128.228 90.0458 125.567 90.7142 123.092C91.4161 120.494 92.4635 118.168 94.1722 116.204C95.9202 114.195 98.0918 112.682 100.33 111.447C105.379 108.66 110.923 106.865 116.49 105.964C122.889 104.929 129.4 105.12 135.741 106.53C136.133 106.617 135.937 107.277 135.547 107.19Z" fill="white"/>
<path id="Vector_8" d="M104.838 109.623C104.264 107.51 104.384 105.238 105.176 103.213C105.968 101.189 107.38 99.5439 109.16 98.5721C109.521 98.3769 109.811 98.9922 109.449 99.1877C107.79 100.089 106.475 101.622 105.741 103.508C105.007 105.395 104.903 107.512 105.447 109.477C105.565 109.904 104.955 110.048 104.838 109.623Z" fill="white"/>
<path id="Vector_9" d="M91.5938 121.697C95.1484 123.865 99.3062 124.461 103.238 123.366C103.627 123.258 103.759 123.936 103.37 124.045C99.2761 125.176 94.9505 124.546 91.2558 122.28C90.9038 122.064 91.2437 121.482 91.5938 121.697Z" fill="white"/>
<path id="Vector_10" d="M122.673 105.818C122.742 106.687 123.003 107.524 123.434 108.253C123.865 108.982 124.452 109.58 125.141 109.994C125.496 110.205 125.156 110.787 124.804 110.578C124.043 110.116 123.396 109.455 122.918 108.65C122.441 107.846 122.147 106.924 122.063 105.964C122.049 105.874 122.065 105.782 122.11 105.705C122.154 105.629 122.223 105.574 122.302 105.551C122.383 105.533 122.467 105.55 122.537 105.6C122.606 105.65 122.655 105.728 122.673 105.818Z" fill="white"/>
<path id="Vector_11" d="M95.1248 123.148C92.1412 107.081 88.4118 101.724 88.4118 101.724L86.9871 100.493L85.2737 99.011L85.282 98.8204L84.8756 98.6665L84.7801 98.584L84.6237 98.4502L84.5986 98.4803L84.5454 98.5415L76.7923 95.6062L66.9561 91.8849L62.4013 85.2909C61.6595 84.217 60.7045 83.349 59.6111 82.755C58.5177 82.1609 57.3156 81.857 56.0991 81.8671L41.5526 81.9869C39.5857 82.0032 37.6955 82.8383 36.2534 84.3281L26.6922 94.2061L11.794 102.131L11.7689 102.103L11.6124 102.227L9.31053 103.453L9.40552 104.004L7.98078 105.149C7.98078 105.149 4.25136 110.134 1.26781 125.084C0.508827 128.889 0.135228 137.049 0.000378954 147.105C-0.0063945 147.613 0.0776948 148.119 0.247755 148.591C0.417816 149.063 0.670456 149.493 0.990985 149.855C1.31151 150.218 1.69354 150.505 2.11484 150.702C2.53615 150.899 2.98833 151 3.4451 151H83.0192L92.9511 151C93.4075 151 93.8594 150.899 94.2804 150.702C94.7014 150.506 95.0833 150.218 95.4037 149.856C95.7242 149.494 95.9769 149.065 96.1472 148.593C96.3175 148.122 96.402 147.617 96.3958 147.109C96.2641 136.167 95.8907 127.274 95.1248 123.148Z" fill="#3F3D56"/>
<path id="Vector_12" d="M105.335 14.0122C102.239 14.0122 99.2697 15.382 97.0806 17.8202C94.8915 20.2585 93.6616 23.5655 93.6616 27.0137C93.6616 30.4619 94.8915 33.7689 97.0806 36.2071C99.2697 38.6454 102.239 40.0152 105.335 40.0152H192.327C195.423 40.0152 198.392 38.6454 200.581 36.2071C202.77 33.7689 204 30.4619 204 27.0137C204 23.5655 202.77 20.2585 200.581 17.8202C198.392 15.382 195.423 14.0122 192.327 14.0122H105.335Z" fill="#E5E5E5"/>
<path id="Vector_13" d="M105.335 16.6435C102.865 16.6435 100.497 17.7361 98.751 19.6809C97.0049 21.6257 96.0239 24.2634 96.0239 27.0137C96.0239 29.7641 97.0049 32.4018 98.751 34.3466C100.497 36.2914 102.865 37.3839 105.335 37.3839H192.327C194.796 37.3839 197.165 36.2914 198.911 34.3466C200.657 32.4018 201.638 29.7641 201.638 27.0137C201.638 24.2634 200.657 21.6257 198.911 19.6809C197.165 17.7361 194.796 16.6435 192.327 16.6435H105.335Z" fill="white"/>
<path id="ab6171fa-7d69-4734-b81c-8dff60f9761b" d="M51.1101 75.7803C61.6351 75.7803 70.1674 66.2771 70.1674 54.5543C70.1674 42.8315 61.6351 33.3283 51.1101 33.3283C40.585 33.3283 32.0527 42.8315 32.0527 54.5543C32.0527 66.2771 40.585 75.7803 51.1101 75.7803Z" fill="#9E616A"/>
<path id="Vector_14" d="M46.2348 74.741C46.1534 74.5414 46.0722 74.341 45.9912 74.14C46.0224 74.1411 46.0533 74.1461 46.0845 74.147L46.2348 74.741Z" fill="#2F2E41"/>
<path id="Vector_15" d="M31.5232 34.2936C32.487 33.4372 33.6135 32.6492 34.8459 32.6935C36.0782 32.7377 37.3279 33.9774 37.0726 35.3209C39.3361 30.8571 42.939 27.4238 47.2488 25.6239C51.5586 23.8239 56.2999 23.7722 60.6405 25.4779C63.7033 26.6815 66.7069 29.0893 67.4105 32.6209C67.5911 33.5275 67.6299 34.5215 68.1381 35.2577C68.7789 36.1858 70.0049 36.3958 71.0144 36.0693C71.0245 36.066 71.0345 36.0627 71.0446 36.0594C71.2151 35.9945 71.3992 35.9881 71.5731 36.0411C71.7469 36.094 71.9025 36.2038 72.0196 36.3563C72.1368 36.5088 72.2102 36.6969 72.2304 36.8964C72.2505 37.0958 72.2165 37.2974 72.1326 37.4751L71.266 39.2753C72.3584 39.5465 73.4935 39.5196 74.5746 39.1969C74.7542 39.1444 74.944 39.1552 75.1179 39.2276C75.2918 39.3 75.4413 39.4305 75.546 39.6014C75.6507 39.7722 75.7053 39.9749 75.7024 40.1816C75.6996 40.3884 75.6393 40.5891 75.53 40.7562C72.6724 45.126 67.8983 47.9478 63.0264 47.9147C59.5638 47.8911 56.0655 46.562 52.6956 47.4489C51.3919 47.792 50.1737 48.4558 49.1304 49.3917C48.0871 50.3275 47.2451 51.5117 46.6663 52.8572C46.0875 54.2028 45.7865 55.6756 45.7854 57.1677C45.7843 58.6597 46.0831 60.1331 46.6599 61.4797C45.6246 60.2185 43.6234 60.5171 42.5644 61.7537C41.5054 62.9903 41.2313 64.8359 41.338 66.5407C41.5012 69.1481 42.4184 71.6049 43.3853 73.9961C35.2785 73.7119 27.6108 67.3779 25.0299 58.8112C22.4381 50.2085 25.1544 39.9523 31.5232 34.2936Z" fill="#2F2E41"/>
<path id="Vector_16" opacity="0.2" d="M18.7573 118.297L24.1025 150.689L27.3097 151L18.7573 118.297Z" fill="black"/>
<path id="Vector_17" opacity="0.2" d="M77.6354 115.855L72.2902 150.666L69.083 151L77.6354 115.855Z" fill="black"/>
<path id="Vector_18" d="M36.0818 23.3923C35.057 23.869 33.9876 23.3466 33.5391 22.1503C33.0837 20.9358 33.509 19.7028 34.5503 19.2186C35.5917 18.7342 36.642 19.2579 37.1047 20.492C37.5605 21.7077 37.1398 22.9003 36.0818 23.3923ZM34.1186 16.8279L33.3037 17.2069C33.1002 17.3004 32.8725 17.3055 32.6657 17.221C32.459 17.1366 32.2882 16.9688 32.1872 16.7508L32.1469 16.663C31.2701 14.9018 31.1697 12.7612 31.8501 10.3042C32.4804 8.10017 32.7422 6.55007 32.2157 5.14575C31.607 3.5221 30.3072 3.01349 28.6496 3.75027C28.0068 4.04927 27.8022 4.0445 27.2963 4.60349C27.1862 4.72656 27.0551 4.82369 26.9106 4.88908C26.7661 4.95447 26.6113 4.98679 26.4553 4.9841C26.3046 4.98213 26.1558 4.94636 26.0177 4.87893C25.8796 4.81151 25.7552 4.7138 25.6517 4.59165C25.4525 4.35624 25.3408 4.04539 25.3394 3.72186C25.3379 3.39832 25.4467 3.08623 25.6438 2.84859C26.4942 1.85713 27.5199 1.07276 28.6561 0.54497C32.2175 -1.11137 34.0103 1.33398 34.8307 3.52234C35.6332 5.66281 35.1818 7.64881 34.4565 10.2209C33.8487 12.3581 33.8841 13.9418 34.5745 15.5164C34.6243 15.6354 34.6521 15.7645 34.656 15.8958C34.66 16.027 34.6401 16.1579 34.5975 16.2804C34.5549 16.4028 34.4905 16.5145 34.4083 16.6086C34.326 16.7027 34.2274 16.7773 34.1186 16.8279Z" fill="#03A4FF"/>
<path id="Vector_19" d="M124.55 33.2145H107.242C107.187 33.2149 107.132 33.2032 107.081 33.1801C107.03 33.1569 106.984 33.1228 106.945 33.0796C106.906 33.0365 106.875 32.9851 106.854 32.9286C106.833 32.8721 106.822 32.8114 106.822 32.7502C106.822 32.6889 106.833 32.6283 106.854 32.5717C106.875 32.5152 106.906 32.4639 106.945 32.4207C106.984 32.3776 107.03 32.3434 107.081 32.3203C107.132 32.2971 107.187 32.2854 107.242 32.2858H124.55C124.66 32.2867 124.765 32.336 124.843 32.4229C124.92 32.5099 124.964 32.6276 124.964 32.7502C124.964 32.8728 124.92 32.9904 124.843 33.0774C124.765 33.1644 124.66 33.2137 124.55 33.2145Z" fill="#03A4FF"/>
<path id="Vector_20" d="M146.506 33.3693H129.198C129.143 33.3697 129.089 33.358 129.038 33.3349C128.987 33.3117 128.94 33.2776 128.901 33.2344C128.862 33.1913 128.831 33.1399 128.81 33.0834C128.789 33.0268 128.778 32.9662 128.778 32.905C128.778 32.8437 128.789 32.7831 128.81 32.7265C128.831 32.67 128.862 32.6187 128.901 32.5755C128.94 32.5323 128.987 32.4982 129.038 32.4751C129.089 32.4519 129.143 32.4402 129.198 32.4406H146.506C146.561 32.4402 146.616 32.4519 146.667 32.4751C146.718 32.4982 146.764 32.5323 146.803 32.5755C146.842 32.6187 146.873 32.67 146.894 32.7265C146.915 32.7831 146.926 32.8437 146.926 32.905C146.926 32.9662 146.915 33.0268 146.894 33.0834C146.873 33.1399 146.842 33.1913 146.803 33.2344C146.764 33.2776 146.718 33.3117 146.667 33.3349C146.616 33.358 146.561 33.3697 146.506 33.3693Z" fill="#03A4FF"/>
<path id="Vector_21" d="M168.463 33.5241H151.155C151.045 33.5233 150.939 33.474 150.862 33.387C150.784 33.3 150.741 33.1823 150.741 33.0597C150.741 32.9371 150.784 32.8195 150.862 32.7325C150.939 32.6455 151.045 32.5962 151.155 32.5954H168.463C168.518 32.595 168.573 32.6067 168.623 32.6298C168.674 32.653 168.721 32.6871 168.76 32.7303C168.799 32.7734 168.83 32.8248 168.851 32.8813C168.872 32.9379 168.883 32.9985 168.883 33.0597C168.883 33.121 168.872 33.1816 168.851 33.2382C168.83 33.2947 168.799 33.346 168.76 33.3892C168.721 33.4324 168.674 33.4665 168.623 33.4896C168.573 33.5128 168.518 33.5245 168.463 33.5241Z" fill="#03A4FF"/>
<path id="Vector_22" d="M190.42 33.6789H173.111C173.001 33.678 172.896 33.6287 172.818 33.5417C172.741 33.4548 172.697 33.3371 172.697 33.2145C172.697 33.0919 172.741 32.9743 172.818 32.8873C172.896 32.8003 173.001 32.751 173.111 32.7502H190.42C190.53 32.751 190.635 32.8003 190.713 32.8873C190.79 32.9743 190.834 33.0919 190.834 33.2145C190.834 33.3371 190.79 33.4548 190.713 33.5417C190.635 33.6287 190.53 33.678 190.42 33.6789Z" fill="#03A4FF"/>
<path id="Vector_23" d="M115.858 28.9412C117.635 28.9412 119.075 27.337 119.075 25.3582C119.075 23.3794 117.635 21.7753 115.858 21.7753C114.081 21.7753 112.641 23.3794 112.641 25.3582C112.641 27.337 114.081 28.9412 115.858 28.9412Z" fill="#03A4FF"/>
<path id="Vector_24" d="M137.947 28.9412C139.723 28.9412 141.164 27.337 141.164 25.3582C141.164 23.3794 139.723 21.7753 137.947 21.7753C136.17 21.7753 134.73 23.3794 134.73 25.3582C134.73 27.337 136.17 28.9412 137.947 28.9412Z" fill="#03A4FF"/>
<path id="Vector_25" d="M160.036 28.9412C161.813 28.9412 163.253 27.337 163.253 25.3582C163.253 23.3794 161.813 21.7753 160.036 21.7753C158.26 21.7753 156.819 23.3794 156.819 25.3582C156.819 27.337 158.26 28.9412 160.036 28.9412Z" fill="#03A4FF"/>
<path id="Vector_26" d="M182.125 28.9412C183.902 28.9412 185.342 27.337 185.342 25.3582C185.342 23.3794 183.902 21.7753 182.125 21.7753C180.348 21.7753 178.908 23.3794 178.908 25.3582C178.908 27.337 180.348 28.9412 182.125 28.9412Z" fill="#03A4FF"/>
</g>
<defs>
<clipPath id="clip0_1_2332">
<rect width="204" height="151" fill="white"/>
</clipPath>
</defs>
</svg>
