<svg width="239" height="178" viewBox="0 0 239 178" fill="none" xmlns="http://www.w3.org/2000/svg">
<g id="3 1" clip-path="url(#clip0_1_2211)">
<path id="Vector" d="M72.3432 68.6344C71.0642 67.0637 69.2567 65.6105 69.1422 63.6724C69.0373 61.8948 70.4358 60.1299 69.846 58.4292C69.3925 57.1216 67.8963 56.3326 66.4343 55.9148C63.6353 55.1264 60.6399 55.2357 57.9131 56.2257L58.0611 56.1268C56.3968 55.5649 54.4514 56.145 53.142 57.2193C51.8325 58.2936 51.0543 59.7827 50.4505 61.275C49.8466 62.7673 49.3787 64.3141 48.5397 65.7131C47.7006 67.1121 46.4159 68.3844 44.7209 68.8679C45.2884 69.9406 47.0622 70.3087 48.1026 69.5695C48.3683 69.3649 48.6072 69.1308 48.8141 68.8723C49.5079 68.0727 50.2018 67.273 50.8957 66.4734C51.6097 67.6768 50.5431 69.3378 51.4207 70.452C51.8732 71.0265 52.6997 71.2447 53.4673 71.4012C59.4666 72.6144 65.6901 72.3956 71.5781 70.7645C72.0514 70.6324 72.5735 70.4503 72.7698 70.0444C72.9965 69.5758 72.6794 69.0474 72.3432 68.6344Z" fill="#2F2E41"/>
<path id="Vector_2" d="M89.3542 74.7637C89.3167 74.9198 89.2923 75.0785 89.2811 75.2382L76.1683 82.4077L72.9811 80.6687L69.5833 84.8845L74.91 88.4827C75.3403 88.7734 75.8585 88.924 76.3868 88.9118C76.9151 88.8996 77.425 88.7253 77.8398 88.4151L91.3614 78.3052C91.9716 78.5192 92.6362 78.5522 93.2666 78.3996C93.8971 78.247 94.4636 77.9161 94.8907 77.4509C95.3179 76.9857 95.5856 76.4083 95.6581 75.7955C95.7305 75.1826 95.6044 74.5634 95.2965 74.0201C94.9886 73.4768 94.5134 73.0353 93.9343 72.7542C93.3551 72.4731 92.6994 72.3658 92.0543 72.4465C91.4092 72.5272 90.8053 72.7922 90.323 73.2061C89.8407 73.62 89.5028 74.1633 89.3542 74.7637Z" fill="#FFB7B7"/>
<path id="Vector_3" d="M75.7299 82.7473L71.4919 87.953C71.3713 88.1011 71.2184 88.2228 71.0437 88.3099C70.869 88.397 70.6766 88.4474 70.4795 88.4576C70.2824 88.4678 70.0853 88.4377 69.9016 88.3692C69.7179 88.3007 69.5519 88.1955 69.415 88.0608L64.6172 83.339C63.821 82.7501 63.3037 81.8859 63.1787 80.936C63.0538 79.986 63.3314 79.0279 63.9508 78.2717C64.5702 77.5156 65.4807 77.023 66.4826 76.9022C67.4846 76.7813 68.4962 77.042 69.2957 77.627L75.3131 80.8159C75.4854 80.9073 75.6348 81.0328 75.7513 81.1838C75.8678 81.3348 75.9486 81.5079 75.9881 81.6912C76.0277 81.8745 76.0251 82.0637 75.9805 82.2459C75.936 82.4282 75.8505 82.5992 75.7299 82.7473Z" fill="#03A4FF"/>
<path id="Vector_4" d="M69.8973 173.45L73.6395 173.45L75.4198 159.77L69.8965 159.77L69.8973 173.45Z" fill="#FFB7B7"/>
<path id="Vector_5" d="M68.9426 172.292L76.3126 172.292H76.3129C77.5585 172.292 78.7531 172.761 79.6339 173.596C80.5147 174.431 81.0096 175.563 81.0097 176.743V176.888L68.9428 176.889L68.9426 172.292Z" fill="#2F2E41"/>
<path id="Vector_6" d="M44.2559 173.45L47.9984 173.45L49.7786 159.77L44.2554 159.77L44.2559 173.45Z" fill="#FFB7B7"/>
<path id="Vector_7" d="M43.3015 172.292L50.6715 172.292H50.6718C51.9174 172.292 53.112 172.761 53.9928 173.596C54.8736 174.431 55.3685 175.563 55.3685 176.743V176.888L43.3017 176.889L43.3015 172.292Z" fill="#2F2E41"/>
<path id="Vector_8" d="M67.6499 66.7004C68.0397 63.3352 65.4773 60.3078 61.9266 59.9384C58.376 59.569 55.1817 61.9975 54.7919 65.3627C54.4021 68.7278 56.9645 71.7552 60.5152 72.1246C64.0658 72.494 67.2601 70.0655 67.6499 66.7004Z" fill="#FFB7B7"/>
<path id="Vector_9" d="M65.0051 75.2206L68.8154 77.0096C68.8154 77.0096 73.0725 84.0214 70.6305 90.6754C69.4449 93.906 72.7836 104.204 72.7836 104.204C72.7836 104.204 77.9566 150.85 77.9729 165.247C71.5463 166.183 65.4413 167.341 65.136 164.447C64.8308 161.554 61.4893 127.348 61.4893 127.348C61.4893 127.348 56.8942 165.315 53.2312 165.894C49.5682 166.473 42.2422 165.605 42.2422 165.605C42.2422 165.605 48.0583 109.99 52.0265 106.518L52.6371 103.625L52.6207 77.6568L57.1926 75.589L65.0051 75.2206Z" fill="#2F2E41"/>
<path id="Vector_10" d="M51.3747 114.644C51.7964 114.428 52.1628 114.126 52.4484 113.762C52.7339 113.397 52.9315 112.977 53.0273 112.531C53.1231 112.086 53.1147 111.627 53.0027 111.185C52.8908 110.743 52.678 110.33 52.3794 109.974L56.8106 81.981L51.0213 81.7176L47.567 109.595C46.9703 110.11 46.5936 110.815 46.5084 111.576C46.4232 112.336 46.6354 113.1 47.1048 113.722C47.5741 114.345 48.268 114.782 49.055 114.952C49.842 115.122 50.6674 115.012 51.3747 114.644Z" fill="#FFB7B7"/>
<path id="Vector_11" d="M56.6848 88.9951L49.7609 88.5808C49.5639 88.569 49.3719 88.5171 49.198 88.4287C49.0241 88.3402 48.8723 88.2173 48.753 88.0682C48.6337 87.9191 48.5498 87.7475 48.5068 87.5649C48.4638 87.3823 48.4629 87.193 48.5041 87.0101L49.9468 80.599C50.016 79.644 50.482 78.754 51.2426 78.1241C52.0032 77.4943 52.9963 77.176 54.0042 77.2391C55.012 77.3023 55.9523 77.7416 56.6189 78.4608C57.2854 79.1801 57.6238 80.1205 57.5598 81.0758L58.1401 87.5867C58.1566 87.7731 58.1306 87.9607 58.0638 88.1367C57.9969 88.3127 57.8908 88.473 57.7527 88.6067C57.6146 88.7404 57.4477 88.8442 57.2634 88.9113C57.0791 88.9783 56.8818 89.0069 56.6848 88.9951Z" fill="#03A4FF"/>
<path id="Vector_12" d="M67.9994 62.047C67.7473 60.9634 66.9287 60.0657 65.9857 59.4082C64.4311 58.3244 62.5247 57.7916 60.5984 57.9026C58.672 58.0136 56.8478 58.7614 55.4432 60.0158C54.6584 60.6728 54.0926 61.5322 53.815 62.4891C53.6826 62.9674 53.6755 63.469 53.7944 63.9505C53.9133 64.4319 54.1546 64.8785 54.4972 65.2514L54.6264 65.3281C54.5093 64.8571 54.8953 64.3865 55.3565 64.1787C55.8361 64.0119 56.3368 63.9055 56.8456 63.8623C57.6155 63.7244 58.3452 63.4314 58.9854 63.0033C59.6256 62.5752 60.1613 62.0218 60.5565 61.3805C60.8492 62.1698 61.3169 62.8904 61.9281 63.494C62.5393 64.0977 63.2797 64.5703 64.0997 64.8801C64.9544 65.1969 67.3023 65.6325 68.1161 65.2303C69.1542 64.7173 68.2514 63.1305 67.9994 62.047Z" fill="#2F2E41"/>
<path id="Path 438" d="M20.4108 165C21.5298 165.372 22.7314 165.466 23.8996 165.271C25.0678 165.076 26.1633 164.599 27.0806 163.886C29.4168 162.028 30.1493 158.967 30.7451 156.132L32.5079 147.747L28.8174 150.155C26.1633 151.887 23.4496 153.675 21.612 156.183C19.7745 158.692 18.9728 162.117 20.4488 164.831" fill="#E6E6E6"/>
<path id="Path 439" d="M20.9805 175.735C20.516 172.528 20.0381 169.279 20.3647 166.038C20.6541 163.159 21.5809 160.347 23.4677 158.041C24.4692 156.819 25.6879 155.773 27.0689 154.948C27.4289 154.733 27.7604 155.273 27.4019 155.488C25.0123 156.919 23.164 159.033 22.1235 161.524C20.9744 164.294 20.7898 167.313 20.9878 170.256C21.1074 172.035 21.3617 173.803 21.617 175.569C21.6372 175.649 21.6246 175.733 21.5818 175.804C21.539 175.875 21.4692 175.929 21.3865 175.953C21.3022 175.975 21.2123 175.964 21.1363 175.923C21.0603 175.882 21.0044 175.815 20.9807 175.735L20.9805 175.735Z" fill="#F2F2F2"/>
<path id="Path 442" d="M24.324 170.589C24.8039 171.28 25.4636 171.843 26.2395 172.223C27.0155 172.602 27.8816 172.786 28.7543 172.757C30.9976 172.656 32.867 171.172 34.5497 169.764L39.5279 165.598L36.2333 165.449C33.864 165.341 31.4335 165.24 29.1768 165.933C26.9201 166.627 24.8388 168.293 24.4263 170.506" fill="#E6E6E6"/>
<path id="Path 443" d="M19.6677 177.579C21.9039 173.829 24.4976 169.661 29.1324 168.329C30.4211 167.96 31.7722 167.828 33.1132 167.939C33.5359 167.974 33.4304 168.591 33.0085 168.557C30.7606 168.38 28.5171 168.943 26.6556 170.15C24.8642 171.305 23.4694 172.912 22.289 174.616C21.5659 175.659 20.9182 176.747 20.2705 177.834C20.0635 178.181 19.4583 177.93 19.6677 177.579Z" fill="#F2F2F2"/>
<path id="Vector_13" d="M170.781 108.25C166.585 102.927 158.905 101.643 155.088 104.346C151.272 107.049 150.395 114.393 154.591 119.716C158.476 124.642 165.513 125.986 169.389 124.14C169.376 124.198 169.376 124.257 169.387 124.315L169.605 125.339C169.622 125.417 169.659 125.49 169.714 125.55C169.769 125.611 169.839 125.657 169.918 125.684C169.996 125.712 170.081 125.72 170.164 125.708C170.247 125.695 170.326 125.663 170.392 125.614L172.242 124.244C172.309 124.195 172.361 124.131 172.393 124.057C172.426 123.984 172.438 123.904 172.429 123.825C172.42 123.746 172.389 123.67 172.341 123.605C172.292 123.54 172.227 123.488 172.151 123.454L171.155 123.005C171.12 122.99 171.083 122.979 171.046 122.973C174.033 119.979 174.674 113.187 170.781 108.25Z" fill="#CCCCCC"/>
<path id="Vector_14" d="M161.602 106.24C163.655 106.549 165.504 107.593 166.768 109.157C168.032 110.721 168.614 112.685 168.395 114.644C168.35 115.092 169.089 115.089 169.134 114.644C169.346 112.532 168.707 110.423 167.347 108.739C165.987 107.056 164.005 105.921 161.799 105.564C161.334 105.489 161.133 106.165 161.602 106.24Z" fill="white"/>
<path id="Vector_15" d="M177.622 16.2491C181.29 10.5874 179.713 3.34863 175.653 0.985557C171.593 -1.37752 164.068 0.563037 160.399 6.2247C157.003 11.4653 158.285 18.1596 161.526 20.8917C161.465 20.902 161.407 20.9232 161.354 20.9543L160.431 21.525C160.36 21.5685 160.303 21.6283 160.264 21.6988C160.225 21.7693 160.205 21.848 160.207 21.9276C160.209 22.0073 160.233 22.0851 160.276 22.1536C160.318 22.2222 160.379 22.2794 160.451 22.3196L162.478 23.4433C162.551 23.4836 162.633 23.5055 162.717 23.5072C162.801 23.5088 162.884 23.4901 162.958 23.4528C163.032 23.4154 163.095 23.3608 163.141 23.2939C163.187 23.227 163.214 23.1502 163.219 23.0708L163.291 22.0283C163.293 21.9919 163.29 21.9555 163.283 21.9198C167.322 23.4455 174.218 21.5011 177.622 16.2491Z" fill="#CCCCCC"/>
<path id="Vector_16" d="M176.202 7.4226C176.657 9.34465 176.316 11.359 175.25 13.0497C174.183 14.7405 172.472 15.9787 170.471 16.5087C170.014 16.6347 170.29 17.2852 170.744 17.16C172.892 16.5665 174.724 15.2253 175.873 13.4052C177.021 11.5851 177.402 9.42073 176.937 7.34614C176.839 6.90851 176.103 6.98173 176.202 7.4226Z" fill="white"/>
<path id="Vector_17" d="M112.604 43.1123C112.297 36.4745 106.712 31.315 101.952 31.5126C97.1927 31.7102 92.1054 37.3127 92.4121 43.9505C92.6961 50.0946 97.7142 54.9598 102.014 55.5024C101.97 55.5434 101.934 55.592 101.908 55.6458L101.481 56.6086C101.448 56.682 101.436 56.7621 101.445 56.8412C101.454 56.9204 101.485 56.996 101.534 57.0609C101.582 57.1257 101.648 57.1777 101.724 57.2119C101.8 57.246 101.883 57.2612 101.967 57.2561L104.311 57.111C104.394 57.1058 104.476 57.0804 104.546 57.0372C104.617 56.9939 104.674 56.9343 104.714 56.864C104.753 56.7937 104.773 56.7149 104.771 56.6353C104.77 56.5557 104.746 56.4778 104.704 56.4091L104.148 55.5071C104.128 55.4761 104.104 55.4474 104.077 55.4217C108.324 54.5417 112.888 49.2697 112.604 43.1123Z" fill="#03A4FF"/>
<path id="Vector_18" d="M106.211 36.5541C107.724 37.9047 108.632 39.7543 108.748 41.7211C108.864 43.6879 108.178 45.6218 106.833 47.1235C106.53 47.4703 107.143 47.8626 107.444 47.5181C108.873 45.886 109.599 43.8023 109.474 41.6847C109.35 39.5672 108.386 37.5724 106.775 36.1004C106.435 35.7901 105.869 36.2414 106.211 36.5541Z" fill="white"/>
<path id="Vector_19" d="M134.428 87.1466C132.594 87.0371 130.812 86.517 129.231 85.6291C127.649 84.7411 126.312 83.5105 125.329 82.0382C125.053 81.6209 124.694 81.1622 124.884 80.6485C124.951 80.4515 125.086 80.2817 125.267 80.1668C125.449 80.052 125.666 79.9988 125.883 80.0161C126.446 80.081 126.809 80.6023 126.878 81.1018C126.956 81.6684 126.535 82.1132 126.014 82.3237C124.741 82.8382 123.458 82.0432 122.421 81.4087C120.059 79.9629 117.462 78.6554 114.6 78.4907C111.952 78.3382 109.112 79.3222 107.64 81.4984C107.382 81.8792 108.022 82.231 108.278 81.8521C109.739 79.6938 112.692 78.9187 115.259 79.2523C116.789 79.4811 118.266 79.9565 119.627 80.6578C120.333 81.0049 121.017 81.3896 121.688 81.7941C122.326 82.2161 123.002 82.5836 123.709 82.8922C124.887 83.351 126.447 83.3152 127.271 82.2588C128.039 81.2733 127.445 79.6325 126.161 79.3555C125.879 79.3028 125.588 79.3173 125.313 79.3975C125.039 79.4777 124.79 79.6213 124.588 79.8152C124.387 80.0092 124.239 80.2475 124.159 80.5088C124.078 80.7701 124.067 81.0463 124.127 81.3125C124.256 81.8928 124.717 82.4608 125.074 82.9352C126.146 84.3649 127.543 85.5485 129.162 86.3986C130.781 87.2487 132.581 87.7438 134.428 87.8474C134.904 87.8697 134.903 87.1689 134.428 87.1466Z" fill="#CCCCCC"/>
<path id="Vector_20" d="M205.441 38.8636C207.465 37.9711 209.951 37.6785 212.011 38.5079C214.07 39.3373 215.475 41.4631 214.809 43.3446C214.507 44.1976 213.819 45.0365 214.087 45.898C214.293 46.5611 215.013 46.9989 215.719 47.3102C216.426 47.6215 217.199 47.8832 217.71 48.4082C218.221 48.9332 218.327 49.8371 217.689 50.2442C217.479 50.3784 217.216 50.442 217.012 50.5833C216.838 50.7172 216.713 50.8991 216.653 51.1037C216.594 51.3083 216.603 51.5254 216.68 51.7248C216.85 52.1259 217.131 52.4762 217.493 52.7387C218.218 53.3311 219.175 54.009 218.95 54.8498C218.867 55.0745 218.728 55.2768 218.544 55.4396C218.36 55.6023 218.138 55.7207 217.896 55.7846C217.393 55.9221 216.871 55.9874 216.348 55.9783L194.964 56.6167C194.258 56.667 193.548 56.6294 192.853 56.5049C192.514 56.4465 192.193 56.3226 191.907 56.1409C191.622 55.9593 191.379 55.7238 191.194 55.4492C190.785 54.7309 191.054 53.8459 191.559 53.1751C192.065 52.5043 192.781 51.9752 193.372 51.3592C193.964 50.7432 194.448 49.9743 194.343 49.1782C194.26 48.5409 193.816 47.9901 193.498 47.4111C193.18 46.832 192.995 46.1084 193.407 45.5757C193.988 44.8251 195.383 44.8929 196.044 44.1935C196.542 43.6656 196.446 42.9057 196.495 42.225C196.615 40.5876 197.811 39.0413 199.513 38.3232C200.379 37.971 201.321 37.8189 202.261 37.8796C203.201 37.9403 204.112 38.2119 204.92 38.6722L205.441 38.8636Z" fill="#2F2E41"/>
<path id="Vector_21" d="M231.483 119.892V123.206L217.994 124.783L217.994 119.891L231.483 119.892Z" fill="#9E616A"/>
<path id="Vector_22" d="M234.873 119.047L234.873 129.734H234.73C233.566 129.734 232.45 129.295 231.627 128.515C230.804 127.735 230.341 126.677 230.341 125.574V125.574L230.342 119.047L234.873 119.047Z" fill="#2F2E41"/>
<path id="Vector_23" d="M214.809 125.53L213.95 128.743L200.465 127.133L201.733 122.391L214.809 125.53Z" fill="#9E616A"/>
<path id="Vector_24" d="M218.313 125.499L215.545 135.859L215.407 135.826C214.278 135.555 213.31 134.87 212.714 133.923C212.118 132.975 211.944 131.842 212.229 130.772L213.92 124.445L218.313 125.499Z" fill="#2F2E41"/>
<path id="Vector_25" d="M211.365 88.3612L212.093 89.0803C212.093 89.0803 216.846 92.6123 213.329 101.916L207.577 117.621L226.857 118.333L226.444 125.509C226.444 125.509 198.484 126.983 198.729 122.616C198.974 118.249 200.005 102.08 200.005 102.08L194.196 97.6584L195.597 90.1806L211.365 88.3612Z" fill="#2F2E41"/>
<path id="Vector_26" d="M196.43 95.4881L194.196 97.6584L186.708 117.168C186.708 117.168 185.567 122.034 188.134 123.115C190.701 124.197 207.22 130.246 207.22 130.246L208.907 124.492L196.179 117.252L202.111 109.869L203.004 98.2315L196.43 95.4881Z" fill="#2F2E41"/>
<path id="Vector_27" d="M196.549 61.0713L215.556 57.4692L215.97 67.3527L211.046 77.2987L212.093 89.0803L195.058 91.9011L195.591 76.4093C195.591 76.4093 191.016 70.2927 193.711 64.1275L196.549 61.0713Z" fill="#E4E4E4"/>
<path id="Vector_28" d="M238.933 37.6254C239.028 38.0403 239.026 38.4699 238.927 38.884C238.828 39.2981 238.635 39.6867 238.36 40.0222C238.086 40.3578 237.737 40.6323 237.339 40.8263C236.94 41.0203 236.502 41.1291 236.054 41.1451L217.827 61.177L213.589 56.3027L232.838 38.1447C232.86 37.4302 233.157 36.7479 233.674 36.2272C234.191 35.7066 234.891 35.3836 235.642 35.3196C236.393 35.2556 237.143 35.455 237.75 35.8799C238.356 36.3049 238.777 36.926 238.933 37.6254Z" fill="#9E616A"/>
<path id="Vector_29" d="M221.795 58.9911C221.8 59.1782 221.761 59.364 221.683 59.5358C221.605 59.7075 221.488 59.8612 221.341 59.9864L216.216 64.3592C215.573 65.0972 214.647 65.5633 213.641 65.6554C212.636 65.7475 211.633 65.458 210.852 64.8504C210.072 64.2428 209.577 63.3666 209.477 62.414C209.377 61.4614 209.68 60.51 210.319 59.7685L213.896 54.1562C213.998 53.9961 214.136 53.8586 214.299 53.7533C214.462 53.648 214.647 53.5772 214.842 53.5459C215.037 53.5145 215.236 53.5233 215.427 53.5716C215.618 53.6199 215.795 53.7066 215.947 53.8258L221.297 58.015C221.449 58.1341 221.573 58.283 221.659 58.4515C221.745 58.62 221.791 58.804 221.795 58.9911Z" fill="#E4E4E4"/>
<path id="Vector_30" d="M166.744 84.7016C166.716 84.2779 166.786 83.8534 166.949 83.458C167.113 83.0627 167.365 82.7061 167.69 82.4133C168.014 82.1206 168.403 81.8988 168.827 81.7637C169.252 81.6285 169.703 81.5833 170.148 81.6311L191.34 64.4182L194.758 69.8399L172.852 85.0549C172.718 85.7583 172.316 86.3905 171.722 86.8318C171.129 87.2731 170.386 87.4928 169.633 87.4493C168.88 87.4057 168.17 87.102 167.638 86.5956C167.105 86.0891 166.788 85.4152 166.744 84.7016Z" fill="#9E616A"/>
<path id="Vector_31" d="M187.071 66.0149C187.096 65.8293 187.163 65.6511 187.268 65.4924C187.373 65.3337 187.512 65.1983 187.677 65.0954L193.437 61.501C194.19 60.8627 195.179 60.5334 196.188 60.5853C197.196 60.6372 198.142 61.0661 198.818 61.7779C199.493 62.4897 199.843 63.4263 199.792 64.3824C199.74 65.3386 199.29 66.2362 198.541 66.8785L194.115 71.9184C193.989 72.0622 193.831 72.1786 193.653 72.2595C193.475 72.3404 193.281 72.384 193.083 72.3873C192.886 72.3907 192.69 72.3536 192.509 72.2787C192.328 72.2039 192.166 72.0929 192.035 71.9534L187.409 67.0509C187.277 66.9114 187.179 66.7467 187.12 66.5679C187.062 66.3891 187.045 66.2004 187.071 66.0149Z" fill="#E4E4E4"/>
<path id="Vector_32" d="M204.65 56.4597C208.519 56.4597 211.656 53.4868 211.656 49.8197C211.656 46.1526 208.519 43.1797 204.65 43.1797C200.78 43.1797 197.644 46.1526 197.644 49.8197C197.644 53.4868 200.78 56.4597 204.65 56.4597Z" fill="#9E616A"/>
<path id="Vector_33" d="M211.817 48.8757C209.604 48.7073 207.767 46.6125 207.998 44.5202C208.023 45.3826 207.714 46.224 207.128 46.8842C206.542 47.5445 205.72 47.9776 204.82 48.1011C203.805 48.2071 202.692 47.9161 201.809 48.4013C200.83 48.9388 200.517 50.2439 199.498 50.7081C198.513 51.1566 197.262 50.5449 196.776 49.6177C196.289 48.6905 196.408 47.5766 196.731 46.5871C197.191 45.1761 198.028 43.9019 199.161 42.8885C200.295 41.875 201.686 41.1568 203.199 40.8036C204.712 40.4505 206.295 40.4745 207.796 40.8733C209.296 41.2721 210.662 42.0321 211.761 43.0794C212.691 43.9662 213.43 45.0966 213.549 46.342C213.669 47.5874 213.06 48.9387 211.879 49.4982L211.817 48.8757Z" fill="#2F2E41"/>
<path id="Vector_34" d="M108.965 177.32H0.285249C0.209596 177.32 0.137046 177.291 0.0835516 177.24C0.030057 177.19 0 177.121 0 177.049C0 176.978 0.030057 176.909 0.0835516 176.858C0.137046 176.807 0.209596 176.779 0.285249 176.779H108.965C109.041 176.779 109.113 176.807 109.167 176.858C109.22 176.909 109.25 176.978 109.25 177.049C109.25 177.121 109.22 177.19 109.167 177.24C109.113 177.291 109.041 177.32 108.965 177.32Z" fill="#CACACA"/>
</g>
<defs>
<clipPath id="clip0_1_2211">
<rect width="239" height="178" fill="white"/>
</clipPath>
</defs>
</svg>
