<svg width="215" height="137" viewBox="0 0 215 137" fill="none" xmlns="http://www.w3.org/2000/svg">
<g id="2 1" clip-path="url(#clip0_1_2174)">
<g id="Group 7">
<path id="Vector" d="M136.826 117.387H18.4485C17.7556 117.386 17.0913 117.069 16.6013 116.504C16.1114 115.94 15.8358 115.174 15.835 114.376V34.9818C15.8357 34.1835 16.1113 33.4182 16.6013 32.8537C17.0913 32.2892 17.7556 31.9717 18.4485 31.9708H136.826C137.519 31.9717 138.183 32.2893 138.673 32.8537C139.163 33.4182 139.439 34.1835 139.439 34.9818V114.376C139.438 115.174 139.163 115.94 138.673 116.504C138.183 117.068 137.519 117.386 136.826 117.387Z" fill="#E6E6E6"/>
<path id="Vector_2" d="M144.205 128.498H11.0691V27.0115C11.07 26.1194 11.378 25.264 11.9256 24.6331C12.4732 24.0022 13.2157 23.6474 13.9901 23.6464H141.284C142.059 23.6474 142.801 24.0022 143.349 24.6331C143.896 25.264 144.204 26.1194 144.205 27.0115V128.498ZM11.684 127.79H143.59V27.0115C143.59 26.3072 143.346 25.6319 142.914 25.1338C142.482 24.6357 141.896 24.3556 141.284 24.3548H13.9901C13.3787 24.3556 12.7925 24.6357 12.3602 25.1338C11.9279 25.6319 11.6847 26.3072 11.684 27.0115V127.79Z" fill="#CCCCCC"/>
<path id="Vector_3" d="M77.6371 29.4912C78.3164 29.4912 78.867 28.8568 78.867 28.0743C78.867 27.2917 78.3164 26.6573 77.6371 26.6573C76.9579 26.6573 76.4072 27.2917 76.4072 28.0743C76.4072 28.8568 76.9579 29.4912 77.6371 29.4912Z" fill="#E6E6E6"/>
<path id="Vector_4" d="M107.308 100.538H47.9658C47.2729 100.537 46.6086 100.219 46.1187 99.6549C45.6287 99.0905 45.3531 98.3251 45.3523 97.5269V51.8312C45.3531 51.0329 45.6287 50.2676 46.1187 49.7032C46.6086 49.1387 47.2729 48.8212 47.9658 48.8203H107.308C108.001 48.8212 108.665 49.1387 109.155 49.7032C109.645 50.2676 109.921 51.0329 109.922 51.8312V97.5269C109.921 98.3251 109.645 99.0904 109.155 99.6549C108.665 100.219 108.001 100.537 107.308 100.538Z" fill="white"/>
<path id="Vector_5" d="M57.7281 68.3027C57.2416 68.3027 56.766 68.1365 56.3615 67.8252C55.957 67.5138 55.6417 67.0712 55.4556 66.5534C55.2694 66.0356 55.2207 65.4658 55.3156 64.916C55.4105 64.3663 55.6448 63.8614 55.9888 63.4651C56.3328 63.0688 56.7711 62.7989 57.2482 62.6895C57.7254 62.5802 58.2199 62.6363 58.6694 62.8508C59.1189 63.0653 59.5031 63.4285 59.7733 63.8945C60.0436 64.3605 60.1879 64.9084 60.1879 65.4689C60.1871 66.2202 59.9277 66.9405 59.4666 67.4718C59.0055 68.003 58.3802 68.3019 57.7281 68.3027Z" fill="#CCCCCC"/>
<path id="Vector_6" d="M57.7281 77.5127C57.2416 77.5127 56.766 77.3465 56.3615 77.0351C55.957 76.7237 55.6417 76.2811 55.4556 75.7633C55.2694 75.2455 55.2207 74.6757 55.3156 74.126C55.4105 73.5763 55.6448 73.0714 55.9888 72.675C56.3328 72.2787 56.7711 72.0088 57.2482 71.8995C57.7254 71.7901 58.2199 71.8462 58.6694 72.0607C59.1189 72.2752 59.5031 72.6384 59.7733 73.1045C60.0436 73.5705 60.1879 74.1184 60.1879 74.6789C60.1871 75.4302 59.9277 76.1505 59.4666 76.6817C59.0055 77.213 58.3802 77.5118 57.7281 77.5127Z" fill="#03A4FF"/>
<path id="Vector_7" d="M57.7281 86.7227C57.2416 86.7227 56.766 86.5565 56.3615 86.2451C55.957 85.9337 55.6417 85.4911 55.4556 84.9733C55.2694 84.4555 55.2207 83.8857 55.3156 83.336C55.4105 82.7863 55.6448 82.2813 55.9888 81.885C56.3328 81.4887 56.7711 81.2188 57.2482 81.1094C57.7254 81.0001 58.2199 81.0562 58.6694 81.2707C59.1189 81.4852 59.5031 81.8484 59.7733 82.3144C60.0436 82.7804 60.1879 83.3283 60.1879 83.8888C60.1871 84.6401 59.9277 85.3604 59.4666 85.8917C59.0055 86.423 58.3802 86.7218 57.7281 86.7227Z" fill="#03A4FF"/>
<path id="Vector_8" d="M69.4122 63.1664C68.8821 63.1664 68.3738 63.409 67.9989 63.8408C67.6241 64.2726 67.4136 64.8582 67.4136 65.4689C67.4136 66.0795 67.6241 66.6652 67.9989 67.097C68.3738 67.5288 68.8821 67.7714 69.4122 67.7714H98.0072C98.5372 67.7714 99.0456 67.5288 99.4204 67.097C99.7952 66.6652 100.006 66.0795 100.006 65.4689C100.006 64.8582 99.7952 64.2726 99.4204 63.8408C99.0456 63.409 98.5372 63.1664 98.0072 63.1664H69.4122Z" fill="#CCCCCC"/>
<path id="Vector_9" d="M69.4122 72.3763C68.8821 72.3763 68.3738 72.6189 67.9989 73.0507C67.6241 73.4825 67.4136 74.0682 67.4136 74.6788C67.4136 75.2895 67.6241 75.8751 67.9989 76.3069C68.3738 76.7387 68.8821 76.9813 69.4122 76.9813H98.0072C98.5372 76.9813 99.0456 76.7387 99.4204 76.3069C99.7952 75.8751 100.006 75.2895 100.006 74.6788C100.006 74.0682 99.7952 73.4825 99.4204 73.0507C99.0456 72.6189 98.5372 72.3763 98.0072 72.3763H69.4122Z" fill="#03A4FF"/>
<path id="Vector_10" d="M69.4122 81.5864C68.8821 81.5864 68.3738 81.8289 67.9989 82.2608C67.6241 82.6926 67.4136 83.2782 67.4136 83.8889C67.4136 84.4995 67.6241 85.0852 67.9989 85.517C68.3738 85.9488 68.8821 86.1914 69.4122 86.1914H98.0072C98.5372 86.1914 99.0456 85.9488 99.4204 85.517C99.7952 85.0852 100.006 84.4995 100.006 83.8889C100.006 83.2782 99.7952 82.6926 99.4204 82.2608C99.0456 81.8289 98.5372 81.5864 98.0072 81.5864H69.4122Z" fill="#03A4FF"/>
<path id="Vector_11" d="M203.943 132.952L200.174 132.88L198.625 116.096L204.188 116.204L203.943 132.952Z" fill="#FFB8B8"/>
<path id="Vector_12" d="M197.5 131.587L204.769 131.727L204.692 137L192.847 136.771C192.857 136.078 192.985 135.395 193.225 134.76C193.464 134.124 193.81 133.55 194.242 133.068C194.674 132.587 195.184 132.208 195.743 131.954C196.302 131.7 196.899 131.575 197.5 131.587Z" fill="#2F2E41"/>
<path id="Vector_13" d="M166.54 132.913L163.046 131.283L166.839 114.981L171.996 117.386L166.54 132.913Z" fill="#FFB8B8"/>
<path id="Vector_14" d="M160.954 128.969L167.693 132.112L165.975 137L154.994 131.879C155.449 130.582 156.333 129.547 157.451 129.002C158.569 128.456 159.829 128.445 160.954 128.969Z" fill="#2F2E41"/>
<path id="Vector_15" d="M179.138 70.1112L168.069 103.763L163.457 127.142L168.377 129.976L190.822 79.6754L199.124 130.153H204.044C204.044 130.153 206.293 70.2831 203.016 65.5922L179.138 70.1112Z" fill="#2F2E41"/>
<path id="Vector_16" d="M165.416 106.956C170.2 106.956 174.078 102.488 174.078 96.9762C174.078 91.4648 170.2 86.9969 165.416 86.9969C160.632 86.9969 156.754 91.4648 156.754 96.9762C156.754 102.488 160.632 106.956 165.416 106.956Z" fill="#03A4FF"/>
<path id="Vector_17" d="M164.694 101.389L161.945 97.3162L163.544 95.8837L164.845 97.8118L169.243 92.464L170.713 94.069L164.694 101.389Z" fill="white"/>
<path id="Vector_18" d="M184.519 23.5299C190.123 23.5299 194.666 18.2963 194.666 11.8403C194.666 5.38437 190.123 0.150757 184.519 0.150757C178.915 0.150757 174.373 5.38437 174.373 11.8403C174.373 18.2963 178.915 23.5299 184.519 23.5299Z" fill="#2F2E41"/>
<path id="Vector_19" d="M170.359 91.3857C170.791 91.1378 171.171 90.7838 171.472 90.3485C171.772 89.9132 171.987 89.4073 172.099 88.8663C172.212 88.3253 172.22 87.7624 172.124 87.2174C172.027 86.6723 171.828 86.1583 171.54 85.7115L179.237 36.6365L172.054 36.5274L166.709 85.0563C166.09 85.6629 165.685 86.5102 165.572 87.4376C165.458 88.3651 165.644 89.3083 166.094 90.0885C166.544 90.8687 167.226 91.4317 168.012 91.6707C168.798 91.9098 169.633 91.8084 170.359 91.3857Z" fill="#FFB8B8"/>
<path id="Vector_20" d="M214.466 81.8004C214.737 81.3242 214.912 80.7839 214.978 80.2193C215.044 79.6548 214.999 79.0804 214.846 78.5385C214.694 77.9967 214.438 77.5011 214.097 77.0884C213.756 76.6758 213.339 76.3564 212.877 76.1541L199.133 37.6918C198.797 36.7505 198.286 35.9049 197.637 35.2139C196.989 34.5229 196.217 34.003 195.376 33.6905C194.535 33.378 193.645 33.2802 192.768 33.4042C191.891 33.5281 191.048 33.8706 190.298 34.408L208.502 78.6021C208.267 79.4849 208.318 80.4356 208.644 81.2789C208.97 82.1222 209.549 82.8012 210.276 83.1908C211.002 83.5804 211.827 83.6542 212.597 83.3987C213.367 83.1432 214.03 82.5755 214.466 81.8004Z" fill="#FFB8B8"/>
<path id="Vector_21" d="M184.72 24.9448C188.891 24.9448 192.272 21.0495 192.272 16.2445C192.272 11.4395 188.891 7.54425 184.72 7.54425C180.55 7.54425 177.168 11.4395 177.168 16.2445C177.168 21.0495 180.55 24.9448 184.72 24.9448Z" fill="#FFB8B8"/>
<path id="Vector_22" d="M175.537 30.0007C179.893 27.9116 187.413 25.847 195.763 30.347C196.74 30.8719 197.61 31.6288 198.316 32.5681C199.021 33.5075 199.546 34.6081 199.856 35.7977L203.429 49.5658L198.817 54.8793L203.121 65.8604C203.121 65.8604 186.672 77.3729 179.292 70.2883L174.834 52.0454L168.992 50.2743L170.985 36.6326C171.195 35.1739 171.723 33.8005 172.519 32.6407C173.315 31.4809 174.354 30.5726 175.537 30.0007Z" fill="#CCCCCC"/>
<path id="Vector_23" d="M177.657 9.81056C180.606 11.8847 183.931 13.1468 187.373 13.4988L186.349 12.085C187.094 12.4027 187.879 12.5822 188.674 12.6169C189.071 12.6302 189.466 12.5358 189.827 12.3415C190.187 12.1472 190.503 11.8582 190.749 11.4978C190.95 11.1236 191.069 10.6989 191.097 10.26C191.124 9.82119 191.059 9.38116 190.907 8.97746C190.595 8.17227 190.11 7.47248 189.496 6.94471C188.409 5.95413 187.127 5.28874 185.762 5.00783C184.398 4.72693 182.995 4.83924 181.677 5.33476C180.773 5.64592 179.964 6.24406 179.342 7.06065C179.036 7.47199 178.823 7.9644 178.723 8.49368C178.623 9.02297 178.639 9.57257 178.769 10.0932" fill="#2F2E41"/>
<path id="Vector_24" d="M176.245 2.06905C176.122 0.581283 174.54 -0.334646 173.303 0.114762C172.065 0.56417 171.253 1.9993 171.008 3.46677C170.889 4.08478 170.878 4.72359 170.975 5.34655C171.072 5.96952 171.274 6.5644 171.57 7.09708C171.877 7.62301 172.308 8.03646 172.813 8.28831C173.317 8.54016 173.874 8.6198 174.417 8.51778C175.64 8.21731 176.488 6.84088 176.731 5.42693C176.973 4.01297 176.732 2.5552 176.492 1.14078" fill="#2F2E41"/>
<path id="Vector_25" d="M197.153 2.77748C197.03 1.28972 195.448 0.373789 194.211 0.823197C192.974 1.27261 192.161 2.70774 191.916 4.1752C191.798 4.79322 191.787 5.43202 191.883 6.05499C191.98 6.67795 192.182 7.27283 192.479 7.80551C192.785 8.33144 193.216 8.7449 193.721 8.99675C194.226 9.2486 194.782 9.32824 195.325 9.22622C196.549 8.92575 197.396 7.54931 197.639 6.13536C197.881 4.72141 197.641 3.26364 197.4 1.84922" fill="#2F2E41"/>
<path id="Vector_26" d="M146.511 123.893H141.13V122.831C141.13 122.455 141.001 122.095 140.77 121.829C140.539 121.563 140.227 121.414 139.9 121.414H133.443C133.117 121.414 132.804 121.563 132.574 121.829C132.343 122.095 132.214 122.455 132.214 122.831V123.893H131.291V122.831C131.291 122.455 131.162 122.095 130.931 121.829C130.7 121.563 130.387 121.414 130.061 121.414H123.604C123.278 121.414 122.965 121.563 122.735 121.829C122.504 122.095 122.374 122.455 122.374 122.831V123.893H121.452V122.831C121.452 122.455 121.322 122.095 121.092 121.829C120.861 121.563 120.548 121.414 120.222 121.414H113.765C113.439 121.414 113.126 121.563 112.896 121.829C112.665 122.095 112.535 122.455 112.535 122.831V123.893H111.613V122.831C111.613 122.455 111.483 122.095 111.253 121.829C111.022 121.563 110.709 121.414 110.383 121.414H103.926C103.6 121.414 103.287 121.563 103.056 121.829C102.826 122.095 102.696 122.455 102.696 122.831V123.893H101.774V122.831C101.774 122.455 101.644 122.095 101.413 121.829C101.183 121.563 100.87 121.414 100.544 121.414H94.0869C93.7607 121.414 93.4479 121.563 93.2172 121.829C92.9866 122.095 92.857 122.455 92.857 122.831V123.893H91.9346V122.831C91.9346 122.455 91.805 122.095 91.5743 121.829C91.3437 121.563 91.0309 121.414 90.7047 121.414H84.2477C83.9215 121.414 83.6087 121.563 83.3781 121.829C83.1474 122.095 83.0178 122.455 83.0178 122.831V123.893H82.0954V122.831C82.0954 122.455 81.9658 122.095 81.7352 121.829C81.5045 121.563 81.1917 121.414 80.8655 121.414H74.4086C74.0824 121.414 73.7696 121.563 73.5389 121.829C73.3083 122.095 73.1787 122.455 73.1787 122.831V123.893H72.2563V122.831C72.2563 122.455 72.1267 122.095 71.896 121.829C71.6654 121.563 71.3526 121.414 71.0264 121.414H64.5694C64.2432 121.414 63.9304 121.563 63.6998 121.829C63.4691 122.095 63.3395 122.455 63.3395 122.831V123.893H62.4171V122.831C62.4171 122.455 62.2875 122.095 62.0569 121.829C61.8262 121.563 61.5134 121.414 61.1872 121.414H54.7303C54.4041 121.414 54.0913 121.563 53.8606 121.829C53.63 122.095 53.5004 122.455 53.5004 122.831V123.893H52.578V122.831C52.578 122.455 52.4484 122.095 52.2177 121.829C51.9871 121.563 51.6743 121.414 51.3481 121.414H44.8911C44.5649 121.414 44.2521 121.563 44.0215 121.829C43.7908 122.095 43.6612 122.455 43.6612 122.831V123.893H42.7388V122.831C42.7388 122.455 42.6092 122.095 42.3786 121.829C42.1479 121.563 41.8351 121.414 41.5089 121.414H35.052C34.7258 121.414 34.413 121.563 34.1823 121.829C33.9517 122.095 33.8221 122.455 33.8221 122.831V123.893H32.8997V122.831C32.8997 122.455 32.7701 122.095 32.5394 121.829C32.3088 121.563 31.996 121.414 31.6698 121.414H25.2128C24.8866 121.414 24.5738 121.563 24.3432 121.829C24.1125 122.095 23.9829 122.455 23.9829 122.831V123.893H23.0605V122.831C23.0605 122.455 22.9309 122.095 22.7003 121.829C22.4696 121.563 22.1568 121.414 21.8306 121.414H15.3737C15.0475 121.414 14.7347 121.563 14.504 121.829C14.2734 122.095 14.1438 122.455 14.1438 122.831V123.893H8.76298C6.43889 123.893 4.20999 124.957 2.56662 126.85C0.92324 128.744 0 131.312 0 133.989C0 134.788 0.275353 135.553 0.765484 136.118C1.25561 136.683 1.92037 137 2.61352 137H152.661C153.354 137 154.019 136.683 154.509 136.118C154.999 135.553 155.274 134.788 155.274 133.989C155.274 131.312 154.351 128.744 152.708 126.85C151.064 124.957 148.835 123.893 146.511 123.893Z" fill="#3F3D56"/>
</g>
</g>
<defs>
<clipPath id="clip0_1_2174">
<rect width="215" height="137" fill="white"/>
</clipPath>
</defs>
</svg>
