<svg width="222" height="214" viewBox="0 0 222 214" fill="none" xmlns="http://www.w3.org/2000/svg">
<g id="undraw_team_up_re_84ok 1" clip-path="url(#clip0_1_2104)">
<path id="Vector" d="M49.7911 35.7382L48.0986 44.1952L56.5367 46.4592L55.4883 37.4305L49.7911 35.7382Z" fill="#A0616A"/>
<path id="Vector_2" d="M0 210.797C0 211.063 0.224268 211.277 0.503542 211.277H221.496C221.776 211.277 222 211.063 222 210.797C222 210.532 221.776 210.318 221.496 210.318H0.503542C0.224268 210.318 0 210.532 0 210.797Z" fill="#3F3D56"/>
<g id="Group">
<path id="Vector_3" d="M150.648 95.9698H63.6246C53.7561 95.9698 45.7561 103.584 45.7561 112.976V193.29C45.7561 202.683 53.7561 210.297 63.6245 210.297H150.648C160.516 210.297 168.516 202.683 168.516 193.29V112.976C168.516 103.584 160.516 95.9698 150.648 95.9698Z" fill="white"/>
<path id="Vector_4" d="M150.648 210.699H63.6246C53.5387 210.699 45.333 202.89 45.333 193.29V112.976C45.333 103.377 53.5387 95.5671 63.6246 95.5671H150.648C160.734 95.5671 168.939 103.377 168.939 112.976V193.29C168.939 202.89 160.734 210.699 150.648 210.699ZM63.6246 96.3726C54.0052 96.3726 46.1793 103.821 46.1793 112.976V193.29C46.1793 202.446 54.0052 209.894 63.6246 209.894H150.648C160.267 209.894 168.093 202.446 168.093 193.29V112.976C168.093 103.821 160.267 96.3726 150.648 96.3726L63.6246 96.3726Z" fill="#3F3D56"/>
<path id="Vector_5" d="M156.952 130.789H121.973C120.489 130.789 119.282 129.64 119.282 128.228C119.282 126.816 120.489 125.667 121.973 125.667H156.952C158.435 125.667 159.642 126.816 159.642 128.228C159.642 129.64 158.435 130.789 156.952 130.789Z" fill="#03A4FF"/>
<path id="Vector_6" d="M124.137 150.927H90.136C89.2788 150.927 88.5813 150.264 88.5813 149.448C88.5813 148.632 89.2788 147.968 90.136 147.968H124.137C124.994 147.968 125.691 148.632 125.691 149.448C125.691 150.264 124.994 150.927 124.137 150.927Z" fill="#03A4FF"/>
<path id="Vector_7" d="M76.08 101.47H56.6681C56.5956 101.47 56.5369 101.526 56.5369 101.595V103.746C56.5369 103.815 56.5956 103.871 56.6681 103.871H76.08C76.1525 103.871 76.2113 103.815 76.2113 103.746V101.595C76.2113 101.526 76.1525 101.47 76.08 101.47Z" fill="#03A4FF"/>
<path id="Vector_8" d="M141.465 103.871C142.58 103.871 143.483 103.011 143.483 101.95C143.483 100.889 142.58 100.03 141.465 100.03C140.351 100.03 139.448 100.889 139.448 101.95C139.448 103.011 140.351 103.871 141.465 103.871Z" fill="#3F3D56"/>
<path id="Vector_9" d="M147.015 103.871C148.129 103.871 149.033 103.011 149.033 101.95C149.033 100.889 148.129 100.03 147.015 100.03C145.9 100.03 144.997 100.889 144.997 101.95C144.997 103.011 145.9 103.871 147.015 103.871Z" fill="#3F3D56"/>
<path id="Vector_10" d="M152.564 103.871C153.678 103.871 154.582 103.011 154.582 101.95C154.582 100.889 153.678 100.03 152.564 100.03C151.449 100.03 150.546 100.889 150.546 101.95C150.546 103.011 151.449 103.871 152.564 103.871Z" fill="#3F3D56"/>
<path id="Vector_11" d="M63.4128 158.848C63.4128 159.113 63.6371 159.327 63.9164 159.327H150.356C150.635 159.327 150.86 159.113 150.86 158.848C150.86 158.582 150.635 158.368 150.356 158.368H63.9164C63.6371 158.368 63.4128 158.582 63.4128 158.848Z" fill="#3F3D56"/>
</g>
<g id="Group_2">
<path id="uuid-d0b76542-8f08-4363-846d-0cc3b89caf22-178" d="M89.7753 40.6405C91.6155 39.1933 93.8917 38.9239 94.8592 40.0387C95.8267 41.1535 95.1191 43.23 93.278 44.6775C92.5509 45.2653 91.6865 45.6788 90.757 45.8835L82.8786 51.9217L79.9802 48.3425L88.0547 42.7699C88.4413 41.9395 89.0313 41.2093 89.7753 40.6405Z" fill="#A0616A"/>
<path id="Vector_12" d="M44.2386 54.2643C44.2346 53.9973 44.2373 51.668 46.0491 50.1957C48.1304 48.5045 51.0672 49.189 52.0973 49.4291C54.4768 49.9837 54.6719 50.9552 56.9065 51.9535C61.0872 53.821 55.849 52.8651 58.3366 52.2663C59.1977 52.059 71.5855 51.2413 74.6691 49.435C80.6662 45.9219 84.7525 43.7916 84.7525 43.7916L87.4237 48.8764C87.4237 48.8764 83.5611 53.9882 78.1247 57.7752C72.5483 61.6597 69.76 63.602 65.5227 64.3524C65.1578 64.4171 56.1834 65.8754 48.9552 60.7357C47.3065 59.5634 44.2857 57.4154 44.2386 54.2643Z" fill="#E6E6E6"/>
<path id="Vector_13" d="M52.5251 41.3324C57.6644 41.3324 61.8307 37.3672 61.8307 32.4757C61.8307 27.5843 57.6644 23.619 52.5251 23.619C47.3857 23.619 43.2195 27.5843 43.2195 32.4757C43.2195 37.3672 47.3857 41.3324 52.5251 41.3324Z" fill="#A0616A"/>
<g id="Group_3">
<path id="Vector_14" d="M125.403 91.9786L115.82 82.642L110.873 87.5534L118.013 96.5056L125.095 97.2765L125.403 91.9786Z" fill="#A0616A"/>
<path id="Vector_15" d="M70.681 74.4703C71.2415 74.5146 73.0228 74.8543 74.7254 73.9627C75.8874 73.3543 76.4833 72.4496 76.6845 72.1619C79.1816 68.5925 88.7657 63.0266 97.3672 62.684C99.315 62.6065 100.597 62.8213 101.763 63.3994C103.415 64.2193 104.075 65.3936 106.172 68.1446C107.319 69.6493 108.588 71.067 109.749 72.5622C116.545 81.3156 119.121 82.0028 118.858 84.8091C118.566 87.9227 115.038 90.8767 112.693 90.5357C111.732 90.3961 111.36 89.7605 110.077 88.4739C106.315 84.7014 104.759 85.3984 102.08 82.5089C98.9532 79.1353 99.3626 76.3381 97.7311 76.23C96.2181 76.1298 95.5751 78.5161 92.3451 81.6861C90.8671 83.1366 89.8146 83.802 86.6082 85.9192C74.1215 94.1638 73.9223 94.7432 71.4023 95.4008C70.2998 95.6885 62.4746 97.7304 59.6871 94.481C55.3249 89.396 65.6302 74.0709 70.681 74.4703Z" fill="#2F2E41"/>
<path id="Vector_16" d="M122.473 94.0884C123.178 93.7872 124.002 93.435 124.267 92.625C124.447 92.077 124.343 91.4012 123.973 90.9343C123.545 90.3955 122.911 90.3245 122.937 90.2291C122.976 90.084 124.474 90.1407 126.118 90.6939C126.428 90.7982 127.833 91.287 129.621 92.6154C131.054 93.6798 130.861 93.8931 131.759 94.5068C134.516 96.3907 137.102 94.906 138.594 96.6726C139.17 97.3544 139.416 98.3225 139.173 99.1052C138.687 100.677 136.32 101.218 135.027 101.497C131.912 102.17 129.554 101.621 127.093 101.226C118.72 99.8833 114.017 101.106 113.387 99.2601C113.268 98.9108 113.461 98.9405 114.107 96.3766C114.744 93.846 114.723 93.1511 115.266 92.9484C116.083 92.6434 116.631 94.0309 118.689 94.5058C120.512 94.9266 122.016 94.2836 122.473 94.0884Z" fill="#2F2E41"/>
</g>
<g id="Group_4">
<path id="Vector_17" d="M108.365 122.522L105.944 109.675L98.9526 111.095L99.5789 122.318L104.984 126.741L108.365 122.522Z" fill="#A0616A"/>
<path id="Vector_18" d="M73.415 78.7887C73.8527 79.125 75.1262 80.358 77.061 80.5303C78.3815 80.6478 79.4083 80.2177 79.7446 80.0872C83.9167 78.4683 95.131 78.9849 102.45 83.2986C104.108 84.2754 105.042 85.1384 105.665 86.2396C106.549 87.8012 106.402 89.1255 106.514 92.5224C106.575 94.3806 106.789 96.2319 106.867 98.0895C107.326 108.965 109.053 110.91 107.179 113.092C105.1 115.512 100.438 116.071 98.699 114.535C97.9867 113.906 98.054 113.182 97.7514 111.431C96.8643 106.299 95.1652 106.044 94.6537 102.222C94.0565 97.7589 96.0456 95.6631 94.7594 94.7017C93.5666 93.8102 91.6267 95.4411 87.0837 96.3378C85.0049 96.7481 83.7415 96.7362 79.8392 96.7744C64.6427 96.923 64.136 97.2959 61.6629 96.4932C60.5809 96.142 52.9013 93.6494 52.5118 89.4709C51.9024 82.932 69.4714 75.7588 73.415 78.7887Z" fill="#2F2E41"/>
<path id="Vector_19" d="M104.696 122.702C105.457 122.829 106.347 122.979 107.044 122.45C107.516 122.092 107.829 121.478 107.798 120.893C107.761 120.219 107.279 119.822 107.357 119.757C107.475 119.657 108.68 120.505 109.714 121.841C109.909 122.093 110.784 123.249 111.48 125.303C112.037 126.95 111.752 127.023 112.133 128.011C113.303 131.043 116.319 131.197 116.511 133.456C116.585 134.328 116.217 135.26 115.555 135.779C114.225 136.819 111.947 136.002 110.712 135.542C107.738 134.434 106.111 132.719 104.307 131.077C98.1719 125.491 93.558 123.989 94.1262 122.125C94.2337 121.772 94.3764 121.901 96.4232 120.124C98.4434 118.371 98.8362 117.784 99.4047 117.907C100.261 118.091 99.8957 119.532 101.318 121.025C102.579 122.347 104.203 122.619 104.696 122.702Z" fill="#2F2E41"/>
</g>
<path id="Vector_20" d="M53.7938 34.1689C54.156 32.9355 53.701 32.486 54.1648 31.9324C54.1648 31.9324 54.3514 31.7096 56.0199 31.1084C55.5277 28.3899 55.8963 27.9303 55.8963 27.9303C56.3211 27.4005 57.1721 27.2724 57.7514 27.3417C58.9767 27.4883 59.1936 28.5425 59.9776 28.5188C61.0606 28.4861 62.3596 26.4228 61.9564 24.6344C61.6275 23.1756 60.2094 22.0922 59.8539 22.2802C59.5014 22.4666 58.2326 21.6447 57.7514 21.8093C57.4228 21.9218 55.876 21.7722 55.5252 21.9271C55.1422 22.0962 54.0453 23.1492 53.9404 23.0165C53.2117 22.0945 53.2272 21.7726 52.8044 21.5739C52.0552 21.2218 51.2406 21.8726 49.8362 22.5156C46.9464 23.8385 46.1002 23.0494 44.7654 24.1635C44.0912 24.7264 43.7296 25.802 43.034 27.9303C42.0612 30.9066 41.5748 32.3948 42.0446 33.8157C42.5237 35.2648 43.2293 34.9494 44.2707 36.9939C45.43 39.2697 45.0305 40.5926 46.1259 41.1137C46.9725 41.5166 48.3331 41.2602 48.8468 40.5252C49.7263 39.2668 47.453 37.5646 48.2284 35.5814C48.7043 34.364 50.1725 33.441 51.0729 33.698C52.091 33.9887 52.1659 35.726 52.8044 35.6991C53.3511 35.6761 53.7306 34.3838 53.7938 34.1689Z" fill="#2F2E41"/>
<path id="Vector_21" d="M46.7441 42.644C48.6483 40.6118 56.4048 42.7152 57.1328 45.9398C57.4323 47.2662 56.3268 47.8263 56.6381 49.3534C57.0934 51.5871 59.6715 51.4349 61.5851 53.7087C64.3019 56.9368 61.5031 60.0924 64.5534 65.4797C65.2052 66.6309 65.7545 67.6011 66.9032 68.5401C69.5391 70.6949 71.9922 69.9559 73.3343 71.9537C74.338 73.4477 73.9256 75.2891 73.829 75.7204C73.4329 77.4892 72.3594 77.9201 71.6029 79.3694C70.3443 81.7807 71.7693 83.551 71.8502 86.432C71.9515 90.0367 69.9388 95.0333 65.9138 96.6728C61.3918 98.5146 55.938 95.4641 53.2989 92.4352C51.7241 90.6278 51.2669 88.9607 50.578 86.9029C47.499 77.706 45.7594 78.5378 43.4048 71.2474C40.713 62.9133 40.1839 53.1494 43.4048 50.0597C43.8317 49.6502 45.0066 48.7036 45.7546 46.9992C46.7612 44.7058 45.8916 43.5536 46.7441 42.644Z" fill="#E6E6E6"/>
<g id="Group_5">
<path id="uuid-35da8825-ceb1-46f8-a8e3-884fcc945dd4-179" d="M74.8815 89.9492C76.3578 91.7346 76.5867 93.9068 75.3927 94.8009C74.1988 95.6949 72.0345 94.9723 70.5578 93.1861C69.9577 92.4803 69.5438 91.648 69.351 90.7587L63.1958 83.1189L66.3763 80.81L72.6857 88.2615C73.5487 88.6491 74.3017 89.2278 74.8815 89.9492Z" fill="#A0616A"/>
<path id="Vector_22" d="M52.3392 50.3886C52.6131 50.3304 55.0095 49.8575 56.8935 51.2453C59.0577 52.8394 58.9529 55.7155 58.9161 56.7242C58.8312 59.0544 57.8717 59.4345 57.301 61.7202C56.2331 65.9966 58.2667 69.9707 59.3903 72.1663C59.7792 72.9263 61.0287 75.2519 63.5158 77.7564C68.353 82.6273 72.669 85.1904 72.669 85.1904L68.0324 89.113C68.0324 89.113 60.6468 86.9705 55.6424 82.6779C50.509 78.2747 42.6147 62.6957 40.9782 58.9008C40.8372 58.574 42.8336 63.8872 46.6453 56.1037C47.5147 54.3283 49.1077 51.0754 52.3392 50.3886Z" fill="#E6E6E6"/>
</g>
</g>
<g id="Group_6">
<path id="uuid-ba1531a6-e7ab-4297-b996-1d676f43fe3f-180" d="M115.912 169.818C112.965 170.248 110.81 172.044 111.097 173.829C111.385 175.614 114.007 176.712 116.955 176.281C118.135 176.125 119.259 175.702 120.232 175.047L132.695 173.075L131.863 168.387L119.428 170.061C118.294 169.714 117.088 169.631 115.912 169.818Z" fill="#FFB6B6"/>
<path id="Vector_23" d="M169.617 155.203L164.785 164.963L140.491 172.746L120.333 173.77L119.828 169.162L141.675 164.814L164.093 154.731L169.617 155.203Z" fill="#E6E6E6"/>
<path id="Vector_24" d="M124.811 192.261L120.473 202.706L114.858 199.062L118.176 188.132L124.811 192.261Z" fill="#FFB6B6"/>
<path id="Vector_25" d="M106.691 188.375L95.2068 198.819L99.8006 203.434L111.54 194.69L106.691 188.375Z" fill="#FFB6B6"/>
<path id="Vector_26" d="M171.77 154.369L171.642 153.519L168.707 148.054L159.009 150.483L160.796 158.012L171.77 154.369Z" fill="#FFB6B6"/>
<path id="Vector_27" d="M167.686 190.804L167.984 194.452C167.984 194.452 169.217 209.75 159.264 210.964C149.311 212.179 144.973 213.393 139.103 203.92L129.915 188.375L124.549 194.452L117.41 189.103C117.41 189.103 122.514 170.157 126.597 169.429C127.108 169.338 127.618 169.292 128.121 169.282C131.501 169.215 134.688 170.789 136.71 173.368L148.29 188.132L152.501 186.31L167.686 190.804Z" fill="#2F2E41"/>
<path id="Vector_28" d="M112.561 202.22L114.858 198.091L121.493 202.463C121.493 202.463 123.025 207.807 120.728 208.535C118.431 209.264 112.051 208.292 112.051 208.292C112.051 208.292 100.311 210.721 100.056 208.535C99.8006 206.349 105.415 205.863 105.415 205.863L112.561 202.22Z" fill="#2F2E41"/>
<path id="Vector_29" d="M137.571 199.305L119.834 188.668L110.774 196.39L104.649 189.589C104.649 189.589 115.879 173.801 119.196 173.072C122.514 172.343 127.873 171.858 127.873 171.858L144.207 186.189L137.571 199.305Z" fill="#2F2E41"/>
<path id="Vector_30" d="M94.9515 197.848L100.821 203.92L100.047 204.55C100.047 204.55 98.5245 210.863 94.9515 208.727C91.3786 206.592 91.1234 206.106 91.1234 206.106C91.1234 206.106 80.915 208.292 79.8942 204.406C78.8733 200.52 81.6806 201.248 81.6806 201.248L84.2297 202.706L94.9515 197.848Z" fill="#2F2E41"/>
<path id="Vector_31" d="M162.072 153.154C166.582 153.154 170.238 149.674 170.238 145.382C170.238 141.089 166.582 137.609 162.072 137.609C157.561 137.609 153.905 141.089 153.905 145.382C153.905 149.674 157.561 153.154 162.072 153.154Z" fill="#FFB6B6"/>
<path id="Vector_32" d="M160.158 156.434L171.897 153.033C171.897 153.033 176.491 163.235 175.725 167.85C174.96 172.465 167.985 194.452 167.985 194.452L152.501 186.31C152.501 186.31 152.246 181.452 151.481 179.266C150.715 177.08 148.29 170.4 153.65 164.814C159.009 159.227 160.158 156.434 160.158 156.434Z" fill="#E6E6E6"/>
<g id="Group_7">
<path id="uuid-375aaccb-22f9-42b6-a352-baabb12db8d2-181" d="M134.319 207.438C132.409 209.616 132.041 212.32 133.498 213.477C134.955 214.634 137.684 213.806 139.595 211.627C140.371 210.766 140.919 209.741 141.193 208.637L149.166 199.31L145.282 196.318L137.124 205.406C136.032 205.86 135.07 206.557 134.319 207.438Z" fill="#FFB6B6"/>
<path id="Vector_33" d="M169.162 161.334L171.937 171.795L158.356 192.486L144.492 205.748L139.998 202.199L153.981 185.641L164.579 164.307L169.162 161.334Z" fill="#E6E6E6"/>
</g>
<path id="Vector_34" d="M154.543 144.046C156.637 144.041 156.756 144.054 157.095 144.046C159.693 143.98 160.372 143.008 161.689 143.074C164.039 143.192 160.937 154.407 159.647 159.591C158.382 164.676 162.658 169.232 162.965 169.55C167.305 174.042 174.928 174.864 176.236 172.951C177.295 171.402 173.542 169.048 174.449 165.664C175.336 162.355 179.43 162.708 180.574 159.591C181.773 156.327 177.745 154.681 175.215 146.718C173.762 142.144 174.019 141.292 172.663 138.459C169.038 130.887 151.273 134.111 153.267 141.131C153.653 142.489 152.626 144.05 154.543 144.046Z" fill="#2F2E41"/>
</g>
<g id="Group_8">
<path id="Vector_35" d="M180.621 51.773H94.7904C92.3631 51.773 90.3884 49.8934 90.3884 47.5834V4.18962C90.3884 1.87959 92.3631 0 94.7904 0H180.621C183.048 0 185.023 1.87959 185.023 4.18962V47.5834C185.023 49.8934 183.048 51.773 180.621 51.773Z" fill="white"/>
<path id="Vector_36" d="M180.621 51.773H94.7904C92.3631 51.773 90.3884 49.8934 90.3884 47.5834V4.18962C90.3884 1.87959 92.3631 0 94.7904 0H180.621C183.048 0 185.023 1.87959 185.023 4.18962V47.5834C185.023 49.8934 183.048 51.773 180.621 51.773ZM94.7904 0.699636C92.7685 0.699636 91.1235 2.26528 91.1235 4.18962V47.5834C91.1235 49.5078 92.7685 51.0734 94.7904 51.0734H180.621C182.643 51.0734 184.288 49.5078 184.288 47.5834V4.18962C184.288 2.26528 182.643 0.699636 180.621 0.699636H94.7904Z" fill="#3F3D56"/>
<path id="Vector_37" d="M173.997 5.24728C174.606 5.24728 175.099 4.77742 175.099 4.19783C175.099 3.61823 174.606 3.14838 173.997 3.14838C173.388 3.14838 172.894 3.61823 172.894 4.19783C172.894 4.77742 173.388 5.24728 173.997 5.24728Z" fill="#3F3D56"/>
<path id="Vector_38" d="M176.937 5.24728C177.546 5.24728 178.04 4.77742 178.04 4.19783C178.04 3.61823 177.546 3.14838 176.937 3.14838C176.328 3.14838 175.834 3.61823 175.834 4.19783C175.834 4.77742 176.328 5.24728 176.937 5.24728Z" fill="#3F3D56"/>
<path id="Vector_39" d="M179.878 5.24728C180.487 5.24728 180.98 4.77742 180.98 4.19783C180.98 3.61823 180.487 3.14838 179.878 3.14838C179.269 3.14838 178.775 3.61823 178.775 4.19783C178.775 4.77742 179.269 5.24728 179.878 5.24728Z" fill="#3F3D56"/>
<path id="Vector_40" d="M96.6368 21.164C96.3328 21.164 96.0854 21.3994 96.0854 21.6887C96.0854 21.8298 96.1427 21.9603 96.2466 22.0566C96.3514 22.1588 96.4887 22.2135 96.6368 22.2135H179.142C179.446 22.2135 179.694 21.9781 179.694 21.6887C179.694 21.5476 179.636 21.4171 179.533 21.3208C179.428 21.2187 179.29 21.164 179.142 21.164H96.6368Z" fill="#E6E6E6"/>
<path id="Vector_41" d="M168.851 20.9891V22.3883H96.6367C96.4346 22.3883 96.2508 22.3114 96.1185 22.1819C95.9825 22.056 95.9016 21.8811 95.9016 21.6887C95.9016 21.3039 96.2324 20.9891 96.6367 20.9891H168.851Z" fill="#03A4FF"/>
<path id="Vector_42" d="M178.223 18.3654H170.873C170.062 18.3654 169.402 17.7379 169.402 16.9662C169.402 16.1944 170.062 15.5669 170.873 15.5669H178.223C179.034 15.5669 179.694 16.1944 179.694 16.9662C179.694 17.7379 179.034 18.3654 178.223 18.3654Z" fill="#E6E6E6"/>
<path id="Vector_43" d="M130.075 11.0192H97.188C96.3773 11.0192 95.7178 10.3917 95.7178 9.61998C95.7178 8.84826 96.3773 8.2207 97.188 8.2207H130.075C130.885 8.2207 131.545 8.84826 131.545 9.61998C131.545 10.3917 130.885 11.0192 130.075 11.0192Z" fill="#E6E6E6"/>
<path id="Vector_44" d="M96.6368 36.9058C96.3328 36.9058 96.0854 37.1411 96.0854 37.4305C96.0854 37.5716 96.1427 37.7021 96.2466 37.7984C96.3514 37.9006 96.4887 37.9552 96.6368 37.9552H179.142C179.446 37.9552 179.694 37.7198 179.694 37.4305C179.694 37.2894 179.636 37.1589 179.533 37.0626C179.428 36.9604 179.29 36.9058 179.142 36.9058H96.6368Z" fill="#E6E6E6"/>
<path id="Vector_45" d="M140.55 36.7309V38.1302H96.6367C96.4346 38.1302 96.2508 38.0532 96.1185 37.9238C95.9825 37.7978 95.9016 37.6229 95.9016 37.4305C95.9016 37.0457 96.2324 36.7309 96.6367 36.7309H140.55Z" fill="#03A4FF"/>
<path id="Vector_46" d="M178.223 34.1073H170.873C170.062 34.1073 169.402 33.4797 169.402 32.708C169.402 31.9363 170.062 31.3087 170.873 31.3087H178.223C179.034 31.3087 179.694 31.9363 179.694 32.708C179.694 33.4797 179.034 34.1073 178.223 34.1073Z" fill="#E6E6E6"/>
</g>
</g>
<defs>
<clipPath id="clip0_1_2104">
<rect width="222" height="214" fill="white"/>
</clipPath>
</defs>
</svg>
