<svg width="249" height="215" viewBox="0 0 249 215" fill="none" xmlns="http://www.w3.org/2000/svg">
<g id="4 1" clip-path="url(#clip0_1_2266)">
<g id="Group">
<path id="Vector" d="M172.069 214.459H101.416C90.8192 214.459 82.1978 206.249 82.1978 196.157V18.3009C82.1978 8.20981 90.8192 0 101.416 0H172.069C182.666 0 191.287 8.20981 191.287 18.3009C192.602 89.7226 194.845 169.704 191.287 196.157C191.287 206.249 182.666 214.459 172.069 214.459Z" fill="#3F3D56"/>
<path id="Vector_2" d="M192.273 65.4214C191.824 65.4214 191.459 65.7687 191.459 66.1957V90.9706C191.459 91.3976 191.824 91.7449 192.273 91.7449C192.721 91.7449 193.086 91.3976 193.086 90.9706V66.1957C193.086 65.7687 192.721 65.4214 192.273 65.4214Z" fill="#3F3D56"/>
<path id="Vector_3" d="M189.458 18.301V196.154C189.458 204.938 182.279 212.123 173.201 212.68H173.197C173.063 212.688 172.929 212.696 172.791 212.699C172.551 212.711 172.311 212.715 172.067 212.715C172.067 212.715 171.173 212.653 169.538 212.537C167.888 212.421 165.485 212.246 162.489 212.018C161.591 211.952 160.644 211.879 159.644 211.801C157.652 211.646 155.465 211.476 153.119 211.283C152.184 211.209 151.217 211.128 150.229 211.046C145.18 210.632 139.525 210.148 133.562 209.599C132.553 209.51 131.537 209.417 130.513 209.32C130.244 209.293 84.0269 198.229 84.0269 196.154V18.301C84.0269 9.15368 91.8117 1.74054 101.418 1.74054H111.8C113.459 1.74054 114.792 2.97154 114.934 4.54708C114.947 4.65161 114.959 4.75611 114.979 4.86064C115.28 6.44393 116.804 7.54718 118.495 7.54718H154.989C156.68 7.54718 158.205 6.44393 158.506 4.86064C158.526 4.75611 158.538 4.65161 158.55 4.54708C158.693 2.97155 160.026 1.74054 161.684 1.74054H172.067C181.673 1.74054 189.458 9.15368 189.458 18.301Z" fill="white"/>
<path id="Vector_4" d="M81.7911 46.8402C81.3427 46.8402 80.978 47.1874 80.978 47.6144V53.8082C80.978 54.2352 81.3427 54.5824 81.7911 54.5824C82.2395 54.5824 82.6041 54.2352 82.6041 53.8082V47.6144C82.6041 47.1874 82.2395 46.8402 81.7911 46.8402Z" fill="#3F3D56"/>
<path id="Vector_5" d="M81.7911 65.4215C81.3427 65.4215 80.978 65.7687 80.978 66.1957V78.196C80.978 78.623 81.3427 78.9703 81.7911 78.9703C82.2395 78.9703 82.6041 78.623 82.6041 78.196V66.1957C82.6041 65.7687 82.2395 65.4215 81.7911 65.4215Z" fill="#3F3D56"/>
<path id="Vector_6" d="M81.7911 82.4543C81.3427 82.4543 80.978 82.8015 80.978 83.2285V95.2289C80.978 95.6559 81.3427 96.0031 81.7911 96.0031C82.2395 96.0031 82.6041 95.6559 82.6041 95.2289V83.2285C82.6041 82.8015 82.2395 82.4543 81.7911 82.4543Z" fill="#3F3D56"/>
<path id="Vector_7" d="M111.533 4.45184H95.9526C95.8771 4.45184 95.8159 4.51013 95.8159 4.58203V6.2572C95.8159 6.3291 95.8771 6.38739 95.9526 6.38739H111.533C111.609 6.38739 111.67 6.3291 111.67 6.2572V4.58203C111.67 4.51013 111.609 4.45184 111.533 4.45184Z" fill="#E6E6E6"/>
<path id="Vector_8" d="M164.254 6.38734C165.152 6.38734 165.88 5.69408 165.88 4.8389C165.88 3.98372 165.152 3.29047 164.254 3.29047C163.355 3.29047 162.627 3.98372 162.627 4.8389C162.627 5.69408 163.355 6.38734 164.254 6.38734Z" fill="#E6E6E6"/>
<path id="Vector_9" d="M168.725 6.38734C169.623 6.38734 170.351 5.69408 170.351 4.8389C170.351 3.98372 169.623 3.29047 168.725 3.29047C167.827 3.29047 167.099 3.98372 167.099 4.8389C167.099 5.69408 167.827 6.38734 168.725 6.38734Z" fill="#E6E6E6"/>
<path id="Vector_10" d="M173.197 6.38734C174.095 6.38734 174.823 5.69408 174.823 4.8389C174.823 3.98372 174.095 3.29047 173.197 3.29047C172.299 3.29047 171.571 3.98372 171.571 4.8389C171.571 5.69408 172.299 6.38734 173.197 6.38734Z" fill="#E6E6E6"/>
</g>
<path id="Vector_11" d="M6.30859 214.501C6.30859 214.778 6.54219 215 6.83308 215H248.476C248.766 215 249 214.778 249 214.501C249 214.224 248.766 214.001 248.476 214.001H6.83308C6.54219 214.001 6.30859 214.224 6.30859 214.501Z" fill="#CCCCCC"/>
<g id="Group_2">
<path id="Vector_12" d="M83.3551 211.22L78.3998 211.22L76.0425 193.019L83.3561 193.019L83.3551 211.22Z" fill="#FFB6B6"/>
<path id="Vector_13" d="M66.3773 211.113C66.223 211.361 66.1416 212.159 66.1416 212.447C66.1416 213.332 66.8946 214.049 67.8235 214.049H83.1696C83.8032 214.049 84.317 213.56 84.317 212.956V212.348C84.317 212.348 85.0761 210.519 83.5131 208.265C83.5131 208.265 81.5706 210.03 78.6679 207.266L77.8119 205.789L71.6158 210.105L68.1814 210.507C67.43 210.595 66.7638 210.494 66.3773 211.113Z" fill="#2F2E41"/>
</g>
<g id="Group_3">
<path id="Vector_14" d="M55.9511 185.94L50.9958 185.924L48.6992 167.716L56.0128 167.739L55.9511 185.94Z" fill="#FFB6B6"/>
<path id="Vector_15" d="M38.974 185.781C38.8189 186.028 38.7348 186.827 38.7339 187.115C38.7309 187.999 39.4815 188.718 40.4104 188.721L55.7565 188.768C56.3901 188.77 56.9054 188.282 56.9075 187.678L56.9095 187.07C56.9095 187.07 57.6747 185.244 56.1193 182.985C56.1193 182.985 54.1709 184.744 51.2774 181.971L50.4263 180.492L44.2159 184.788L40.7802 185.181C40.0285 185.266 39.3626 185.163 38.974 185.781Z" fill="#2F2E41"/>
</g>
<path id="Vector_16" d="M76.1276 100.723L69.9575 101.143C69.9575 101.143 49.0693 112.452 47.3065 114.97C45.5436 117.488 43.1196 121.055 45.3232 124.832C47.5268 128.61 45.8497 174.343 45.8497 174.343L56.3797 172.075L63.1264 124.225L77.2294 122.336C77.2294 122.336 82.0773 132.296 80.3144 140.536C78.5516 148.776 77.6701 153.812 77.6701 153.812L75.4665 202.495L84.0606 202.285L91.7732 157.17L104.995 121.497L87.8067 102.192L76.1276 100.723Z" fill="#2F2E41"/>
<path id="Vector_17" d="M106.537 49.1025L93.7565 50.3615L92.4344 54.5583L80.0942 60.8535L84.0607 87.2933L80.9756 91.9097L82.2978 96.5262C82.2978 96.5262 78.772 96.9459 79.2127 99.464L71.2798 100.723C71.2798 100.723 81.8015 102.769 84.0329 112.867C86.2643 122.966 104.775 124.225 104.775 124.225L119.318 80.9981L120.64 55.3977L110.504 52.8796L106.537 49.1025Z" fill="#E6E6E6"/>
<path id="Vector_18" d="M99.8013 47.5099C105.289 47.5099 109.737 43.274 109.737 38.0487C109.737 32.8234 105.289 28.5875 99.8013 28.5875C94.314 28.5875 89.8657 32.8234 89.8657 38.0487C89.8657 43.274 94.314 47.5099 99.8013 47.5099Z" fill="#FFB6B6"/>
<path id="Vector_19" d="M94.6378 46.5844C94.6378 46.5844 85.8234 46.1647 86.7049 39.4498C84.5232 32.2992 86.4542 27.6564 93.3157 26.0201C93.3157 26.0201 95.0785 25.6004 95.5193 25.6004C101.316 25.6004 104.334 27.2791 104.334 27.2791C104.334 27.2791 103.893 25.6169 104.334 26.0283C104.774 26.4398 105.215 27.2791 105.215 27.2791C105.215 27.2791 109.622 29.3775 109.622 33.5743C109.622 37.7711 109.622 36.0924 109.622 36.0924C109.622 36.0924 108.741 36.0924 107.859 33.5743C106.978 31.0562 101.271 32.7349 101.271 32.7349L101.689 33.5743L100.367 33.1546L99.045 34.4137L98.1636 33.994C98.1636 33.994 94.6378 33.994 95.0785 33.994C95.5193 33.994 95.2121 36.8461 95.2121 36.8461L91.9935 40.2892L95.5193 46.5844H94.6378Z" fill="#2F2E41"/>
<path id="Vector_20" d="M47.6772 96.6747C45.168 97.9788 43.8404 100.269 44.7119 101.789C45.5833 103.31 48.3238 103.485 50.833 102.181C51.9314 101.61 52.8033 100.85 53.3635 100.049L63.9228 94.3964L61.0316 89.7343L50.9291 95.8015C49.9182 95.8166 48.7756 96.1039 47.6772 96.6747Z" fill="#FFB6B6"/>
<path id="Vector_21" d="M83.2863 61.0494C83.2863 61.0494 79.147 59.5486 77.7209 61.3551C76.2947 63.1616 66.8735 85.0816 66.8735 85.0816L53.0508 91.956L56.9379 98.4018L74.7374 92.7587L86.4811 72.3062L83.2863 61.0494Z" fill="#E6E6E6"/>
<g id="Group_4">
<path id="Vector_22" d="M213.815 133.037V177.523C213.815 181.457 210.454 184.658 206.323 184.658H90.8541C86.7227 184.658 83.3618 181.457 83.3618 177.523V133.037C83.3618 129.103 86.7227 125.903 90.8541 125.903H206.323C210.454 125.903 213.815 129.103 213.815 133.037Z" fill="white"/>
<path id="Vector_23" d="M213.815 133.037V177.523C213.815 181.457 210.454 184.658 206.323 184.658H90.8541C86.7227 184.658 83.3618 181.457 83.3618 177.523V133.037C83.3618 129.103 86.7227 125.903 90.8541 125.903H206.323C210.454 125.903 213.815 129.103 213.815 133.037ZM206.323 183.819C209.974 183.819 212.934 181 212.934 177.523V155.095C212.934 139.436 199.603 126.742 183.159 126.742H90.8541C87.203 126.742 84.2433 129.561 84.2433 133.037V177.523C84.2433 181 87.203 183.819 90.8541 183.819H206.323Z" fill="#3F3D56"/>
<g id="Group_5">
<path id="Vector_24" d="M135.195 152.78H120.113C119.733 152.78 119.424 153.074 119.424 153.436C119.424 153.798 119.733 154.093 120.113 154.093H135.195C135.575 154.093 135.885 153.798 135.885 153.436C135.885 153.074 135.575 152.78 135.195 152.78Z" fill="#03A4FF"/>
<path id="Vector_25" d="M158.113 152.78H143.031C142.651 152.78 142.341 153.074 142.341 153.436C142.341 153.798 142.651 154.093 143.031 154.093H158.113C158.493 154.093 158.802 153.798 158.802 153.436C158.802 153.074 158.493 152.78 158.113 152.78Z" fill="#03A4FF"/>
</g>
<g id="Group_6">
<path id="Vector_26" d="M135.195 159.959H120.113C119.733 159.959 119.424 160.253 119.424 160.615C119.424 160.977 119.733 161.272 120.113 161.272H135.195C135.575 161.272 135.885 160.977 135.885 160.615C135.885 160.253 135.575 159.959 135.195 159.959Z" fill="#03A4FF"/>
<path id="Vector_27" d="M158.113 159.959H143.031C142.651 159.959 142.341 160.253 142.341 160.615C142.341 160.977 142.651 161.272 143.031 161.272H158.113C158.493 161.272 158.802 160.977 158.802 160.615C158.802 160.253 158.493 159.959 158.113 159.959Z" fill="#03A4FF"/>
<path id="Vector_28" d="M181.72 160.615C181.72 160.253 181.41 159.959 181.03 159.959H165.948C165.568 159.959 165.259 160.253 165.259 160.615C165.259 160.977 165.568 161.272 165.948 161.272H181.03C181.41 161.272 181.72 160.977 181.72 160.615Z" fill="#03A4FF"/>
</g>
<g id="Group_7">
<path id="Vector_29" d="M126.381 147.047C126.761 147.047 127.07 146.753 127.07 146.391C127.07 146.029 126.761 145.734 126.381 145.734H111.299C110.919 145.734 110.609 146.029 110.609 146.391C110.609 146.753 110.919 147.047 111.299 147.047H126.381Z" fill="#03A4FF"/>
<path id="Vector_30" d="M170.796 146.78H185.878C186.258 146.78 186.567 146.486 186.567 146.124C186.567 145.762 186.258 145.467 185.878 145.467H170.796C170.416 145.467 170.106 145.762 170.106 146.124C170.106 146.486 170.416 146.78 170.796 146.78Z" fill="#03A4FF"/>
<path id="Vector_31" d="M132.734 146.918H164.002C164.382 146.918 164.691 146.624 164.691 146.262C164.691 145.9 164.382 145.605 164.002 145.605H132.734C132.354 145.605 132.044 145.9 132.044 146.262C132.044 146.624 132.354 146.918 132.734 146.918Z" fill="#03A4FF"/>
</g>
<path id="Vector_32" d="M145.036 166.481H129.955C129.575 166.481 129.265 166.776 129.265 167.138C129.265 167.5 129.575 167.794 129.955 167.794H145.036C145.417 167.794 145.726 167.5 145.726 167.138C145.726 166.776 145.417 166.481 145.036 166.481Z" fill="#03A4FF"/>
<g id="Group_8">
<path id="Vector_33" d="M193.745 132.702V177.188C193.745 181.122 190.384 184.323 186.253 184.323H139.537C135.405 184.323 132.044 181.122 132.044 177.188V132.702C132.044 128.768 135.405 125.567 139.537 125.567H186.253C190.384 125.567 193.745 128.768 193.745 132.702Z" fill="white"/>
<path id="Vector_34" d="M193.745 132.702V177.188C193.745 181.122 190.384 184.323 186.253 184.323H139.537C135.405 184.323 132.044 181.122 132.044 177.188V132.702C132.044 128.768 135.405 125.567 139.537 125.567H186.253C190.384 125.567 193.745 128.768 193.745 132.702ZM183.355 183.483C188.607 183.483 192.864 179.429 192.864 174.428V154.76C192.864 139.101 179.533 126.407 163.089 126.407H139.537C135.886 126.407 132.926 129.225 132.926 132.702V170.981C132.926 177.886 138.804 183.483 146.055 183.483L183.355 183.483Z" fill="#3F3D56"/>
<path id="Vector_35" d="M169.114 143.736H154.032C153.652 143.736 153.342 143.442 153.342 143.08C153.342 142.718 153.652 142.423 154.032 142.423H169.114C169.494 142.423 169.803 142.718 169.803 143.08C169.803 143.442 169.494 143.736 169.114 143.736Z" fill="#03A4FF"/>
<path id="Vector_36" d="M169.114 157.738H154.032C153.652 157.738 153.342 157.444 153.342 157.082C153.342 156.72 153.652 156.425 154.032 156.425H169.114C169.494 156.425 169.803 156.72 169.803 157.082C169.803 157.444 169.494 157.738 169.114 157.738Z" fill="#03A4FF"/>
<path id="Vector_37" d="M161.621 177.044H146.54C146.159 177.044 145.85 176.749 145.85 176.387C145.85 176.025 146.159 175.73 146.54 175.73H161.621C162.002 175.73 162.311 176.025 162.311 176.387C162.311 176.749 162.002 177.044 161.621 177.044Z" fill="#03A4FF"/>
<path id="Vector_38" d="M177.207 150.742H145.939C145.559 150.742 145.25 150.447 145.25 150.085C145.25 149.723 145.559 149.429 145.939 149.429H177.207C177.587 149.429 177.896 149.723 177.896 150.085C177.896 150.447 177.587 150.742 177.207 150.742Z" fill="#03A4FF"/>
</g>
<g id="Group_9">
<g id="Group_10">
<path id="Vector_39" d="M184.956 108.051C184.956 94.1736 172.638 86.5395 158.568 82.9236C140.529 78.2878 127.318 87.6686 132.181 108.051C133.283 112.671 135.919 118.066 139.182 122.681H165.076C173.726 117.319 184.956 118.823 184.956 108.051Z" fill="#03A4FF"/>
<path id="Vector_40" d="M158.181 134.285C159.654 131.611 161.521 129.682 163.579 128.214H139.326C145.568 136.705 153.846 142.154 158.181 134.285Z" fill="#03A4FF"/>
</g>
<path id="Vector_41" d="M155.382 93.1948C156.939 93.1948 158.202 94.3968 158.202 95.8795V101.249H152.563V95.8795C152.563 94.3968 153.825 93.1948 155.382 93.1948ZM159.611 101.249V95.8794C159.611 93.6554 157.718 91.8525 155.382 91.8525C153.047 91.8525 151.154 93.6554 151.154 95.8794V101.249C149.597 101.249 148.334 102.451 148.334 103.933V110.645C148.334 112.127 149.597 113.329 151.154 113.329H159.611C161.168 113.329 162.43 112.127 162.43 110.645V103.933C162.43 102.451 161.168 101.249 159.611 101.249ZM151.154 102.591H159.611C160.39 102.591 161.021 103.192 161.021 103.933V110.645C161.021 111.386 160.39 111.987 159.611 111.987H151.154C150.375 111.987 149.744 111.386 149.744 110.645V103.933C149.744 103.192 150.375 102.591 151.154 102.591Z" fill="white"/>
</g>
</g>
<path id="Vector_42" d="M115.094 124.453C114.754 127.156 115.943 129.514 117.749 129.72C119.555 129.926 121.295 127.902 121.635 125.199C121.784 124.016 121.64 122.899 121.279 121.999L122.568 110.53L116.903 110.068L116.233 121.424C115.66 122.217 115.243 123.27 115.094 124.453Z" fill="#FFB6B6"/>
<path id="Vector_43" d="M116.454 56.0272C116.454 56.0272 122.624 54.3484 123.946 56.8665C125.268 59.3846 128.353 92.5392 128.353 92.5392L122.403 119.004L115.572 117.3L119.098 90.4408L114.25 70.2962L116.454 56.0272Z" fill="#E6E6E6"/>
<g id="Group_11">
<path id="Vector_44" d="M25.7821 136.538C40.0212 136.538 51.5642 125.546 51.5642 111.987C51.5642 98.4278 40.0212 87.4358 25.7821 87.4358C11.5431 87.4358 0 98.4278 0 111.987C0 125.546 11.5431 136.538 25.7821 136.538Z" fill="#03A4FF"/>
<path id="Vector_45" d="M25.7819 100.996C27.6032 100.996 29.0796 102.402 29.0796 104.136V110.417H22.4842V104.136C22.4842 102.402 23.9606 100.996 25.7819 100.996ZM30.7285 110.417V104.136C30.7285 101.535 28.5138 99.4259 25.7819 99.4259C23.05 99.4259 20.8353 101.535 20.8353 104.136V110.417C19.014 110.417 17.5376 111.823 17.5376 113.557V121.408C17.5376 123.142 19.014 124.548 20.8353 124.548H30.7285C32.5497 124.548 34.0262 123.142 34.0262 121.408V113.557C34.0262 111.823 32.5497 110.417 30.7285 110.417ZM20.8353 111.987H30.7285C31.6391 111.987 32.3773 112.69 32.3773 113.557V121.408C32.3773 122.275 31.6391 122.978 30.7285 122.978H20.8353C19.9247 122.978 19.1865 122.275 19.1865 121.408V113.557C19.1865 112.69 19.9247 111.987 20.8353 111.987Z" fill="white"/>
</g>
</g>
<defs>
<clipPath id="clip0_1_2266">
<rect width="249" height="215" fill="white"/>
</clipPath>
</defs>
</svg>
