<svg width="191" height="189" viewBox="0 0 191 189" fill="none" xmlns="http://www.w3.org/2000/svg">
<g id="15 1" clip-path="url(#clip0_1_1989)">
<path id="Vector" d="M121.823 42.3669H111.66V130.351C111.66 131.731 111.392 133.098 110.872 134.374C110.352 135.649 109.589 136.808 108.628 137.784C107.667 138.76 106.526 139.534 105.27 140.063C104.014 140.591 102.668 140.863 101.308 140.863H23.6108V140.963C23.6108 142.344 23.8785 143.711 24.3987 144.986C24.919 146.262 25.6814 147.42 26.6427 148.397C27.6039 149.373 28.7451 150.147 30.001 150.675C31.2569 151.203 32.603 151.475 33.9624 151.475H121.823C123.182 151.475 124.528 151.203 125.784 150.675C127.04 150.147 128.181 149.373 129.142 148.397C130.104 147.42 130.866 146.262 131.386 144.986C131.907 143.711 132.174 142.344 132.174 140.963V52.8788C132.174 50.0909 131.084 47.4172 129.142 45.4458C127.201 43.4744 124.568 42.3669 121.823 42.3669Z" fill="#F2F2F2"/>
<path id="Vector_2" d="M169.998 182.187C170.178 182.196 170.356 182.148 170.509 182.05C170.661 181.952 170.78 181.809 170.849 181.64C170.919 181.472 170.935 181.285 170.897 181.106C170.859 180.928 170.767 180.765 170.635 180.641L170.575 180.398C170.583 180.379 170.591 180.359 170.599 180.34C170.78 179.905 171.084 179.535 171.472 179.274C171.86 179.014 172.315 178.877 172.78 178.878C173.245 178.88 173.699 179.021 174.085 179.284C174.471 179.547 174.772 179.92 174.95 180.356C175.662 182.097 176.568 183.84 176.791 185.681C176.889 186.494 176.847 187.319 176.668 188.118C178.34 184.415 179.208 180.391 179.213 176.318C179.214 175.296 179.158 174.275 179.046 173.259C178.953 172.426 178.825 171.599 178.661 170.778C177.765 166.325 175.841 162.15 173.048 158.598C171.696 157.849 170.603 156.697 169.916 155.298C169.667 154.795 169.491 154.257 169.393 153.703C169.546 153.724 169.968 151.365 169.853 151.22C170.066 150.893 170.446 150.73 170.678 150.411C171.833 148.821 173.423 149.099 174.253 151.258C176.027 152.167 176.044 153.675 174.956 155.125C174.263 156.047 174.168 157.295 173.561 158.283C173.623 158.364 173.688 158.443 173.751 158.524C174.893 160.016 175.889 161.618 176.724 163.307C176.521 161.415 176.763 159.501 177.431 157.722C178.107 156.064 179.376 154.668 180.493 153.235C180.788 152.85 181.189 152.563 181.645 152.409C182.101 152.256 182.592 152.243 183.056 152.373C183.519 152.503 183.934 152.769 184.248 153.138C184.563 153.507 184.762 153.963 184.821 154.447C184.824 154.468 184.826 154.489 184.828 154.511C184.662 154.606 184.5 154.706 184.341 154.813C184.141 154.949 183.987 155.142 183.897 155.368C183.808 155.595 183.788 155.843 183.84 156.081C183.892 156.319 184.013 156.535 184.188 156.702C184.363 156.869 184.584 156.978 184.821 157.015L184.846 157.019C184.787 157.626 184.682 158.228 184.533 158.819C185.966 164.446 182.873 166.495 178.456 166.587C178.358 166.638 178.263 166.689 178.166 166.737C179.004 169.15 179.53 171.665 179.731 174.216C179.844 175.721 179.837 177.233 179.711 178.737L179.718 178.684C180.038 177.011 180.917 175.502 182.206 174.411C184.12 172.815 186.824 172.226 188.89 170.943C189.109 170.8 189.364 170.723 189.625 170.723C189.886 170.722 190.141 170.797 190.362 170.939C190.582 171.081 190.757 171.284 190.868 171.524C190.978 171.764 191.018 172.031 190.984 172.294L190.976 172.35C190.668 172.477 190.368 172.624 190.078 172.789C189.912 172.884 189.75 172.985 189.591 173.092C189.391 173.227 189.237 173.421 189.147 173.647C189.058 173.873 189.038 174.121 189.09 174.359C189.141 174.597 189.263 174.814 189.438 174.981C189.613 175.147 189.834 175.256 190.071 175.294L190.096 175.297C190.113 175.3 190.128 175.302 190.146 175.305C189.62 176.58 188.881 177.754 187.963 178.775C187.067 183.687 183.219 184.153 179.103 182.723H179.101C178.649 184.716 177.995 186.656 177.148 188.511H170.173C170.148 188.433 170.126 188.351 170.103 188.273C170.749 188.314 171.397 188.275 172.033 188.156C171.516 187.511 170.998 186.861 170.481 186.216C170.469 186.204 170.458 186.192 170.448 186.178C170.186 185.848 169.921 185.521 169.658 185.191L169.658 185.19C169.644 184.179 169.759 183.169 169.998 182.187Z" fill="#F2F2F2"/>
<path id="Vector_3" d="M93.1753 30.3986C93.4299 30.7904 93.7653 31.1214 94.1583 31.3686C94.5513 31.6158 94.9925 31.7734 95.4514 31.8304C95.9102 31.8874 96.3758 31.8426 96.8159 31.6989C97.256 31.5552 97.6601 31.3162 98.0003 30.9984L112.502 37.6421L115.297 34.0207L98.0172 26.2578C97.4477 25.7161 96.7023 25.4053 95.9223 25.3844C95.1423 25.3635 94.3819 25.6339 93.785 26.1443C93.1882 26.6547 92.7965 27.3697 92.6841 28.1538C92.5717 28.9379 92.7465 29.7366 93.1753 30.3986Z" fill="#A0616A"/>
<path id="Vector_4" d="M155.409 34.5415L156.847 42.8178C156.914 43.2039 156.901 43.6 156.808 43.9807C156.716 44.3613 156.546 44.7181 156.309 45.0281C156.073 45.3382 155.775 45.5946 155.436 45.7809C155.096 45.9672 154.722 46.0794 154.337 46.1101L129.898 48.0617L101.172 35.0061L104.603 28.3921L129.54 36.4113L155.409 34.5415Z" fill="#03A4FF"/>
<path id="Vector_5" d="M98.212 28.6101H10.3516C4.63458 28.6101 0 33.3164 0 39.122V127.207C0 133.012 4.63458 137.719 10.3516 137.719H98.212C103.929 137.719 108.564 133.012 108.564 127.207V39.122C108.564 33.3164 103.929 28.6101 98.212 28.6101Z" fill="#F2F2F2"/>
<path id="Vector_6" d="M10.3517 30.7717C9.27187 30.7717 8.20261 30.9877 7.20497 31.4073C6.20733 31.827 5.30086 32.442 4.53731 33.2174C3.77375 33.9928 3.16806 34.9133 2.75482 35.9264C2.34159 36.9395 2.12891 38.0253 2.12891 39.1219V127.207C2.12891 129.421 2.99523 131.545 4.53731 133.111C6.07938 134.677 8.17088 135.557 10.3517 135.557H66.4263C71.6803 135.557 76.8828 134.506 81.7369 132.464C86.5909 130.422 91.0014 127.43 94.7165 123.657C98.4316 119.884 101.379 115.406 103.389 110.476C105.4 105.547 106.435 100.264 106.435 94.9288V39.1219C106.435 38.0253 106.222 36.9395 105.809 35.9264C105.396 34.9133 104.79 33.9928 104.026 33.2174C103.263 32.442 102.356 31.827 101.359 31.4073C100.361 30.9877 99.2917 30.7717 98.2119 30.7717H10.3517Z" fill="white"/>
<path id="Vector_7" d="M78.8428 57.504H29.5287C29.0762 57.504 28.6422 57.3215 28.3222 56.9965C28.0023 56.6716 27.8225 56.2309 27.8225 55.7714C27.8225 55.3119 28.0023 54.8712 28.3222 54.5463C28.6422 54.2214 29.0762 54.0388 29.5287 54.0388H78.8428C79.2954 54.0388 79.7293 54.2214 80.0493 54.5463C80.3693 54.8712 80.549 55.3119 80.549 55.7714C80.549 56.2309 80.3693 56.6716 80.0493 56.9965C79.7293 57.3215 79.2954 57.504 78.8428 57.504Z" fill="#F2F2F2"/>
<path id="Vector_8" d="M78.8428 94.4513H29.5287C29.0762 94.4513 28.6422 94.2687 28.3222 93.9438C28.0023 93.6189 27.8225 93.1782 27.8225 92.7187C27.8225 92.2592 28.0023 91.8185 28.3222 91.4935C28.6422 91.1686 29.0762 90.9861 29.5287 90.9861H78.8428C79.2954 90.9861 79.7293 91.1686 80.0493 91.4935C80.3693 91.8185 80.549 92.2592 80.549 92.7187C80.549 93.1782 80.3693 93.6189 80.0493 93.9438C79.7293 94.2687 79.2954 94.4513 78.8428 94.4513Z" fill="#F2F2F2"/>
<path id="Vector_9" d="M98.8683 75.9896H9.50323C9.05073 75.9896 8.61676 75.8071 8.29678 75.4822C7.97681 75.1572 7.79706 74.7165 7.79706 74.257C7.79706 73.7975 7.97681 73.3568 8.29678 73.0319C8.61676 72.707 9.05073 72.5244 9.50323 72.5244H98.8683C99.3208 72.5244 99.7548 72.707 100.075 73.0319C100.395 73.3568 100.574 73.7975 100.574 74.257C100.574 74.7165 100.395 75.1572 100.075 75.4822C99.7548 75.8071 99.3208 75.9896 98.8683 75.9896Z" fill="#F2F2F2"/>
<path id="Vector_10" d="M152.321 71.0199L143.418 90.2797L177.665 86.7575L170.516 68.2686L152.321 71.0199Z" fill="#A0616A"/>
<path id="Vector_11" d="M160.283 181.717L157.036 181.69L155.599 168.675L160.39 168.716L160.283 181.717Z" fill="#A0616A"/>
<path id="Vector_12" d="M149.882 186.96C149.879 187.351 150.029 187.727 150.299 188.006C150.569 188.285 150.937 188.444 151.321 188.447L157.777 188.502L158.907 186.176L159.322 188.514L161.758 188.536L161.143 180.197L160.296 180.14L156.839 179.898L155.724 179.822L155.704 182.182L150.518 185.753C150.324 185.887 150.165 186.067 150.054 186.277C149.943 186.488 149.884 186.722 149.882 186.96Z" fill="#2F2E41"/>
<path id="Vector_13" d="M124.35 181.732L121.254 180.737L123.646 167.868L128.215 169.337L124.35 181.732Z" fill="#A0616A"/>
<path id="Vector_14" d="M112.891 183.641C112.776 184.014 112.81 184.418 112.987 184.765C113.165 185.112 113.47 185.373 113.837 185.492L119.992 187.47L121.745 185.584L121.465 187.943L123.787 188.691L125.612 180.536L124.819 180.228L121.585 178.966L120.541 178.561L119.839 180.81L113.849 182.677C113.624 182.747 113.42 182.871 113.253 183.039C113.086 183.207 112.962 183.414 112.891 183.641Z" fill="#2F2E41"/>
<path id="Vector_15" d="M176.105 81.3413L144.967 87.1352C144.967 87.1352 139.972 90.929 141.308 92.2877C142.644 93.6463 142.852 93.4359 141.974 94.3272C141.096 95.2186 139.198 96.4101 139.18 97.19C139.161 97.9699 125.227 132.952 125.227 132.952C125.227 132.952 126.775 132.166 125.614 133.345C124.453 134.524 124.453 135.498 124.453 135.498L119.034 172.65L127.834 173.177L136.451 139.306L155.673 107.663C155.673 107.663 157.58 135.88 157.66 137.757C157.74 139.634 158.901 137.275 157.74 139.634C156.579 141.992 155.805 140.42 156.579 141.992C157.353 143.564 153.79 175.573 153.79 175.573H161.823L179.051 109.228C179.051 109.228 185.18 90.2613 176.105 81.3413Z" fill="#2F2E41"/>
<path id="Vector_16" d="M166.932 28.2743L154.459 26.9583L151.227 31.2187L147.463 33.2548C145.87 34.1165 144.555 35.4259 143.675 37.0264C142.795 38.627 142.388 40.451 142.503 42.2803L146.902 68.2687C146.902 68.2687 143.186 76.7663 145.741 78.8812C148.296 80.9962 143.766 86.2342 149.225 83.5979C154.683 80.9616 178.254 83.9909 178.254 83.9909L173.222 69.4479L176.981 55.1574L177.395 43.1749C177.472 40.9358 176.818 38.7337 175.534 36.9117C174.25 35.0897 172.408 33.7503 170.296 33.1022L169.771 32.9409L166.932 28.2743Z" fill="#03A4FF"/>
<path id="Vector_17" d="M184.104 18.5641C184.185 22.1343 182.872 25.5912 180.984 28.6275C180.423 26.855 179.415 25.2417 178.364 23.7038C178.894 27.0307 178.329 30.4423 176.757 33.4105C176.702 33.4507 176.644 33.4881 176.585 33.5225C175.047 34.4623 173.096 34.8429 171.432 34.1642C174.871 30.4 175.308 24.1633 172.425 19.9412C171.609 18.7432 170.553 17.6836 170.048 16.3202C169.25 14.1448 170.017 11.7497 170.501 9.48162C170.954 7.37075 171.033 4.8588 169.638 3.31179C169.787 3.0956 169.99 2.92351 170.226 2.81316C170.462 2.70281 170.723 2.65817 170.981 2.6838C171.841 2.80713 172.467 3.56607 172.866 4.34773C173.264 5.12936 173.527 5.99568 174.083 6.67082C175.112 7.93449 176.864 8.23325 178.34 8.89924C181.915 10.5165 184.018 14.5916 184.104 18.5641Z" fill="#2F2E41"/>
<path id="Vector_18" d="M91.9856 188.532C91.9854 188.594 91.9972 188.655 92.0203 188.711C92.0434 188.768 92.0773 188.82 92.1201 188.863C92.1629 188.907 92.2138 188.941 92.2697 188.965C92.3257 188.988 92.3857 189 92.4462 189H190.485C190.607 189 190.724 188.951 190.811 188.863C190.897 188.775 190.946 188.656 190.946 188.532C190.946 188.408 190.897 188.289 190.811 188.201C190.724 188.114 190.607 188.064 190.485 188.064H92.4462C92.3857 188.064 92.3257 188.076 92.2697 188.1C92.2138 188.123 92.1629 188.158 92.1201 188.201C92.0773 188.245 92.0434 188.296 92.0203 188.353C91.9972 188.41 91.9854 188.471 91.9856 188.532Z" fill="#CCCCCC"/>
<path id="Vector_19" d="M184.876 101.309C186.8 101.309 188.359 99.7253 188.359 97.7716C188.359 95.8179 186.8 94.2341 184.876 94.2341C182.952 94.2341 181.392 95.8179 181.392 97.7716C181.392 99.7253 182.952 101.309 184.876 101.309Z" fill="#03A4FF"/>
<path id="Vector_20" d="M154.007 16.5228C154.211 15.7966 152.803 20.2357 153.482 20.3159C156.577 20.6764 160.826 22.5536 162.982 23.4293C163.079 23.4179 163.176 23.4064 163.27 23.3921C163.502 23.3664 163.727 23.3292 163.95 23.2862C168.97 22.3218 170.9 14.4916 170.9 14.42C170.9 14.068 170.068 4.39988 168.757 4.2568C168.413 4.21887 168.067 4.19977 167.721 4.19956H164.469C163.796 4.0523 163.114 3.9519 162.427 3.89907H162.421C155.874 3.39251 150.712 7.44492 151.194 12.3759C151.197 12.3817 151.203 12.3874 151.206 12.3931C151.346 12.6049 151.468 12.8052 151.577 12.997C151.683 13.1773 151.771 13.349 151.848 13.5121C152.445 14.7713 150.911 16.3558 151.928 16.6516C153.281 17.0449 148.37 29.9736 153.725 29.9736C151.12 30.7256 153.443 18.5261 154.007 16.5228Z" fill="#2F2E41"/>
<path id="Vector_21" d="M159.851 24.1088C164.104 24.1088 167.551 20.6079 167.551 16.2895C167.551 11.971 164.104 8.47021 159.851 8.47021C155.599 8.47021 152.151 11.971 152.151 16.2895C152.151 20.6079 155.599 24.1088 159.851 24.1088Z" fill="#A0616A"/>
<path id="Vector_22" d="M151.194 12.8023C151.323 12.871 151.448 12.934 151.577 12.9969C151.711 13.0628 151.845 13.1286 151.98 13.1887C154.558 14.3764 156.657 14.508 157.93 12.8023C157.964 11.9048 158.163 11.0217 158.515 10.198C158.453 11.1185 158.692 12.034 159.195 12.8023H161.759C164.4 14.5824 165.756 14.7684 163.923 20.6124C163.412 22.2408 161.38 31.7165 162.179 33.1217C162.411 33.0959 164.871 22.7171 165.094 22.6742C170.114 21.7097 173.303 13.3117 172.895 12.8367C172.897 11.4857 172.591 10.1526 172.001 8.94166C171.255 7.40749 170.092 6.12241 168.649 5.2384C167.789 4.81496 166.892 4.47294 165.971 4.2167C165.948 4.21097 165.928 4.20524 165.905 4.19953C165.622 4.12225 165.334 4.05071 165.045 3.99061C164.45 3.86286 163.847 3.77017 163.241 3.71301C163.198 3.71014 163.155 3.70728 163.115 3.70728C162.873 3.70785 162.636 3.77405 162.427 3.89904C162.424 3.89904 162.424 3.90188 162.421 3.90188C162.272 3.99029 162.142 4.10802 162.039 4.24816C161.856 4.48398 161.758 4.77542 161.759 5.07525H158.904C158.798 5.07525 158.692 5.07811 158.587 5.08383C156.681 5.14996 154.868 5.93586 153.503 7.28774C152.138 8.63962 151.319 10.4602 151.206 12.3931C151.197 12.5305 151.194 12.665 151.194 12.8023Z" fill="#2F2E41"/>
<path id="Vector_23" d="M168.03 10.3028C170.832 10.3028 173.103 7.99641 173.103 5.15138C173.103 2.30635 170.832 0 168.03 0C165.228 0 162.957 2.30635 162.957 5.15138C162.957 7.99641 165.228 10.3028 168.03 10.3028Z" fill="#2F2E41"/>
<path id="Vector_24" d="M184.915 99.2304C185.162 98.8339 185.322 98.3876 185.383 97.9223C185.444 97.4569 185.405 96.9837 185.268 96.5353C185.131 96.0869 184.9 95.674 184.591 95.3252C184.281 94.9764 183.901 94.7 183.476 94.5152L183.501 78.3601L179.103 77.2544L179.211 96.4423C178.958 97.1918 178.984 98.0095 179.285 98.7406C179.586 99.4717 180.14 100.065 180.843 100.409C181.546 100.753 182.349 100.823 183.1 100.605C183.85 100.388 184.496 99.8988 184.915 99.2304Z" fill="#A0616A"/>
<path id="Vector_25" d="M163.132 39.8862L169.977 35.1623C170.297 34.9419 170.658 34.7918 171.038 34.7215C171.418 34.6513 171.808 34.6625 172.183 34.7544C172.558 34.8463 172.911 35.0168 173.217 35.2552C173.524 35.4935 173.778 35.7943 173.963 36.1382L185.731 57.9758L185.776 89.9353L178.429 89.4677L175.413 63.0821L163.132 39.8862Z" fill="#03A4FF"/>
<path id="Vector_26" d="M110.563 112.366H37.4078C35.8167 112.366 34.2907 113.008 33.1656 114.15C32.0405 115.293 31.4084 116.842 31.4084 118.458C31.4084 120.074 32.0405 121.623 33.1656 122.766C34.2907 123.909 35.8167 124.55 37.4078 124.55H110.563C112.154 124.55 113.68 123.909 114.805 122.766C115.93 121.623 116.562 120.074 116.562 118.458C116.562 116.842 115.93 115.293 114.805 114.15C113.68 113.008 112.154 112.366 110.563 112.366Z" fill="white"/>
<path id="Vector_27" d="M110.563 124.943H37.4078C35.714 124.943 34.0896 124.26 32.8919 123.044C31.6942 121.828 31.0213 120.178 31.0213 118.458C31.0213 116.738 31.6942 115.088 32.8919 113.872C34.0896 112.656 35.714 111.973 37.4078 111.973H110.563C112.256 111.973 113.881 112.656 115.078 113.872C116.276 115.088 116.949 116.738 116.949 118.458C116.949 120.178 116.276 121.828 115.078 123.044C113.881 124.26 112.256 124.943 110.563 124.943ZM37.4078 112.759C35.9193 112.759 34.4918 113.359 33.4393 114.428C32.3867 115.497 31.7954 116.947 31.7954 118.458C31.7954 119.97 32.3867 121.419 33.4393 122.488C34.4918 123.557 35.9193 124.157 37.4078 124.157H110.563C112.051 124.157 113.479 123.557 114.531 122.488C115.584 121.419 116.175 119.97 116.175 118.458C116.175 116.947 115.584 115.497 114.531 114.428C113.479 113.359 112.051 112.759 110.563 112.759H37.4078Z" fill="#03A4FF"/>
<path id="Vector_28" d="M114.876 138.953H82.5927C82.1402 138.953 81.7062 138.77 81.3863 138.446C81.0663 138.121 80.8865 137.68 80.8865 137.22C80.8865 136.761 81.0663 136.32 81.3863 135.995C81.7062 135.67 82.1402 135.488 82.5927 135.488H114.876C115.329 135.488 115.763 135.67 116.083 135.995C116.403 136.32 116.582 136.761 116.582 137.22C116.582 137.68 116.403 138.121 116.083 138.446C115.763 138.77 115.329 138.953 114.876 138.953Z" fill="#03A4FF"/>
</g>
<defs>
<clipPath id="clip0_1_1989">
<rect width="191" height="189" fill="white"/>
</clipPath>
</defs>
</svg>
