<svg width="185" height="198" viewBox="0 0 185 198" fill="none" xmlns="http://www.w3.org/2000/svg">
<g id="14 1" clip-path="url(#clip0_1_1448)">
<path id="Vector" d="M71.6522 162.511C67.9711 159.101 62.6367 157.146 57.0167 157.146L56.7999 157.147C53.0982 157.148 49.4625 156.266 46.2647 154.591L45.9319 154.417L46.1999 154.169C47.6509 152.821 48.8625 151.281 49.7922 149.602C49.1319 150.155 48.3443 150.57 47.4853 150.82C46.6263 151.069 45.7167 151.145 44.8211 151.044C43.8755 150.943 42.9677 150.65 42.1658 150.189C41.3639 149.728 40.6887 149.11 40.1909 148.38C38.2267 145.518 35.8853 141.457 35.8853 138.363C35.8883 135.748 36.498 133.162 37.6755 130.77C38.853 128.378 40.5724 126.233 42.7241 124.471C44.0864 123.368 45.1745 122.02 45.9175 120.513C46.6605 119.007 47.0417 117.377 47.0363 115.73L47.0352 115.496C47.0348 113.327 47.3299 111.166 47.9139 109.062L47.9732 108.849L48.2167 108.857C49.7866 108.905 51.3574 108.787 52.8965 108.505C51.4528 108.346 50.0404 108.008 48.6995 107.502L48.4376 107.407L48.5265 107.166C54.6535 103.759 68.484 105.523 76.5117 89.0284C83.021 75.6532 105.988 100.902 105.988 115.496C105.988 116.985 104.347 118.953 105.576 119.937C118.855 130.577 109.692 137.409 106.804 144.284C106.118 145.915 107.604 147.706 107.604 149.471C107.604 149.77 107.596 150.079 107.579 150.389L107.553 150.866L107.111 150.602C106.235 150.086 105.423 149.488 104.689 148.818C105.45 150.391 105.809 152.099 105.739 153.814C105.669 155.529 105.171 157.208 104.283 158.727C102.892 161.086 101.545 162.775 100.282 163.746C96.2338 166.857 91.0155 168.462 85.6939 168.232C80.3723 168.003 75.3493 165.956 71.6522 162.511Z" fill="#E6E6E6"/>
<path id="Vector_2" d="M93.885 198C93.9755 198 94.0629 197.971 94.1312 197.917C94.1995 197.864 94.2441 197.79 94.2569 197.71C94.2729 197.609 95.8381 187.471 94.4323 173.997C93.1341 161.553 88.965 143.63 76.476 128.91C76.4461 128.874 76.4087 128.845 76.366 128.822C76.3233 128.8 76.2761 128.785 76.2271 128.779C76.1781 128.774 76.1283 128.776 76.0805 128.788C76.0327 128.799 75.9879 128.819 75.9486 128.846C75.9092 128.872 75.8762 128.906 75.8514 128.944C75.8265 128.983 75.8104 129.025 75.8038 129.069C75.7972 129.113 75.8003 129.158 75.813 129.201C75.8257 129.244 75.8476 129.284 75.8776 129.319C88.2588 143.912 92.3943 161.704 93.6833 174.06C95.0809 187.455 93.528 197.515 93.5121 197.615C93.5046 197.663 93.5086 197.711 93.5238 197.758C93.5391 197.804 93.5653 197.847 93.6007 197.884C93.636 197.92 93.6797 197.949 93.7288 197.97C93.7778 197.99 93.8311 198 93.885 198Z" fill="#3F3D56"/>
<path id="Vector_3" d="M83.6931 149.673C83.7726 149.673 83.85 149.651 83.9143 149.609C83.9786 149.567 84.0265 149.508 84.0511 149.44C84.0756 149.372 84.0757 149.299 84.0512 149.231C84.0266 149.163 83.9788 149.104 83.9145 149.062C80.3559 146.899 76.5116 145.141 72.47 143.83C66.1559 141.754 56.5543 139.872 46.6696 142.697C46.6224 142.71 46.5787 142.732 46.5408 142.761C46.5029 142.789 46.4717 142.824 46.449 142.864C46.4262 142.903 46.4123 142.946 46.4081 142.99C46.4039 143.035 46.4094 143.079 46.4244 143.122C46.4394 143.164 46.4636 143.203 46.4955 143.237C46.5274 143.271 46.5665 143.299 46.6105 143.319C46.6544 143.34 46.7024 143.352 46.7517 143.356C46.801 143.359 46.8506 143.354 46.8977 143.341C56.5799 140.573 66.0074 142.424 72.2114 144.464C76.188 145.753 79.9706 147.481 83.4723 149.609C83.5364 149.651 83.6138 149.673 83.6931 149.673Z" fill="#3F3D56"/>
<path id="Vector_4" d="M100.908 111.167C100.914 111.096 100.894 111.025 100.852 110.964C100.81 110.904 100.748 110.856 100.675 110.829C100.601 110.803 100.52 110.797 100.443 110.814C100.366 110.831 100.296 110.87 100.245 110.925C97.5864 113.956 95.3577 117.273 93.6103 120.799C90.85 126.306 88.0683 134.771 90.4942 143.829C90.5057 143.872 90.5266 143.912 90.5556 143.948C90.5846 143.984 90.6213 144.015 90.6634 144.038C90.7055 144.061 90.7524 144.077 90.8012 144.084C90.85 144.091 90.8999 144.089 90.9479 144.078C90.996 144.068 91.0413 144.049 91.0813 144.023C91.1212 143.997 91.1551 143.964 91.1809 143.926C91.2067 143.888 91.2239 143.846 91.2315 143.802C91.2392 143.759 91.2372 143.714 91.2255 143.671C88.8495 134.798 91.5841 126.487 94.2963 121.077C96.0141 117.607 98.2056 114.343 100.82 111.36C100.872 111.306 100.902 111.238 100.908 111.167Z" fill="#3F3D56"/>
<path id="Vector_5" d="M173.458 197.642H143.515L143.387 197.433C143.004 196.809 142.634 196.148 142.289 195.469C139.204 189.539 137.901 182.757 136.751 176.773L135.884 172.263C135.78 171.716 135.859 171.155 136.111 170.649C136.364 170.143 136.779 169.717 137.303 169.424C137.828 169.132 138.437 168.986 139.054 169.006C139.671 169.027 140.267 169.212 140.766 169.538C145.316 172.512 149.868 175.483 154.422 178.451C156.147 179.578 158.116 180.882 160.002 182.291C160.184 181.497 160.374 180.701 160.565 179.916C160.696 179.374 161.004 178.88 161.45 178.496C161.896 178.112 162.459 177.857 163.068 177.762C163.677 177.668 164.303 177.739 164.866 177.966C165.43 178.193 165.905 178.565 166.231 179.036L169.735 184.091C172.29 187.783 174.545 191.42 174.086 195.344C174.088 195.391 174.084 195.439 174.074 195.486C173.982 196.13 173.811 196.764 173.565 197.375L173.458 197.642Z" fill="#F0F0F0"/>
<path id="Vector_6" d="M159.508 91.9234L153.729 72.7145C153.482 71.9013 152.888 71.2082 152.076 70.7846C151.265 70.361 150.3 70.2409 149.391 70.4504C148.921 70.5587 148.48 70.7519 148.095 71.0183C147.711 71.2846 147.391 71.6185 147.155 71.9996C146.919 72.3806 146.771 72.8009 146.722 73.2347C146.673 73.6686 146.722 74.1069 146.867 74.523L153.551 94.3111L157.048 106.489C156.539 106.838 156.162 107.32 155.968 107.868C155.774 108.417 155.773 109.005 155.964 109.555C156.156 110.104 156.531 110.587 157.039 110.938C157.547 111.288 158.163 111.49 158.803 111.516C159.443 111.542 160.076 111.39 160.617 111.081C161.158 110.772 161.579 110.321 161.825 109.789C162.07 109.258 162.127 108.671 161.989 108.109C161.85 107.548 161.522 107.038 161.049 106.649L159.508 91.9234Z" fill="#A0616A"/>
<path id="Vector_7" d="M110.881 87.7864L128.439 75.651C129.181 75.1348 129.668 74.3774 129.794 73.542C129.919 72.7066 129.674 71.8602 129.112 71.1856C128.82 70.8366 128.453 70.5446 128.032 70.3272C127.611 70.1099 127.145 69.9718 126.663 69.9214C126.181 69.871 125.692 69.9094 125.227 70.0342C124.761 70.159 124.329 70.3675 123.957 70.6472L106.149 83.755L94.9539 91.3102C94.4 91.021 93.7603 90.8919 93.1218 90.9405C92.4832 90.9891 91.8769 91.2131 91.385 91.582C90.8932 91.9509 90.5398 92.4468 90.3727 93.0024C90.2056 93.558 90.233 94.1463 90.4512 94.6874C90.6694 95.2285 91.0678 95.6962 91.5923 96.0269C92.1167 96.3576 92.7418 96.5352 93.3826 96.5357C94.0234 96.5363 94.6489 96.3596 95.174 96.0298C95.6991 95.6999 96.0984 95.2329 96.3177 94.6922L110.881 87.7864Z" fill="#A0616A"/>
<path id="Vector_8" d="M125.192 90.576L124.418 106.099L148.719 101.356C146.65 95.1185 145.244 94.0546 146.798 89.7136L125.192 90.576Z" fill="#A0616A"/>
<path id="Vector_9" d="M140.134 62.1174H132.037L128.559 67.4613L126.903 67.3792C126.092 67.339 125.281 67.4476 124.519 67.6985C123.757 67.9493 123.06 68.3371 122.47 68.8381C121.881 69.3391 121.411 69.9428 121.091 70.6124C120.77 71.2819 120.604 72.0031 120.604 72.732L122.646 75.5737C122.646 75.5737 118.995 81.2882 124.254 84.0995C124.254 84.0995 123.316 89.3963 124.254 89.3394C125.192 89.2824 127.352 88.2044 125.192 89.2824C123.031 90.3604 123.192 90.5052 123.472 90.7562L123.751 91.0072L146.47 94.4332C146.47 94.4332 147.135 90.4779 147.206 89.7723C147.278 89.0668 146.798 90.7916 147.278 89.0668C147.758 87.342 148.478 87.9888 147.758 87.342C147.038 86.6952 152.425 78.682 150.212 75.5737L153.76 72.4654C153.76 69.4839 148.428 67.0669 145.108 67.0669H144.683L140.134 62.1174Z" fill="#E6E6E6"/>
<path id="Vector_10" d="M120.625 191.658H117.347L115.788 180.305L120.625 180.305L120.625 191.658Z" fill="#A0616A"/>
<path id="Vector_11" d="M110.733 196.001C110.735 196.33 110.881 196.646 111.14 196.879C111.4 197.113 111.751 197.245 112.118 197.247H118.288L118.479 196.891L119.351 195.274L119.689 196.891L119.764 197.247H122.091L122.058 196.889L121.437 190.206L120.626 190.161L117.118 189.975L116.257 189.927V191.923C115.603 192.547 110.473 194.908 110.733 196.001Z" fill="#2F2E41"/>
<path id="Vector_12" d="M169.331 183.948L166.575 185.541L158.424 176.751L162.492 174.401L169.331 183.948Z" fill="#A0616A"/>
<path id="Vector_13" d="M163.628 192.407C163.828 192.683 164.141 192.878 164.5 192.948C164.859 193.019 165.234 192.959 165.544 192.782L170.732 189.785L170.679 189.393L170.438 187.608L171.697 188.804L171.974 189.067L173.931 187.936L173.687 187.651L169.14 182.333L168.43 182.689L165.368 184.237L164.615 184.616L165.817 186.294C165.644 187.136 162.751 191.615 163.628 192.407Z" fill="#2F2E41"/>
<path id="Vector_14" d="M184.619 197.85L83.1389 197.939C83.0376 197.938 82.9407 197.902 82.8692 197.837C82.7978 197.773 82.7577 197.685 82.7577 197.594C82.7577 197.504 82.7978 197.416 82.8692 197.352C82.9407 197.287 83.0376 197.251 83.1389 197.25L184.619 197.162C184.72 197.162 184.817 197.198 184.888 197.263C184.96 197.327 185 197.415 185 197.506C185 197.597 184.96 197.684 184.888 197.748C184.817 197.813 184.72 197.849 184.619 197.85Z" fill="#CACACA"/>
<path id="Vector_15" d="M148.338 99.6025C148.338 99.6025 132.804 106.982 124.588 101.947C124.588 101.947 122.791 109.765 122.071 110.411C121.351 111.058 120.203 111.34 121.017 112.062C121.831 112.783 122.284 113.757 120.737 114.995C119.19 116.233 117.648 115.84 119.139 117.114C120.631 118.389 114.629 149.651 114.629 149.651C114.629 149.651 115.589 178.724 114.629 179.603C113.669 180.482 112.385 180.679 113.627 181.766C114.869 182.854 114.869 182.01 114.869 183.51V185.01L115.437 186.5H123.232C123.232 186.5 125.113 184.538 123.232 182.833C121.351 181.129 123.804 180.663 124.378 179.063C124.952 177.464 125.912 179.189 124.952 177.464C123.992 175.739 123.53 176.067 123.521 174.933C123.511 173.798 137.675 129.384 137.675 129.384L139.391 153.967L160.026 180.889L166.1 176.798C166.1 176.798 161.678 171.207 162.712 170.439C163.746 169.67 159.664 168.706 160.951 167.839C162.238 166.972 159.14 166.098 160.307 164.949C161.475 163.8 158.699 160.903 157.09 160.903C155.481 160.903 153.223 156.074 153.223 156.074L156.593 117.929L148.338 99.6025Z" fill="#2F2E41"/>
<path id="Vector_16" d="M131.874 46.4264C131.764 46.556 130.888 46.4862 129.835 46.3481C127.753 46.075 127.469 46.3995 125.912 47.6712C123.657 49.5134 124.939 60.7492 123.831 63.1838L123.473 63.4207C124.183 63.2989 124.88 63.1236 125.558 62.8967C125.94 61.8125 126.324 60.7248 126.71 59.6416C127.075 60.4844 127.304 61.3696 127.391 62.2705C127.927 62.0807 128.46 61.6166 130.7 60.9941C131.828 60.307 139.987 59.616 141.036 59.3137C143.698 51.1788 139.408 47.889 131.874 46.4264Z" fill="#2F2E41"/>
<path id="Vector_17" d="M134.629 58.9706C138.935 58.9706 142.426 55.8354 142.426 51.9678C142.426 48.1003 138.935 44.965 134.629 44.965C130.322 44.965 126.831 48.1003 126.831 51.9678C126.831 55.8354 130.322 58.9706 134.629 58.9706Z" fill="#A0616A"/>
<path id="Vector_18" d="M139.538 45.8092C139.098 45.751 138.675 45.6178 138.292 45.4168C138.102 45.3137 137.947 45.1645 137.847 44.9865C137.747 44.8084 137.704 44.6086 137.724 44.4098C137.82 43.9122 138.447 43.6152 139.008 43.6454C139.567 43.7178 140.098 43.9107 140.555 44.2078C140.505 43.7269 140.276 43.2752 139.906 42.9252C139.535 42.5751 139.045 42.347 138.512 42.2776C139.251 42.2419 140.018 42.2104 140.701 42.4654C141.383 42.7203 141.952 43.3517 141.829 44.0064C142.977 43.8736 144.108 44.5918 144.582 45.5399C145.056 46.4879 144.962 47.6013 144.584 48.5833C144.546 48.7337 144.473 48.8751 144.37 48.998C144.266 49.1209 144.135 49.2223 143.984 49.2955C143.597 49.4271 143.182 49.2064 142.847 48.9888C141.099 47.8521 139.508 46.5323 138.107 45.0575" fill="#2F2E41"/>
<path id="Vector_19" d="M142.938 59.4129C142.607 59.5527 142.779 60.0727 142.522 60.3055C142.411 60.4041 142.276 60.4792 142.129 60.5254C142.09 60.0914 141.977 59.6653 141.795 59.262C141.761 59.1887 141.706 59.1068 141.62 59.1132C141.519 59.124 141.492 59.2426 141.49 59.331C141.47 59.7695 141.362 60.2012 141.171 60.6052C141.168 60.6095 141.166 60.616 141.164 60.6203C141.089 60.6181 141.012 60.616 140.94 60.6138C140.383 60.5944 139.149 59.3095 138.876 59.745C139.841 58.2077 141.017 55.8965 141.197 54.1393C141.26 53.7714 141.229 53.3957 141.108 53.0397C141.045 52.8626 140.927 52.7056 140.767 52.5871C140.608 52.4686 140.414 52.3937 140.208 52.3714C140.107 52.3672 140.006 52.3832 139.912 52.4183C139.818 52.4533 139.734 52.5066 139.666 52.5741C139.598 52.6417 139.547 52.722 139.518 52.8092C139.488 52.8964 139.48 52.9883 139.495 53.0786L139.356 53.0613C138.064 52.117 139.178 50.4762 137.675 49.8273C137.166 49.6073 134.05 50.3426 133.501 50.2132C133.489 49.6931 133.371 49.1793 133.153 48.6975C133.119 48.6242 133.064 48.5423 132.977 48.5487C132.876 48.5595 132.85 48.6781 132.848 48.7665C132.827 49.205 132.719 49.6367 132.528 50.0407C131.767 49.9437 130.991 49.9803 130.245 50.1485C129.588 50.3037 128.963 50.5711 128.303 50.7134C127.977 50.8032 127.634 50.8323 127.294 50.799C126.955 50.7656 126.627 50.6704 126.33 50.5193C125.492 50.0148 125.346 48.898 125.763 48.0744C126.066 47.5459 126.474 47.0723 126.968 46.6773C127.345 46.3496 127.737 46.0348 128.128 45.72C128.478 45.4376 128.829 45.1552 129.179 44.8727C129.621 44.4998 130.091 44.1554 130.586 43.8421C131.377 43.3765 132.266 43.0609 133.198 42.9148C134.129 42.7687 135.085 42.7952 136.005 42.9927C137.109 43.2298 138.585 42.8956 139.596 43.3592C140.124 43.6028 141.293 44.5364 141.757 44.8684C142.942 45.7157 142.14 45.0253 143.437 45.5152C146.53 46.6834 145.162 58.4724 142.938 59.4129Z" fill="#2F2E41"/>
<path id="Vector_20" d="M56.6023 110.526C83.3089 110.526 104.959 91.0819 104.959 67.0969C104.959 43.112 83.3089 23.6683 56.6023 23.6683C29.8956 23.6683 8.24561 43.112 8.24561 67.0969C8.24561 91.0819 29.8956 110.526 56.6023 110.526Z" fill="white"/>
<path id="Vector_21" d="M56.6024 110.959C29.6723 110.959 7.76306 91.2825 7.76306 67.0969C7.76306 42.9113 29.6724 23.2348 56.6024 23.2348C83.5325 23.2348 105.442 42.9113 105.442 67.0969C105.442 91.2825 83.5325 110.959 56.6024 110.959ZM56.6024 24.1018C30.2047 24.1018 8.72844 43.3894 8.72844 67.0969C8.72844 90.8044 30.2047 110.092 56.6024 110.092C83.0001 110.092 104.476 90.8044 104.476 67.0969C104.476 43.3894 83.0001 24.1018 56.6024 24.1018Z" fill="#03A4FF"/>
<path id="Vector_22" d="M50.0055 89.6995C49.1704 89.6995 48.3468 89.5248 47.6 89.1894C46.8531 88.8539 46.2036 88.3668 45.7027 87.7668L32.5102 71.9692C32.0864 71.4617 31.7781 70.8842 31.6028 70.2696C31.4275 69.6551 31.3887 69.0156 31.4887 68.3876C31.5886 67.7596 31.8252 67.1554 32.1852 66.6095C32.5451 66.0637 33.0212 65.5868 33.5863 65.2062C34.1514 64.8256 34.7944 64.5487 35.4787 64.3913C36.163 64.2338 36.8751 64.199 37.5743 64.2887C38.2736 64.3785 38.9463 64.591 39.5541 64.9143C40.1619 65.2375 40.6929 65.6651 41.1167 66.1726L49.7476 76.5069L71.9151 46.6448C72.7069 45.5796 73.9372 44.8404 75.3356 44.5896C76.7341 44.3388 78.1862 44.597 79.3727 45.3074C80.5593 46.0178 81.3832 47.1223 81.6633 48.3781C81.9434 49.6339 81.6568 50.9381 80.8665 52.0042L54.4816 87.5482C54.0043 88.191 53.3623 88.7217 52.6096 89.0957C51.8568 89.4698 51.0151 89.6763 50.1552 89.6979C50.1053 89.6987 50.0554 89.6995 50.0055 89.6995Z" fill="#03A4FF"/>
<path id="Vector_23" d="M106.424 26.3818C106.558 25.5515 105.59 24.7376 104.261 24.564C102.932 24.3903 101.746 24.9226 101.611 25.7529C101.477 26.5832 102.445 27.3971 103.774 27.5707C105.103 27.7444 106.289 27.2121 106.424 26.3818Z" fill="#E6E6E6"/>
<path id="Vector_24" d="M122.247 24.9952C122.381 24.1649 121.413 23.351 120.084 23.1774C118.755 23.0037 117.568 23.536 117.434 24.3663C117.299 25.1966 118.268 26.0105 119.597 26.1841C120.926 26.3578 122.112 25.8255 122.247 24.9952Z" fill="#3F3D56"/>
<path id="Vector_25" d="M102.091 14.8772C102.225 14.047 101.257 13.2331 99.9281 13.0594C98.5991 12.8858 97.4127 13.4181 97.2782 14.2484C97.1437 15.0787 98.112 15.8925 99.441 16.0662C100.77 16.2399 101.956 15.7075 102.091 14.8772Z" fill="#03A4FF"/>
<path id="Vector_26" d="M95.2155 10.1648C95.222 9.40257 94.7485 8.78139 94.1581 8.77738C93.5677 8.77337 93.0838 9.38805 93.0774 10.1503C93.071 10.9125 93.5444 11.5337 94.1349 11.5377C94.7253 11.5417 95.2091 10.9271 95.2155 10.1648Z" fill="#E6E6E6"/>
<path id="Vector_27" d="M92.8839 1.38747C92.8903 0.625222 92.4169 0.00404831 91.8264 3.86286e-05C91.236 -0.00397105 90.7522 0.610702 90.7458 1.37295C90.7393 2.13519 91.2128 2.75636 91.8032 2.76037C92.3936 2.76438 92.8775 2.14971 92.8839 1.38747Z" fill="#3F3D56"/>
<path id="Vector_28" d="M111.015 16.835C111.022 16.0727 110.548 15.4516 109.958 15.4475C109.367 15.4435 108.884 16.0582 108.877 16.8205C108.871 17.5827 109.344 18.2039 109.935 18.2079C110.525 18.2119 111.009 17.5972 111.015 16.835Z" fill="#E6E6E6"/>
<path id="Vector_29" d="M103.369 20.2637C103.375 19.5015 102.902 18.8803 102.312 18.8763C101.721 18.8723 101.237 19.4869 101.231 20.2492C101.224 21.0114 101.698 21.6326 102.288 21.6366C102.879 21.6406 103.363 21.0259 103.369 20.2637Z" fill="#03A4FF"/>
<path id="Vector_30" d="M114.013 26.6008C114.019 25.8386 113.546 25.2174 112.956 25.2134C112.365 25.2094 111.881 25.824 111.875 26.5863C111.868 27.3485 112.342 27.9697 112.932 27.9737C113.523 27.9777 114.007 27.363 114.013 26.6008Z" fill="#3F3D56"/>
<path id="Vector_31" d="M15.6782 129.265C15.8127 128.435 14.8444 127.621 13.5154 127.448C12.1864 127.274 11 127.806 10.8655 128.637C10.731 129.467 11.6993 130.281 13.0283 130.454C14.3573 130.628 15.5437 130.096 15.6782 129.265Z" fill="#E6E6E6"/>
<path id="Vector_32" d="M31.5012 127.879C31.6357 127.048 30.6674 126.235 29.3384 126.061C28.0094 125.887 26.823 126.42 26.6885 127.25C26.554 128.08 27.5223 128.894 28.8513 129.068C30.1803 129.241 31.3667 128.709 31.5012 127.879Z" fill="#3F3D56"/>
<path id="Vector_33" d="M11.3453 117.761C11.4798 116.931 10.5115 116.117 9.18253 115.943C7.85354 115.769 6.66713 116.302 6.53262 117.132C6.39811 117.962 7.36642 118.776 8.69541 118.95C10.0244 119.123 11.2108 118.591 11.3453 117.761Z" fill="#03A4FF"/>
<path id="Vector_34" d="M4.46982 113.048C4.47624 112.286 4.00281 111.665 3.41238 111.661C2.82195 111.657 2.33811 112.272 2.33169 113.034C2.32527 113.796 2.79871 114.417 3.38914 114.421C3.97957 114.425 4.4634 113.811 4.46982 113.048Z" fill="#E6E6E6"/>
<path id="Vector_35" d="M2.13815 104.271C2.14457 103.509 1.67113 102.888 1.08071 102.884C0.490279 102.88 0.00644211 103.494 2.41286e-05 104.257C-0.00639386 105.019 0.467038 105.64 1.05747 105.644C1.64789 105.648 2.13173 105.033 2.13815 104.271Z" fill="#3F3D56"/>
<path id="Vector_36" d="M20.2697 119.719C20.2762 118.956 19.8027 118.335 19.2123 118.331C18.6219 118.327 18.138 118.942 18.1316 119.704C18.1252 120.466 18.5986 121.088 19.189 121.092C19.7795 121.096 20.2633 120.481 20.2697 119.719Z" fill="#E6E6E6"/>
<path id="Vector_37" d="M12.6233 123.147C12.6297 122.385 12.1563 121.764 11.5658 121.76C10.9754 121.756 10.4915 122.371 10.4851 123.133C10.4787 123.895 10.9522 124.516 11.5426 124.52C12.133 124.524 12.6169 123.91 12.6233 123.147Z" fill="#03A4FF"/>
<path id="Vector_38" d="M23.2673 129.484C23.2737 128.722 22.8003 128.101 22.2098 128.097C21.6194 128.093 21.1356 128.708 21.1292 129.47C21.1228 130.232 21.5962 130.853 22.1866 130.857C22.777 130.861 23.2609 130.247 23.2673 129.484Z" fill="#3F3D56"/>
</g>
<defs>
<clipPath id="clip0_1_1448">
<rect width="185" height="198" fill="white"/>
</clipPath>
</defs>
</svg>
