<svg width="227" height="184" viewBox="0 0 227 184" fill="none" xmlns="http://www.w3.org/2000/svg">
<g id="5 1" clip-path="url(#clip0_1_729)">
<path id="Vector" d="M165.755 174.828H161.238L159.088 155.934H165.755V174.828Z" fill="#9E616A"/>
<path id="Vector_2" d="M168.139 183.315H164.899L164.321 179.998L162.841 183.315H154.25C153.838 183.315 153.437 183.172 153.105 182.908C152.774 182.643 152.529 182.27 152.406 181.844C152.283 181.417 152.29 180.96 152.424 180.538C152.558 180.115 152.814 179.751 153.152 179.497L160.013 174.359V171.006L167.229 171.473L168.139 183.315Z" fill="#2F2E41"/>
<path id="Vector_3" d="M192.588 168.646L188.964 171.569L176.843 157.799L182.193 153.484L192.588 168.646Z" fill="#9E616A"/>
<path id="Vector_4" d="M199.171 173.914L196.572 176.01L194.283 173.723L194.919 177.342L188.026 182.902C187.695 183.168 187.295 183.313 186.883 183.316C186.471 183.318 186.07 183.177 185.737 182.914C185.404 182.652 185.157 182.28 185.033 181.855C184.908 181.429 184.912 180.971 185.045 180.548L187.722 171.985L185.878 169.295L191.925 165L199.171 173.914Z" fill="#2F2E41"/>
<path id="Vector_5" d="M171.013 77.3456C171.013 77.3456 179.583 85.3752 175.629 108.266L170.802 130.694L186.544 159.019L181.525 165.641L161.059 134.984L153.643 116.117L151.562 82.5381L171.013 77.3456Z" fill="#2F2E41"/>
<path id="Vector_6" d="M157.73 121.493L157.215 130.151L158.792 167.043L166.215 165.641L167.633 139.374L157.73 121.493Z" fill="#2F2E41"/>
<path id="Vector_7" d="M62.4781 179.27L66.5173 179.27L68.4387 162.374L62.4775 162.374L62.4781 179.27Z" fill="#FFB6B6"/>
<path id="Vector_8" d="M61.4478 177.84L62.5847 177.84L67.0233 175.882L69.4023 177.839H69.4026C70.747 177.84 72.0363 178.419 72.987 179.45C73.9376 180.481 74.4717 181.879 74.4718 183.337V183.516L61.448 183.516L61.4478 177.84Z" fill="#2F2E41"/>
<path id="Vector_9" d="M78.1306 176.51L82.0704 177.474L87.3766 161.452L81.5618 160.028L78.1306 176.51Z" fill="#FFB6B6"/>
<path id="Vector_10" d="M77.416 174.868L78.525 175.14L83.2522 174.291L85.1752 176.768L85.1755 176.768C86.4869 177.09 87.6269 177.963 88.3448 179.196C89.0627 180.428 89.2997 181.92 89.0036 183.342L88.9674 183.516L76.2633 180.405L77.416 174.868Z" fill="#2F2E41"/>
<path id="Vector_11" d="M57.3624 75.9747C55.4686 82.169 55.6688 88.8927 57.8176 96.109L58.7361 136.739C58.7361 136.739 57.3675 163.383 61.7836 172.759H68.1881L71.3591 134.306L71.7573 108.495L85.4878 130.271L76.7424 172.13L84.6248 172.895L98.8163 127.467L81.3069 83.3942L57.3624 75.9747Z" fill="#2F2E41"/>
<path id="Vector_12" d="M131.221 58.3311C136.119 53.5436 143.406 51.1364 149.518 53.8209C143.248 57.5959 138.412 63.6543 135.864 70.9243C134.891 73.7318 134.079 76.9644 131.686 78.4675C130.196 79.4028 128.344 79.4485 126.674 78.997C125.004 78.5454 123.474 77.6403 121.964 76.7442L121.535 76.7337C123.463 69.8947 126.322 63.1185 131.221 58.3311Z" fill="#E6E6E6"/>
<path id="Vector_13" d="M149.483 53.9663C144.07 54.7249 139.015 57.3141 135.036 61.366C134.165 62.2218 133.424 63.2211 132.84 64.3271C132.303 65.4245 132.047 66.6577 132.099 67.8987C132.125 69.0568 132.276 70.2381 132.042 71.383C131.915 71.9671 131.675 72.5154 131.338 72.9919C131.001 73.4684 130.576 73.8623 130.089 74.1478C128.893 74.8935 127.521 75.1285 126.172 75.3078C124.674 75.5069 123.116 75.688 121.819 76.5991C121.662 76.7095 121.513 76.4387 121.67 76.3284C123.926 74.7433 126.78 75.3201 129.205 74.2622C130.337 73.7686 131.339 72.9021 131.693 71.592C132.003 70.4464 131.848 69.2281 131.812 68.0557C131.746 66.8459 131.954 65.6369 132.417 64.5342C132.947 63.3995 133.652 62.3709 134.5 61.4924C136.381 59.4817 138.542 57.8042 140.903 56.5214C143.59 55.0411 146.491 54.0703 149.481 53.651C149.666 53.6252 149.667 53.9406 149.483 53.9663Z" fill="white"/>
<path id="Vector_14" d="M136.247 59.9794C135.71 59.1631 135.459 58.1666 135.538 57.168C135.617 56.1694 136.02 55.2336 136.676 54.5278C136.809 54.3855 137.019 54.6033 136.886 54.7458C136.274 55.4018 135.898 56.2736 135.827 57.2036C135.755 58.1337 135.993 59.0609 136.496 59.8178C136.605 59.9825 136.355 60.1431 136.247 59.9794Z" fill="white"/>
<path id="Vector_15" d="M132.014 67.3133C133.874 67.6707 135.79 67.2546 137.38 66.148C137.538 66.0382 137.687 66.309 137.529 66.4186C135.873 67.5669 133.878 67.9955 131.943 67.6189C131.759 67.5829 131.831 67.2775 132.014 67.3133Z" fill="white"/>
<path id="Vector_16" d="M143.614 55.4582C143.761 55.821 143.988 56.1385 144.276 56.3823C144.564 56.626 144.903 56.7885 145.263 56.8549C145.448 56.8884 145.376 57.1938 145.192 57.1606C144.795 57.0851 144.42 56.9052 144.102 56.6367C143.783 56.3681 143.53 56.019 143.364 55.6198C143.346 55.5836 143.341 55.5411 143.35 55.501C143.359 55.4608 143.383 55.4261 143.415 55.4037C143.448 55.3825 143.487 55.3763 143.525 55.3865C143.562 55.3967 143.594 55.4225 143.614 55.4582Z" fill="white"/>
<path id="Vector_17" d="M156.248 76.9083C156.132 76.891 156.016 76.8736 155.898 76.8582C154.339 76.6337 152.766 76.5471 151.193 76.599C151.072 76.6009 150.948 76.6048 150.827 76.6105C147.04 76.7794 143.315 77.7093 139.841 79.3529C138.46 80.0084 137.126 80.7768 135.852 81.6517C134.092 82.8601 132.273 84.3221 130.306 84.8149C130.101 84.8688 129.893 84.9089 129.684 84.935L121.556 77.3027C121.546 77.2753 121.534 77.2498 121.523 77.2224L121.186 76.9337C121.249 76.8836 121.315 76.8331 121.378 76.783C121.414 76.7538 121.452 76.7263 121.488 76.6971C121.513 76.6781 121.538 76.6592 121.559 76.6406C121.568 76.6343 121.576 76.628 121.583 76.6237C121.604 76.605 121.626 76.5902 121.645 76.5736C122.014 76.2902 122.386 76.0091 122.76 75.7304C122.761 75.7284 122.761 75.7284 122.765 75.7281C125.596 73.5747 128.652 71.793 131.869 70.4205C131.966 70.3809 132.064 70.3393 132.164 70.3032C133.613 69.7189 135.104 69.2639 136.621 68.943C137.453 68.7702 138.292 68.6431 139.135 68.5622C141.314 68.3579 143.509 68.5266 145.64 69.0621C149.888 70.1303 153.773 72.6599 156.075 76.605C156.134 76.706 156.191 76.8053 156.248 76.9083Z" fill="#E6E6E6"/>
<path id="Vector_18" d="M156.14 77.003C151.397 74.0742 145.923 72.8407 140.497 73.4778C139.327 73.5924 138.18 73.9064 137.1 74.4083C136.062 74.934 135.173 75.7515 134.525 76.7759C133.903 77.7178 133.368 78.7595 132.546 79.5211C132.12 79.9042 131.624 80.1852 131.09 80.3458C130.557 80.5065 129.998 80.543 129.451 80.453C128.082 80.2674 126.856 79.5593 125.68 78.8217C124.373 78.0027 123.028 77.1296 121.487 77.0105C121.301 76.9961 121.332 76.6827 121.519 76.6971C124.2 76.9044 126.158 79.2285 128.682 79.9675C129.86 80.3124 131.141 80.2744 132.151 79.4598C133.034 78.7475 133.587 77.6739 134.209 76.7142C134.828 75.7049 135.665 74.8751 136.647 74.2975C137.7 73.7376 138.834 73.3762 139.999 73.2288C142.617 72.8514 145.273 72.9228 147.871 73.4404C150.838 74.0133 153.694 75.1325 156.313 76.7495C156.475 76.8497 156.301 77.1025 156.14 77.003Z" fill="white"/>
<path id="Vector_19" d="M142.233 73.1611C142.258 72.1592 142.611 71.1996 143.228 70.4536C143.845 69.7076 144.687 69.2239 145.603 69.0888C145.788 69.0621 145.835 69.3733 145.649 69.4C144.796 69.5241 144.012 69.9748 143.439 70.6707C142.866 71.3666 142.54 72.2619 142.522 73.195C142.518 73.3978 142.229 73.3627 142.233 73.1611Z" fill="white"/>
<path id="Vector_20" d="M134.782 76.2533C136.069 77.7533 137.83 78.6722 139.714 78.8267C139.9 78.8418 139.869 79.1552 139.683 79.1401C137.723 78.9753 135.892 78.015 134.556 76.4509C134.429 76.3017 134.656 76.1049 134.782 76.2533Z" fill="white"/>
<path id="Vector_21" d="M150.626 74.3617C150.541 74.7472 150.547 75.1493 150.641 75.5319C150.736 75.9146 150.917 76.2657 151.167 76.5539C151.296 76.7013 151.069 76.8979 150.941 76.7515C150.665 76.4317 150.466 76.0436 150.361 75.6211C150.255 75.1986 150.247 74.7546 150.337 74.3278C150.342 74.2868 150.361 74.2496 150.391 74.2236C150.421 74.1977 150.459 74.185 150.497 74.1881C150.535 74.1928 150.57 74.2137 150.594 74.2462C150.618 74.2787 150.629 74.3202 150.626 74.3617Z" fill="white"/>
<path id="Vector_22" d="M13.4913 178.963C13.1098 180.516 12.1073 181.808 10.8969 182.75C10.6996 182.904 10.497 183.047 10.2917 183.181C10.2286 183.221 10.1654 183.264 10.0996 183.301C10.0286 183.346 9.95755 183.389 9.8865 183.429H4.19508C4.09246 183.204 3.99247 182.975 3.89249 182.75C1.4533 177.191 -0.259649 171.193 0.0324214 165.083C0.148296 162.713 0.607367 160.378 1.39278 158.163C2.95576 153.748 5.80805 149.927 9.73126 148.004C9.82862 147.955 9.93124 147.907 10.0312 147.861C9.99965 147.984 9.96807 148.104 9.9365 148.226C9.5156 149.871 9.21818 151.55 9.04713 153.246C9.03134 153.377 9.01819 153.509 9.00766 153.643C8.63385 157.734 8.96578 161.865 9.98649 165.825C9.98912 165.834 9.99174 165.845 9.99439 165.854C10.2181 166.73 10.4777 167.592 10.7732 168.442C11.0048 169.112 11.2548 169.774 11.5284 170.425C12.6704 173.156 14.2018 176.067 13.4913 178.963Z" fill="#E6E6E6"/>
<path id="Vector_23" d="M10.1022 147.99C10.047 148.07 9.99169 148.147 9.93645 148.227C8.78075 149.888 7.79937 151.683 7.01049 153.58C6.96839 153.674 6.92892 153.768 6.89471 153.865C5.81378 156.514 5.11959 159.329 4.83706 162.209C4.834 162.229 4.83225 162.249 4.8318 162.269C4.76602 162.943 4.72655 163.622 4.71076 164.301C4.65225 165.574 4.77923 166.849 5.08703 168.079C5.36768 169.084 5.85948 170.004 6.5237 170.768C6.58948 170.845 6.65527 170.922 6.72631 170.996C6.77894 171.056 6.83682 171.116 6.89208 171.173C7.42359 171.724 8.0051 172.234 8.50504 172.825C8.73419 173.09 8.94113 173.376 9.12339 173.681C9.41428 174.192 9.60219 174.764 9.67475 175.359C9.74731 175.954 9.70288 176.559 9.54439 177.134C9.18654 178.578 8.36822 179.797 7.53148 180.958C7.11311 181.54 6.68158 182.128 6.30794 182.75C6.17112 182.973 6.04481 183.198 5.92905 183.429H5.59751C5.70803 183.198 5.82906 182.973 5.96063 182.75C6.92104 181.109 8.28666 179.7 8.99447 177.893C9.47336 176.675 9.61809 175.293 9.0129 174.098C8.83553 173.75 8.6209 173.426 8.3735 173.133C7.89197 172.543 7.31573 172.037 6.79211 171.504C6.66054 171.37 6.53161 171.233 6.40794 171.09C5.75228 170.368 5.24634 169.502 4.92391 168.55C4.55877 167.342 4.38614 166.075 4.41344 164.803C4.41344 163.993 4.45291 163.177 4.52659 162.366C4.53448 162.264 4.54501 162.158 4.55553 162.052C5.09364 156.953 6.88072 152.102 9.73123 148.004C9.78385 147.924 9.83911 147.847 9.89437 147.77C10.0075 147.61 10.2154 147.833 10.1022 147.99Z" fill="white"/>
<path id="Vector_24" d="M4.66176 162.393C3.75037 162.227 2.92307 161.715 2.3276 160.949C1.73213 160.182 1.40728 159.211 1.41104 158.209C1.41155 158.168 1.42666 158.129 1.45319 158.1C1.47973 158.071 1.51562 158.054 1.55329 158.054C1.59097 158.053 1.6275 158.068 1.65518 158.095C1.68286 158.123 1.69953 158.161 1.70168 158.202C1.69659 159.136 1.99927 160.04 2.55511 160.753C3.11096 161.465 3.88334 161.939 4.73286 162.088C4.91743 162.12 4.84528 162.426 4.66176 162.393Z" fill="white"/>
<path id="Vector_25" d="M6.45075 170.825C7.99915 169.651 9.08273 167.888 9.48542 165.886C9.52517 165.688 9.80693 165.765 9.76723 165.963C9.34459 168.045 8.21353 169.878 6.59975 171.096C6.44586 171.212 6.29769 170.94 6.45075 170.825Z" fill="white"/>
<path id="Vector_26" d="M6.92345 153.547C7.26374 153.691 7.63167 153.741 7.99419 153.692C8.35671 153.644 8.70247 153.498 9.00042 153.269C9.15288 153.151 9.30088 153.423 9.14941 153.54C8.81914 153.791 8.4371 153.951 8.03668 154.006C7.63626 154.06 7.22964 154.008 6.85235 153.852C6.81565 153.841 6.78434 153.815 6.76477 153.779C6.7452 153.744 6.73884 153.701 6.74699 153.661C6.7566 153.62 6.78052 153.586 6.81356 153.564C6.8466 153.543 6.88609 153.537 6.92345 153.547Z" fill="white"/>
<path id="Vector_27" d="M29.8421 159.025C29.75 159.102 29.6553 159.179 29.5632 159.259C28.3139 160.296 27.1444 161.441 26.0662 162.683C25.982 162.777 25.8978 162.874 25.8162 162.971L25.8136 162.974C23.2571 165.984 21.2356 169.481 19.8512 173.287L19.8433 173.313C19.8406 173.322 19.838 173.327 19.8354 173.336C19.2866 174.86 18.8442 176.426 18.5118 178.022C18.1908 179.58 17.9277 181.249 17.4251 182.75C17.3488 182.981 17.2646 183.21 17.1752 183.429H5.47656C5.51603 183.204 5.55813 182.976 5.60023 182.75C6.19533 179.444 7.12542 176.218 8.37358 173.133C8.41568 173.031 8.45778 172.928 8.50515 172.825C9.1495 171.301 9.90717 169.836 10.7707 168.445L10.7709 168.444L10.7714 168.443L10.7723 168.442L10.7733 168.442C11.2475 167.683 11.7568 166.95 12.2994 166.247C13.7067 164.432 15.369 162.868 17.2252 161.613C17.2357 161.604 17.2488 161.599 17.2594 161.59C20.9537 159.105 25.3321 157.92 29.5184 158.945H29.5211C29.6289 158.971 29.7342 158.996 29.8421 159.025Z" fill="#E6E6E6"/>
<path id="Vector_28" d="M29.8288 159.176C29.7393 159.202 29.6499 159.23 29.563 159.259C27.719 159.83 25.939 160.622 24.2558 161.619C24.1716 161.667 24.0874 161.719 24.0032 161.77C21.677 163.178 19.5655 164.967 17.7434 167.075C17.742 167.077 17.741 167.079 17.7408 167.081C17.7197 167.104 17.696 167.129 17.6776 167.152C17.2566 167.643 16.8514 168.154 16.4672 168.679C15.7158 169.658 15.1103 170.758 14.6727 171.94C14.3384 172.926 14.2203 173.982 14.328 175.025C14.3359 175.131 14.3491 175.234 14.3622 175.339C14.3728 175.422 14.3833 175.505 14.3964 175.59C14.5701 176.735 14.8701 177.882 14.7859 179.049C14.7346 179.647 14.5672 180.226 14.2947 180.749C14.0221 181.272 13.6506 181.726 13.2045 182.082C12.9012 182.337 12.5771 182.56 12.2362 182.75C11.7487 183.023 11.2408 183.25 10.7179 183.429H9.68384C9.82329 183.387 9.96012 183.344 10.0996 183.301C10.5945 183.149 11.0804 182.966 11.5547 182.75C11.8256 182.627 12.0892 182.486 12.344 182.328C13.4018 181.669 14.2833 180.658 14.4675 179.309C14.628 178.127 14.3175 176.946 14.1333 175.79C14.1017 175.59 14.0728 175.393 14.057 175.197C13.9314 174.196 14.0077 173.177 14.2807 172.212C14.6593 171.007 15.2253 169.882 15.9541 168.884C16.405 168.235 16.8863 167.611 17.3961 167.015C17.4592 166.938 17.525 166.861 17.5934 166.784C19.4539 164.661 21.602 162.859 23.9637 161.439H23.9663C25.7224 160.379 27.5854 159.542 29.5183 158.945H29.5209C29.6078 158.916 29.6972 158.888 29.7841 158.862C29.9656 158.811 30.0077 159.122 29.8288 159.176Z" fill="white"/>
<path id="Vector_29" d="M17.4894 167.123C16.8539 166.396 16.4775 165.447 16.4276 164.446C16.3776 163.445 16.6573 162.458 17.2167 161.66C17.3304 161.499 17.5665 161.683 17.4526 161.844C16.9304 162.586 16.67 163.506 16.7182 164.438C16.7665 165.37 17.1203 166.252 17.7158 166.926C17.8451 167.072 17.6179 167.269 17.4894 167.123Z" fill="white"/>
<path id="Vector_30" d="M14.237 175.024C16.125 175.097 17.9692 174.397 19.402 173.061C19.5438 172.929 19.7259 173.175 19.5842 173.307C18.0908 174.694 16.1702 175.418 14.2057 175.337C14.0185 175.329 14.0508 175.016 14.237 175.024Z" fill="white"/>
<path id="Vector_31" d="M24.2065 161.536C24.3983 161.874 24.6643 162.154 24.9806 162.352C25.2969 162.55 25.6537 162.66 26.0188 162.671C26.206 162.676 26.1735 162.99 25.9875 162.985C25.5842 162.97 25.1903 162.848 24.8404 162.63C24.4905 162.412 24.1951 162.104 23.9801 161.734C23.9571 161.701 23.9466 161.66 23.9507 161.618C23.9548 161.577 23.9732 161.539 24.0022 161.512C24.0323 161.486 24.0706 161.474 24.1089 161.479C24.1471 161.483 24.1822 161.504 24.2065 161.536Z" fill="white"/>
<path id="Vector_32" d="M120.086 49.4053C119.816 49.7905 119.472 50.1069 119.077 50.332C118.682 50.5572 118.246 50.6857 117.8 50.7085C117.355 50.7313 116.91 50.6478 116.497 50.4639C116.084 50.2801 115.714 50.0003 115.411 49.6443L105.465 54.3358L106.434 48.3141L115.731 44.7822C116.316 44.2711 117.053 44.0106 117.804 44.0499C118.554 44.0892 119.265 44.4257 119.802 44.9956C120.339 45.5654 120.664 46.3291 120.717 47.1418C120.769 47.9546 120.545 48.7599 120.086 49.4053Z" fill="#FFB8B8"/>
<path id="Vector_33" d="M113.449 51.2854L90.347 62.4456L90.2974 62.4264L63.9671 52.2506C62.0059 51.1389 60.5106 49.2563 59.7876 46.988C59.0645 44.7197 59.1683 42.2375 60.0777 40.0495C60.5818 38.8407 61.3162 37.7613 62.2326 36.8824C63.1491 36.0036 64.2268 35.3452 65.3948 34.9506C66.5628 34.5561 67.7946 34.4342 69.0091 34.5932C70.2236 34.7521 71.3933 35.1882 72.4412 35.8728L92.0359 48.674L111.037 46.0033L113.449 51.2854Z" fill="#E6E6E6"/>
<path id="Vector_34" d="M227 183.66C227 183.705 226.992 183.749 226.976 183.79C226.961 183.832 226.938 183.869 226.908 183.901C226.879 183.932 226.845 183.957 226.807 183.974C226.769 183.991 226.728 184 226.687 184H0.321784C0.238739 184 0.159099 183.964 0.100377 183.901C0.0416559 183.837 0.00866699 183.75 0.00866699 183.66C0.00866699 183.57 0.0416559 183.484 0.100377 183.42C0.159099 183.357 0.238739 183.321 0.321784 183.321H226.687C226.728 183.321 226.769 183.329 226.807 183.346C226.845 183.363 226.879 183.388 226.908 183.42C226.938 183.452 226.961 183.489 226.976 183.53C226.992 183.572 227 183.616 227 183.66Z" fill="#CCCCCC"/>
<path id="Vector_35" d="M82.449 84.6956L59.1608 80.6557C58.55 80.4436 57.9888 80.0906 57.5156 79.621C57.0425 79.1514 56.6687 78.5764 56.4198 77.9353C56.171 77.2943 56.053 76.6024 56.0739 75.9072C56.0949 75.2121 56.2543 74.53 56.5412 73.908L57.5973 71.617L57.1871 47.5473C57.1376 44.4164 57.8493 41.3266 59.2506 38.5887C60.6518 35.8509 62.6932 33.5615 65.1694 31.951L67.4404 30.4783L68.5881 27.3174L79.1711 27.5973L79.2019 31.7429L82.9919 38.2973L82.9918 38.3245L82.754 73.9991L81.7095 77.6807L83.2889 81.9629L82.449 84.6956Z" fill="#E6E6E6"/>
<path id="Vector_36" d="M74.8486 23.3869C80.1593 23.3869 84.4644 18.718 84.4644 12.9585C84.4644 7.19901 80.1593 2.53003 74.8486 2.53003C69.538 2.53003 65.2329 7.19901 65.2329 12.9585C65.2329 18.718 69.538 23.3869 74.8486 23.3869Z" fill="#FFB8B8"/>
<path id="Vector_37" d="M64.8358 15.2319C64.549 13.9215 64.6807 12.0776 64.8428 10.7582C65.2677 7.2992 67.0389 4.0108 69.7299 2.06297C70.2401 1.64267 70.8465 1.38136 71.4835 1.30719C72.1201 1.27837 72.8102 1.64797 73.0056 2.30568C73.166 1.87159 73.4067 1.47775 73.7129 1.14846C74.0191 0.819179 74.3842 0.561443 74.7858 0.391164C75.5925 0.0559609 76.4602 -0.0708051 77.3199 0.0209148C78.9864 0.169887 80.5845 0.805375 81.9448 1.85994C83.3051 2.9145 84.3768 4.34879 85.0461 6.0106C85.3029 6.6723 86.0203 4.22814 86.3457 4.85336C86.6448 5.50324 87.1665 6.00036 87.7992 6.23836C88.4368 6.43132 88.6958 9.28046 88.9468 8.61609C89.1414 9.10707 89.2184 9.64351 89.1705 10.1754C89.1225 10.7074 88.9512 11.2175 88.6725 11.6583C88.3939 12.0991 88.0169 12.4562 87.5766 12.6965C87.1364 12.9367 86.6473 13.0522 86.1548 13.0322C85.5059 13.0059 84.8853 12.747 84.244 12.6355C81.9508 12.2371 79.5183 14.0404 79.028 16.5024C78.8525 15.7904 78.5721 15.1139 78.1977 14.4989C78.0076 14.193 77.753 13.9407 77.4549 13.7631C77.1568 13.5855 76.8239 13.4876 76.4839 13.4776C75.8315 13.5041 75.258 13.9667 74.8346 14.5058C74.4113 15.0449 74.0934 15.6738 73.6669 16.21C72.4156 17.7832 70.7232 21.452 68.94 21.1845C67.5327 20.9733 65.2274 17.021 64.8358 15.2319Z" fill="#2F2E41"/>
<path id="Vector_38" d="M132.975 61.2226C133.042 60.7472 132.952 60.2612 132.72 59.851C132.489 59.4407 132.131 59.1327 131.71 58.9814L105.815 49.6279C105.566 49.5379 105.304 49.5052 105.043 49.5318L98.5524 50.1975L94.8282 50.5806L87.9557 51.285C87.5407 51.3281 87.1507 51.5192 86.8467 51.8286C86.5427 52.1379 86.342 52.5479 86.276 52.9943L82.7866 76.6333C82.7205 77.0944 82.8015 77.5661 83.016 77.9706C83.2305 78.375 83.5658 78.6881 83.9665 78.858L110.132 89.8116C110.255 89.8633 110.382 89.9005 110.512 89.9224C110.702 89.9557 110.895 89.9573 111.085 89.9271L127.992 87.2094C128.391 87.1468 128.761 86.9465 129.046 86.6381C129.332 86.3297 129.518 85.9297 129.577 85.4975L132.975 61.2226Z" fill="white"/>
<path id="Vector_39" d="M84.5596 77.1924L110.725 88.1454C110.763 88.1617 110.805 88.167 110.845 88.1607L127.75 85.4434C127.8 85.4359 127.847 85.4109 127.883 85.3722C127.919 85.3335 127.942 85.2832 127.949 85.2289L131.348 60.9537C131.356 60.8944 131.345 60.8341 131.316 60.783C131.287 60.7319 131.243 60.6932 131.191 60.6736L131.017 60.6097L105.294 51.3222C105.282 51.3177 105.27 51.3145 105.258 51.3128C105.238 51.3088 105.218 51.3076 105.197 51.3094L89.3665 52.934L88.1103 53.0618C88.0587 53.0678 88.0104 53.0919 87.9727 53.1304C87.9349 53.1689 87.9098 53.2198 87.9012 53.2752L84.4124 76.9134C84.4039 76.9711 84.4138 77.0303 84.4406 77.081C84.4674 77.1318 84.5094 77.1711 84.5596 77.1924Z" fill="#FF2303"/>
<path id="Vector_40" d="M89.3666 52.934L105.197 51.3094C105.218 51.3076 105.238 51.3088 105.258 51.3128C105.27 51.3145 105.282 51.3177 105.294 51.3222L131.017 60.6097L124.232 61.3887L121.692 61.6788L114.467 62.5067C114.446 62.5079 114.424 62.5076 114.403 62.5059C114.39 62.5017 114.378 62.4975 114.362 62.493L89.3666 52.934Z" fill="#2F2E41"/>
<path id="Vector_41" d="M83.966 78.8595L110.131 89.8125C110.254 89.8639 110.382 89.9003 110.513 89.9209C110.703 89.9548 110.896 89.9575 111.086 89.9286L127.991 87.2113C128.39 87.1483 128.76 86.9477 129.045 86.6391C129.331 86.3306 129.517 85.9305 129.577 85.498L132.974 61.2226C133.024 60.8647 132.986 60.4988 132.864 60.162C132.847 60.1172 132.83 60.0724 132.81 60.0302C132.675 59.7227 132.47 59.4577 132.214 59.2604C132.06 59.1404 131.89 59.0465 131.71 58.9817L131.679 58.9699L105.816 49.6277C105.71 49.5912 105.602 49.5628 105.493 49.5427C105.344 49.5197 105.192 49.5165 105.042 49.5332L98.5525 50.1966L94.8286 50.5818L87.9549 51.2857C87.6737 51.3141 87.4021 51.4115 87.1606 51.5703C87.1419 51.5801 87.1241 51.5917 87.1073 51.6049C87.0954 51.6134 87.0839 51.6227 87.0732 51.6329C86.8623 51.789 86.6829 51.99 86.546 52.2238C86.4091 52.4575 86.3174 52.719 86.2767 52.9923L82.7851 76.633C82.7191 77.0945 82.8001 77.5665 83.0148 77.9713C83.2295 78.3761 83.565 78.6894 83.966 78.8595ZM86.74 53.0747C86.7824 52.7914 86.8983 52.527 87.0741 52.3124C87.1273 52.2434 87.1869 52.1804 87.2519 52.1244C87.4294 51.9688 87.6393 51.8626 87.8633 51.8151C87.9075 51.8052 87.9523 51.7984 87.9973 51.7946L99.5708 50.6088L105.087 50.0395C105.125 50.0348 105.159 50.0355 105.193 50.0334C105.277 50.0315 105.36 50.0382 105.443 50.0535C105.519 50.0641 105.593 50.0834 105.665 50.1109L131.559 59.4648C131.579 59.4727 131.597 59.4803 131.618 59.4881C131.853 59.5831 132.06 59.7464 132.216 59.96C132.339 60.1236 132.429 60.3135 132.48 60.5174C132.53 60.7212 132.541 60.9344 132.511 61.143L129.111 85.421C129.066 85.7448 128.927 86.0444 128.713 86.2757C128.5 86.507 128.223 86.6577 127.925 86.7056L111.017 89.4227C110.775 89.4603 110.528 89.4298 110.3 89.3341L84.1348 78.3839C83.8349 78.2558 83.5841 78.0208 83.4234 77.7177C83.2628 77.4146 83.202 77.0612 83.2509 76.7157L86.74 53.0747Z" fill="#3F3D56"/>
<path id="Vector_42" d="M87.0169 51.7618C87.0307 51.7188 87.0551 51.6807 87.0874 51.6516C87.0981 51.6423 87.1095 51.6339 87.1213 51.6264C87.1323 51.6218 87.1435 51.6144 87.1545 51.6098C87.207 51.5869 87.2655 51.5858 87.3187 51.6068L87.8633 51.8151L114.47 61.994L120.696 61.2804L124.181 60.8818L131.556 60.035L132.216 59.96L132.344 59.9447C132.399 59.9392 132.455 59.9548 132.5 59.9889C132.546 60.023 132.579 60.0733 132.595 60.1312C132.598 60.1445 132.6 60.1582 132.602 60.172C132.607 60.227 132.596 60.2823 132.57 60.3298C132.544 60.3772 132.504 60.4142 132.457 60.4351C132.436 60.4445 132.414 60.4509 132.392 60.4541L131.495 60.5561L124.232 61.3887L121.692 61.6789L114.467 62.5068C114.446 62.5079 114.424 62.5076 114.403 62.5059C114.39 62.5017 114.378 62.4976 114.362 62.4931L87.2519 52.1244L87.1599 52.0891C87.1388 52.0816 87.1192 52.0698 87.1021 52.0544C87.0611 52.0218 87.0307 51.9758 87.0154 51.9232C87.0001 51.8706 87.0006 51.8141 87.0169 51.7618Z" fill="#3F3D56"/>
<path id="Vector_43" d="M110.584 89.9952C110.523 89.9845 110.468 89.9481 110.432 89.8939C110.395 89.8396 110.38 89.7718 110.389 89.7053L114.209 62.2148C114.218 62.148 114.251 62.0878 114.302 62.0477C114.352 62.0075 114.415 61.9906 114.476 62.0006L114.478 62.001C114.54 62.0116 114.595 62.0481 114.631 62.1023C114.668 62.1566 114.683 62.2244 114.674 62.2909L110.854 89.7814C110.845 89.8482 110.811 89.9084 110.761 89.9485C110.711 89.9887 110.648 90.0056 110.586 89.9955L110.584 89.9952Z" fill="#3F3D56"/>
<path id="Vector_44" d="M120.267 88.2513L117.726 88.542L120.698 61.2797C120.698 61.2797 124.091 60.6134 124.181 60.8806C124.237 61.0401 120.291 88.0764 120.267 88.2513Z" fill="#3F3D56"/>
<path id="Vector_45" d="M87.1606 52.0887L87.0922 64.5213L107.386 72.9076L114.674 62.2909L87.1606 52.0887Z" fill="#3F3D56"/>
<path id="Vector_46" d="M132.217 59.9605C132.047 59.7292 131.819 59.557 131.56 59.4649L105.666 50.1113C105.594 50.0847 105.519 50.065 105.443 50.0523C105.361 50.0369 105.277 50.0301 105.193 50.032L105.235 49.7474L105.494 49.5439L111.643 44.7158L132.178 51.5409L132.213 59.2605L132.217 59.9605Z" fill="#3F3D56"/>
<path id="Vector_47" d="M88.1949 72.0471C88.224 72.0501 88.2528 72.0567 88.2806 72.0666L96.2254 74.8965C96.3249 74.9319 96.4073 75.0087 96.4545 75.1101C96.5018 75.2114 96.51 75.3289 96.4773 75.4368C96.4447 75.5446 96.3739 75.634 96.2805 75.6853C96.1871 75.7365 96.0787 75.7454 95.9792 75.71L88.0345 72.8801C87.9422 72.8472 87.8644 72.7786 87.8159 72.6875C87.7673 72.5963 87.7514 72.4889 87.7713 72.3858C87.7911 72.2827 87.8453 72.1912 87.9234 72.1287C88.0016 72.0662 88.0982 72.0372 88.1949 72.0471Z" fill="white"/>
<path id="Vector_48" d="M120.25 124.202C121.993 124.202 123.407 122.668 123.407 120.777C123.407 118.886 121.993 117.353 120.25 117.353C118.506 117.353 117.092 118.886 117.092 120.777C117.092 122.668 118.506 124.202 120.25 124.202Z" fill="#F2F2F2"/>
<path id="Vector_49" d="M39.733 136.758C41.4768 136.758 42.8905 135.225 42.8905 133.333C42.8905 131.442 41.4768 129.909 39.733 129.909C37.9891 129.909 36.5754 131.442 36.5754 133.333C36.5754 135.225 37.9891 136.758 39.733 136.758Z" fill="#F2F2F2"/>
<path id="Vector_50" d="M105.515 23.4673C107.258 23.4673 108.672 21.9342 108.672 20.0429C108.672 18.1517 107.258 16.6185 105.515 16.6185C103.771 16.6185 102.357 18.1517 102.357 20.0429C102.357 21.9342 103.771 23.4673 105.515 23.4673Z" fill="#F2F2F2"/>
<path id="Vector_51" d="M110.695 77.0834C110.286 77.2763 109.843 77.3694 109.397 77.3564C108.951 77.3433 108.513 77.2244 108.113 77.0079C107.714 76.7914 107.364 76.4826 107.087 76.1034C106.81 75.7241 106.613 75.2836 106.509 74.8128L95.7181 73.6304L99.2783 68.8915L108.98 70.7408C109.721 70.6053 110.482 70.7692 111.119 71.2014C111.755 71.6337 112.224 72.3042 112.435 73.086C112.647 73.8678 112.586 74.7066 112.266 75.4433C111.945 76.1801 111.386 76.7636 110.695 77.0834Z" fill="#FFB8B8"/>
<path id="Vector_52" d="M104.058 75.2036L78.8743 72.6872L78.8398 72.6441L60.4602 49.8044C59.2507 47.7946 58.7952 45.3594 59.1872 42.9974C59.5792 40.6354 60.7889 38.5252 62.5687 37.0989C63.5535 36.3118 64.6808 35.7597 65.8764 35.4791C67.0721 35.1985 68.309 35.1958 69.5057 35.471C70.7025 35.7462 71.8319 36.2932 72.8196 37.0759C73.8074 37.8586 74.6311 38.8594 75.2365 40.0122L86.5569 61.57L104.335 69.3169L104.058 75.2036Z" fill="#E6E6E6"/>
<path id="Vector_53" d="M167.267 31.2809C166.641 26.3059 165.857 20.9644 162.622 17.373C161.595 16.2335 160.366 15.3312 159.009 14.7206C157.653 14.11 156.196 13.8037 154.727 13.8202C153.258 13.8367 151.807 14.1756 150.462 14.8166C149.117 15.4575 147.906 16.3871 146.901 17.5495C144.546 20.2744 143.506 24.1006 143.411 27.834C143.316 31.5675 144.082 35.2595 144.933 38.8787C149.434 38.9762 153.902 38.0225 158.033 36.0823C159.066 35.596 160.082 35.0462 161.174 34.745C162.265 34.4437 163.043 35.2018 164.059 35.7304L164.616 34.5731C165.072 35.4939 166.485 35.221 166.997 34.3356C167.509 33.4503 167.397 32.3165 167.267 31.2809Z" fill="#2F2E41"/>
<path id="Vector_54" d="M149.425 59.0495L131.039 59.476C130.757 58.9466 130.339 58.5177 129.836 58.2414C129.333 57.965 128.766 57.8532 128.206 57.9195C127.645 57.9858 127.115 58.2274 126.678 58.6148C126.242 59.0023 125.919 59.5189 125.749 60.1018C125.578 60.6847 125.567 61.3088 125.718 61.8981C125.869 62.4874 126.174 63.0165 126.597 63.4211C127.02 63.8256 127.542 64.0882 128.1 64.1768C128.658 64.2654 129.227 64.1763 129.739 63.9202C132.178 64.0705 151.256 67.0071 152.394 65.1146C153.549 63.1938 159.715 56.4149 159.715 56.4149L154.975 49.097L149.425 59.0495Z" fill="#9E616A"/>
<path id="Vector_55" d="M153.906 36.203C158.676 36.203 162.544 32.0086 162.544 26.8344C162.544 21.6603 158.676 17.4658 153.906 17.4658C149.135 17.4658 145.267 21.6603 145.267 26.8344C145.267 32.0086 149.135 36.203 153.906 36.203Z" fill="#9E616A"/>
<path id="Vector_56" d="M167.741 44.8605C166.723 42.6633 166.229 39.9488 164.059 39.2365C162.593 38.7555 156.665 39.4763 155.33 40.2883C153.108 41.639 155.121 44.17 153.811 46.5384C152.386 49.1132 148.513 54.2804 147.089 56.8551C146.109 58.6252 149.409 63.8207 148.879 65.8036C148.349 67.7865 148.324 70.012 149.226 71.8298C150.034 73.4567 148.865 74.896 149.677 76.5203C150.522 78.2096 151.558 84.5256 150.772 86.2478L150.246 87.96C155.468 88.2928 159.859 81.5267 165.049 80.8139C166.338 80.6369 167.677 80.4056 168.739 79.5942C170.303 78.3989 170.922 76.2299 171.309 74.1971C173.169 64.2604 171.913 53.9345 167.741 44.8605Z" fill="#3F3D56"/>
<path id="Vector_57" d="M175.571 68.0613C174.844 65.908 173.527 56.4935 173.527 56.4935L165.285 56.2314L169.314 67.0103L158.318 83.705C158.318 83.705 158.338 83.7417 158.375 83.8071C157.797 83.7065 157.205 83.7975 156.675 84.0682C156.145 84.3389 155.703 84.7768 155.407 85.3244C155.11 85.872 154.973 86.5039 155.013 87.1375C155.054 87.771 155.269 88.3766 155.632 88.8751C155.995 89.3736 156.488 89.7416 157.047 89.9312C157.605 90.1208 158.204 90.123 158.764 89.9375C159.324 89.752 159.819 89.3875 160.185 88.8917C160.551 88.3959 160.77 87.7919 160.814 87.1587C160.855 87.1839 160.902 87.1929 160.948 87.1844C160.994 87.1758 161.036 87.1501 161.067 87.1118C162.29 85.4465 176.298 70.2146 175.571 68.0613Z" fill="#9E616A"/>
<path id="Vector_58" d="M176.409 62.1157C175.652 58.6528 174.89 55.1711 173.615 51.8922C172.339 48.6133 170.514 45.5163 167.945 43.3012C167.124 42.593 166.206 41.9679 165.177 41.7477C164.148 41.5275 162.988 41.7739 162.265 42.5984C161.108 43.9179 161.456 46.0357 161.881 47.7972C163.132 52.991 164.383 58.1848 165.634 63.3785C169.246 62.9633 172.859 62.548 176.471 62.1327L176.409 62.1157Z" fill="#3F3D56"/>
<path id="Vector_59" d="M164.49 28.1339C164.172 25.8676 163.84 23.5822 163.093 21.4482C162.345 19.3142 161.141 17.3154 159.412 16.1065C156.676 14.1925 153.134 14.5617 150.066 15.6626C147.694 16.5141 145.378 17.8082 143.705 19.8887C142.032 21.9692 141.092 24.9379 141.714 27.6583C144.987 26.8198 148.259 25.9813 151.531 25.1428L151.173 25.4173C152.248 25.9984 153.186 26.8373 153.917 27.8703C154.648 28.9034 155.152 30.1034 155.391 31.3794C155.625 32.6709 155.592 34.0026 155.293 35.2783C154.994 36.5539 154.438 37.7416 153.664 38.7555C155.895 37.8968 158.127 37.0382 160.359 36.1797C161.736 35.6497 163.211 35.039 164.028 33.6797C164.975 32.1037 164.755 30.0148 164.49 28.1339Z" fill="#2F2E41"/>
</g>
<defs>
<clipPath id="clip0_1_729">
<rect width="227" height="184" fill="white"/>
</clipPath>
</defs>
</svg>
