<svg width="223" height="141" viewBox="0 0 223 141" fill="none" xmlns="http://www.w3.org/2000/svg">
<g id="13 1" clip-path="url(#clip0_1_1341)">
<path id="Vector" d="M124.472 138.768C168.789 138.768 204.714 107.703 204.714 69.3838C204.714 31.0642 168.789 0 124.472 0C80.1562 0 44.2309 31.0642 44.2309 69.3838C44.2309 107.703 80.1562 138.768 124.472 138.768Z" fill="#F2F2F2"/>
<path id="Vector_2" d="M148.997 43.3418C160.522 43.3418 169.864 35.2635 169.864 25.2983C169.864 15.3332 160.522 7.25482 148.997 7.25482C137.472 7.25482 128.13 15.3332 128.13 25.2983C128.13 35.2635 137.472 43.3418 148.997 43.3418Z" fill="#03A4FF"/>
<path id="Vector_3" d="M61.5178 13.4831L62.0883 23.7654C64.4527 26.4922 67.0034 29.6126 69.5208 33.0134L69.8802 17.3267L70.0786 17.4363C67.1666 15.6375 64.2064 14.2613 61.3195 13.3878L61.5178 13.4831Z" fill="#03A4FF"/>
<path id="Vector_4" d="M61.6725 23.2876L61.1201 13.3275C57.8778 12.3714 54.732 12.0542 51.8564 12.4976C51.7068 12.5207 51.5598 12.5472 51.413 12.5742C52.1437 13.252 56.4015 17.2549 61.6725 23.2876Z" fill="#03A4FF"/>
<path id="Vector_5" d="M87.8517 35.5548L88.0431 35.7127C87.2573 34.4348 86.4244 33.1923 85.5443 31.9853L80.1824 50.2283L80.0916 50.1591C80.4793 50.9594 80.8479 51.7543 81.1976 52.5437L87.8517 35.5548Z" fill="#03A4FF"/>
<path id="Vector_6" d="M79.6834 25.1833L79.8809 25.3199C77.0461 22.4156 73.8234 19.8118 70.2803 17.563L69.9138 33.5486C72.2565 36.7453 74.3539 39.8941 76.2061 42.9948L79.6834 25.1833Z" fill="#03A4FF"/>
<path id="Vector_7" d="M40.7881 30.1741C41.0893 32.8685 41.7046 35.5296 42.6246 38.1171L74.5989 40.9688C72.9297 38.3072 71.2066 35.8101 69.5338 33.5343L40.8694 30.3914L40.7881 30.1741Z" fill="#03A4FF"/>
<path id="Vector_8" d="M43.7878 41.1009L43.7017 40.8839L76.0627 43.3711C75.6718 42.7099 75.2765 42.0575 74.8768 41.4138L42.7844 38.5515L42.7001 38.3342C43.0235 39.2462 43.3861 40.1685 43.7878 41.1009Z" fill="#03A4FF"/>
<path id="Vector_9" d="M85.1798 31.6049L85.3744 31.7532C83.77 29.5713 81.9971 27.4855 80.0679 25.51L76.5436 43.5624C77.7651 45.6361 78.8714 47.6806 79.8626 49.6959L85.1798 31.6049Z" fill="#03A4FF"/>
<path id="Vector_10" d="M84.4955 61.7606C85.7816 66.5729 86.2689 71.1231 85.9472 75.3608C87.7569 72.0267 94.639 58.2144 92.0664 45.3417L84.4955 61.7606Z" fill="#03A4FF"/>
<path id="Vector_11" d="M49.7243 50.83C51.4366 52.8244 53.3016 54.7174 55.3066 56.4961L55.2285 56.255L84.0146 61.3757C83.2657 58.6885 82.3311 56.0426 81.2158 53.4522L49.7243 50.83Z" fill="#03A4FF"/>
<path id="Vector_12" d="M61.4241 23.4556C55.7193 16.9299 51.2181 12.8053 51.1533 12.7463L51.2275 12.6088C46.8984 13.4586 43.8419 16.0055 42.1601 19.6918L61.4241 23.4556Z" fill="#03A4FF"/>
<path id="Vector_13" d="M81.464 53.156C81.5703 53.4014 81.6784 53.6475 81.781 53.8919C82.7696 56.2337 83.6101 58.6204 84.2986 61.0413L91.7977 44.7781L91.9809 44.937C91.5061 42.6739 90.7016 40.472 89.5867 38.3839C89.1444 37.5651 88.6813 36.7587 88.1975 35.9646L81.464 53.156Z" fill="#03A4FF"/>
<path id="Vector_14" d="M69.1988 33.0808C66.7072 29.7201 64.1854 26.6373 61.848 23.9426L42.142 20.0922L42.0752 19.8772C40.845 22.6785 40.3952 26.1199 40.7678 29.9636L69.1988 33.0808Z" fill="#03A4FF"/>
<path id="Vector_15" d="M84.1312 61.8029L55.5558 56.7197C67.5752 67.3885 84.3911 75.5707 85.4644 76.0879C85.9651 71.3873 85.3972 66.5591 84.1312 61.8029Z" fill="#03A4FF"/>
<path id="Vector_16" d="M81.0133 53.0142L81.0197 52.9979C79.6457 49.8657 78.0777 46.7998 76.3224 43.8135L43.8818 41.3201C44.4326 42.5812 45.055 43.8558 45.7492 45.144C46.7603 46.9792 47.9628 48.7308 49.3419 50.377L81.0133 53.0142Z" fill="#03A4FF"/>
<path id="Vector_17" d="M122.279 48.1167L115.134 56.3506C114.944 59.7548 114.607 63.5648 114.037 67.5725L125.885 55.689L125.957 55.8828C125.041 52.8914 123.776 50.1989 122.197 47.934L122.279 48.1167Z" fill="#03A4FF"/>
<path id="Vector_18" d="M115.166 55.7534L122.088 47.7775C120.296 45.253 118.107 43.2737 115.565 42.0293C115.433 41.9646 115.3 41.9039 115.167 41.8438C115.23 42.7687 115.556 48.2 115.166 55.7534Z" fill="#03A4FF"/>
<path id="Vector_19" d="M126.281 79.6395L126.312 79.8667C126.649 78.4491 126.924 77.0328 127.136 75.6177L109.55 86.7112L109.531 86.6078C109.24 87.438 108.937 88.2535 108.624 89.0544L126.281 79.6395Z" fill="#03A4FF"/>
<path id="Vector_20" d="M127.64 67.1466L127.691 67.3608C127.65 63.5605 127.089 59.7777 126.018 56.0916L113.945 68.2014C113.391 71.9555 112.684 75.5374 111.823 78.9471L127.64 67.1466Z" fill="#03A4FF"/>
<path id="Vector_21" d="M94.0016 49.5392C92.2462 51.7806 90.7571 54.1695 89.5571 56.6697L112.08 76.5003C112.758 73.5297 113.272 70.6562 113.663 67.9808L93.9039 49.7515L94.0016 49.5392Z" fill="#03A4FF"/>
<path id="Vector_22" d="M88.2522 59.6094L88.3459 59.3948L111.435 79.1578C111.622 78.4329 111.799 77.7124 111.966 76.9962L89.3598 57.0925L89.4551 56.8786C89.0315 57.7594 88.6305 58.6697 88.2522 59.6094Z" fill="#03A4FF"/>
<path id="Vector_23" d="M127.136 75.1238L127.177 75.3453C127.55 72.78 127.724 70.1957 127.695 67.6102L111.665 79.5703C111.076 81.8411 110.42 84.0259 109.697 86.1247L127.136 75.1238Z" fill="#03A4FF"/>
<path id="Vector_24" d="M104.366 97.972C101.806 102.388 98.8255 106.161 95.4519 109.247C99.305 107.678 114.794 100.835 122.308 89.5018L104.366 97.972Z" fill="#03A4FF"/>
<path id="Vector_25" d="M85.6479 70.3766C85.4956 72.8571 85.5357 75.3436 85.7678 77.8194L85.8855 77.5906L104.279 97.4103C105.684 94.9276 106.916 92.3743 107.968 89.7641L85.6479 70.3766Z" fill="#03A4FF"/>
<path id="Vector_26" d="M114.851 55.7457C115.271 47.5735 114.846 41.9143 114.84 41.8331L114.999 41.7681C111.038 40.0351 106.805 40.3109 102.79 42.2226L114.851 55.7457Z" fill="#03A4FF"/>
<path id="Vector_27" d="M108.378 89.6729C108.279 89.9205 108.18 90.1697 108.079 90.4145C107.113 92.7634 106 95.0651 104.745 97.3094L122.516 88.9195L122.54 89.1428C123.844 87.138 124.849 84.9985 125.53 82.7753C125.793 81.9007 126.032 81.0243 126.245 80.1459L108.378 89.6729Z" fill="#03A4FF"/>
<path id="Vector_28" d="M113.739 67.4468C114.299 63.4844 114.631 59.7191 114.818 56.3546L102.481 42.5211L102.588 42.3186C99.5744 43.7977 96.6895 46.2001 94.1413 49.366L113.739 67.4468Z" fill="#03A4FF"/>
<path id="Vector_29" d="M104.054 97.8036L85.7949 78.129C87.1825 92.9748 94.0985 108.551 94.5437 109.541C98.3966 106.197 101.521 102.165 104.054 97.8036Z" fill="#03A4FF"/>
<path id="Vector_30" d="M108.135 89.3151L108.152 89.3061C109.404 86.136 110.458 82.9098 111.309 79.6417L88.1628 59.83C87.6568 61.1051 87.196 62.4301 86.7805 63.805C86.2055 65.7761 85.8397 67.7884 85.6875 69.8169L108.135 89.3151Z" fill="#03A4FF"/>
<path id="Vector_31" d="M51.0359 59.1098L55.254 68.7361C58.4773 70.6974 62.0186 72.9833 65.6284 75.5447L60.3628 60.5301L60.5906 60.5814C57.1782 59.649 53.8711 59.1314 50.8132 59.0721L51.0359 59.1098Z" fill="#03A4FF"/>
<path id="Vector_32" d="M54.6878 68.3929L50.602 59.0681C47.1768 59.0254 44.0716 59.5646 41.4953 60.7548C41.3613 60.8168 41.2309 60.8813 41.101 60.9462C42.0382 61.3955 47.5185 64.0644 54.6878 68.3929Z" fill="#03A4FF"/>
<path id="Vector_33" d="M83.9702 73.0623L84.2086 73.1614C83.0045 72.156 81.7682 71.197 80.4997 70.2844L81.9217 89.0671L81.8107 89.0256C82.4654 89.6831 83.1001 90.3405 83.7149 90.9977L83.9702 73.0623Z" fill="#03A4FF"/>
<path id="Vector_34" d="M72.4944 65.382L72.731 65.4591C68.9968 63.4547 65.0012 61.8397 60.8277 60.648L66.1935 75.9487C69.5642 78.3628 72.6845 80.7968 75.5544 83.2506L72.4944 65.382Z" fill="#03A4FF"/>
<path id="Vector_35" d="M37.2878 80.5239C38.5374 83.0059 40.0738 85.3723 41.8737 87.5871L73.3017 81.7534C70.7628 79.6682 68.2314 77.7539 65.827 76.0366L37.4428 80.7089L37.2878 80.5239Z" fill="#03A4FF"/>
<path id="Vector_36" d="M44.0466 90.1139L43.8872 89.9305L75.5525 83.6468C74.9444 83.1224 74.3352 82.6076 73.725 82.1022L42.181 87.9575L42.0231 87.7734C42.6568 88.5543 43.3313 89.3345 44.0466 90.1139Z" fill="#03A4FF"/>
<path id="Vector_37" d="M80.0172 70.02L80.2552 70.1091C77.9494 68.4628 75.5178 66.953 72.9768 65.5898L76.0782 83.7002C77.9812 85.3458 79.7642 86.9945 81.4273 88.6462L80.0172 70.02Z" fill="#03A4FF"/>
<path id="Vector_38" d="M90.146 98.8819C93.0894 103.115 95.1794 107.312 96.3883 111.428C96.9175 107.774 98.5251 92.7982 91.477 81.2435L90.146 98.8819Z" fill="#03A4FF"/>
<path id="Vector_39" d="M53.1702 97.7799C55.5116 99.219 57.9619 100.521 60.5046 101.677L60.3442 101.468L89.551 98.6444C87.8782 96.289 86.0436 94.0224 84.0569 91.8569L53.1702 97.7799Z" fill="#03A4FF"/>
<path id="Vector_40" d="M54.5116 68.619C46.7535 63.9376 40.9983 61.218 40.9156 61.1792L40.937 61.0286C37.1237 62.9939 35.1272 66.2329 34.8455 70.1882L54.5116 68.619Z" fill="#03A4FF"/>
<path id="Vector_41" d="M84.1871 91.5089C84.3759 91.7139 84.5667 91.919 84.7516 92.124C86.529 94.087 88.1814 96.1322 89.7016 98.2505L91.02 80.7794L91.2509 80.8815C89.9904 78.8562 88.4383 76.9771 86.6315 75.2892C85.9181 74.6287 85.1895 73.9856 84.4455 73.3597L84.1871 91.5089Z" fill="#03A4FF"/>
<path id="Vector_42" d="M65.3463 75.6949C61.7754 73.1648 58.275 70.9069 55.0889 68.9688L34.9715 70.5739L34.8311 70.3873C34.6625 73.3802 35.4649 76.7733 37.1933 80.3292L65.3463 75.6949Z" fill="#03A4FF"/>
<path id="Vector_43" d="M89.8146 99.0195L60.8215 101.823C76.066 108.757 94.9833 112.044 96.189 112.249C94.9849 107.644 92.7188 103.204 89.8146 99.0195Z" fill="#03A4FF"/>
<path id="Vector_44" d="M83.7078 91.4945L83.708 91.4773C81.2817 88.8657 78.6945 86.3691 75.9576 83.9981L44.2143 90.2973C45.1889 91.3494 46.2365 92.3953 47.3572 93.4348C48.9748 94.9099 50.7446 96.2543 52.6446 97.4514L83.7078 91.4945Z" fill="#03A4FF"/>
<path id="Vector_45" d="M223 117.934C223 126.256 173.494 141 112.426 141C51.3575 141 1.85181 126.256 1.85181 117.934C1.85181 109.613 51.3575 110.865 112.426 110.865C173.494 110.865 223 109.613 223 117.934Z" fill="#3F3D56"/>
<path id="Vector_46" opacity="0.1" d="M223 117.934C223 126.256 173.494 141 112.426 141C51.3575 141 1.85181 126.256 1.85181 117.934C1.85181 109.613 51.3575 110.865 112.426 110.865C173.494 110.865 223 109.613 223 117.934Z" fill="black"/>
<path id="Vector_47" d="M112.426 133.001C173.494 133.001 223 126.255 223 117.934C223 109.613 173.494 102.867 112.426 102.867C51.3575 102.867 1.85181 109.613 1.85181 117.934C1.85181 126.255 51.3575 133.001 112.426 133.001Z" fill="#3F3D56"/>
<path id="Vector_48" opacity="0.1" d="M131.596 102.186C131.596 111.251 116.982 108.447 99.0882 108.447C81.1944 108.447 66.7972 111.251 66.7972 102.186C66.7972 93.1196 81.4095 91.1478 99.3033 91.1478C117.197 91.1478 131.596 93.1196 131.596 102.186Z" fill="black"/>
<path id="Vector_49" d="M131.596 99.9533C131.596 109.019 116.982 106.215 99.0882 106.215C81.1944 106.215 66.7972 109.019 66.7972 99.9533C66.7972 90.8874 81.4095 88.9156 99.3033 88.9156C117.197 88.9156 131.596 90.8874 131.596 99.9533Z" fill="#3F3D56"/>
<path id="Vector_50" d="M74.0326 75.0076C74.4262 74.7653 74.8606 74.577 75.3205 74.4491C78.2364 73.5109 81.2918 72.9358 84.3949 72.741C87.0931 72.5756 90.0175 72.7721 92.125 74.2384C92.4528 74.4464 92.721 74.7167 92.9091 75.0284C93.1742 75.5231 93.0939 76.0981 93.008 76.6383C92.9888 76.8479 92.9277 77.0529 92.8275 77.2444C92.5439 77.7113 91.8457 77.8749 91.2392 77.8189C90.6328 77.7629 90.0637 77.541 89.4655 77.4382C89.0953 77.3824 88.7209 77.3494 88.3452 77.3395L84.5935 77.1639C82.2606 77.0547 79.8969 76.9473 77.6085 77.3544C76.904 77.4639 76.2233 77.6667 75.5903 77.9557C75.0677 78.2095 74.7157 78.5736 74.2307 78.1049C73.3786 77.2815 72.907 75.7681 74.0326 75.0076Z" fill="#2F2E41"/>
<path id="Vector_51" d="M79.8462 76.4422C79.8462 76.4422 84.8924 74.4862 86.8065 76.7431C88.7206 79 85.7625 78.0972 85.7625 78.0972L82.4563 79L78.8022 78.3982L79.8462 76.4422Z" fill="#F2F2F2"/>
<path id="Vector_52" d="M80.1073 75.0128C80.1073 75.0128 80.8033 77.8715 80.2813 78.6239C79.7592 79.3762 83.2394 80.4294 83.2394 80.4294L86.5455 79.2257C86.5455 79.2257 85.6755 74.5614 86.5455 73.6586L80.1073 75.0128Z" fill="#FFB9B9"/>
<path id="Vector_53" opacity="0.1" d="M80.1073 75.0128C80.1073 75.0128 80.8033 77.8715 80.2813 78.6239C79.7592 79.3762 83.2394 80.4294 83.2394 80.4294L86.5455 79.2257C86.5455 79.2257 85.6755 74.5614 86.5455 73.6586L80.1073 75.0128Z" fill="black"/>
<path id="Vector_54" d="M76.8467 109.387C77.3145 110.226 77.6992 111.098 77.9965 111.993C78.0014 112.023 78.0135 112.051 78.0319 112.076C78.0503 112.102 78.0747 112.123 78.1034 112.14C78.1322 112.156 78.1647 112.167 78.1987 112.172C78.2328 112.177 78.2677 112.176 78.3011 112.168L81.3962 112.165C81.7782 112.165 82.2906 112.059 82.2866 111.729C82.2839 111.497 82.0095 111.352 81.8054 111.201C81.2388 110.783 81.0913 110.094 80.8566 109.483C80.4005 108.305 79.5216 107.284 78.3478 106.569C78.1891 106.462 78.0065 106.384 77.8114 106.34C77.6153 106.315 77.4154 106.325 77.2234 106.367C76.6801 106.462 74.6512 106.786 75.0344 107.47C75.1995 107.764 75.8111 108.07 76.0675 108.345C76.3663 108.67 76.6273 109.019 76.8467 109.387Z" fill="#575A89"/>
<path id="Vector_55" d="M87.6095 106.283C87.5004 106.482 87.3789 106.675 87.2457 106.862C86.7973 107.501 86.2681 108.098 85.8506 108.753C85.5691 109.153 85.3953 109.602 85.3421 110.069C85.3183 110.302 85.3595 110.536 85.4623 110.753C85.565 110.969 85.7264 111.161 85.9328 111.312C86.3821 111.607 86.9981 111.621 87.5565 111.552C88.1149 111.483 88.67 111.345 89.2325 111.381C89.0428 110.453 89.9478 109.637 90.1742 108.715C90.2378 108.456 90.2472 108.188 90.3324 107.934C90.4241 107.701 90.5414 107.477 90.6827 107.264C91.1334 106.505 91.4519 105.693 91.6279 104.853C91.6492 104.751 88.8767 104.735 88.6166 104.783C87.805 104.935 87.9237 105.702 87.6095 106.283Z" fill="#575A89"/>
<path id="Vector_56" d="M66.2397 91.7062C65.4482 92.7773 65.6306 94.1966 66.1865 95.3732C66.7424 96.5499 67.6272 97.59 68.2327 98.7482C68.6188 99.4865 68.8895 100.269 69.3242 100.987C69.8626 101.876 70.6485 102.66 71.0098 103.613C71.24 104.221 71.2929 104.887 71.6659 105.44C71.8914 105.735 72.1487 106.011 72.4344 106.264C73.2378 107.06 73.8411 107.992 74.2057 109C74.5467 108.122 75.5675 107.546 76.616 107.356C77.6646 107.166 78.751 107.295 79.8117 107.425C79.22 106.632 78.6226 105.829 78.2698 104.937C77.9287 104.073 77.8281 103.155 77.5983 102.264C77.1271 100.438 76.1204 98.7535 75.1239 97.0926L80.2461 96.7413C81.0821 96.6686 81.9227 96.6417 82.7627 96.6606C84.0848 96.7145 85.38 96.9947 86.695 97.1242C88.0101 97.2538 89.4013 97.2199 90.5732 96.688C88.3322 99.4683 87.1652 102.79 87.2388 106.178C87.7397 105.843 88.321 105.608 88.9402 105.492C89.5594 105.376 90.2008 105.381 90.8175 105.507C91.4342 105.633 92.0105 105.876 92.5043 106.219C92.9981 106.563 93.3968 106.997 93.6714 107.491C95.6787 105.119 95.4401 101.817 97.0307 99.2195C97.3577 98.6854 97.7586 98.1879 98.1116 97.6662C98.7786 96.6186 99.3496 95.5274 99.8195 94.4027C100.264 93.4187 100.713 92.3238 100.286 91.3337C100.109 90.9581 99.8507 90.615 99.5255 90.3226C98.6077 89.4477 97.3303 88.8005 95.9647 88.7736C93.8682 88.7322 92.1364 90.0759 90.2974 90.9472C88.102 91.9562 85.6187 92.4015 83.1404 92.2306C80.6143 92.076 78.2017 91.361 75.7951 90.7313C74.5911 90.4017 73.3674 90.1287 72.1293 89.9136C71.0972 89.7462 70.1143 89.9316 69.0972 90.1598C67.9899 90.4083 66.877 90.8439 66.2397 91.7062Z" fill="#2F2E41"/>
<path id="Vector_57" d="M88.1115 72.154C88.1104 73.3509 87.5601 74.4984 86.5813 75.3447C85.6026 76.191 84.2755 76.6669 82.8913 76.6679C82.5803 76.6683 82.2698 76.6442 81.9639 76.5957C80.9869 76.4431 80.0806 76.0528 79.3511 75.4706C78.6216 74.8884 78.0992 74.1384 77.8453 73.3085C77.5913 72.4787 77.6163 71.6034 77.9173 70.7854C78.2182 69.9674 78.7827 69.2406 79.5446 68.6901C80.3064 68.1397 81.2339 67.7886 82.2184 67.6779C83.2028 67.5672 84.2034 67.7015 85.1026 68.0651C86.0019 68.4287 86.7627 69.0065 87.2956 69.7308C87.8285 70.455 88.1116 71.2956 88.1115 72.154Z" fill="#FFB9B9"/>
<path id="Vector_58" d="M79.8463 76.4422C79.8463 76.4422 80.8033 76.8183 81.1513 77.1193C81.4993 77.4202 82.5433 79.0752 84.2834 78.022C86.0235 76.9688 86.1975 76.3669 86.7195 76.3669C87.2415 76.3669 87.9376 77.2697 87.9376 77.2697L92.7227 89.6828C91.4331 90.9415 89.9383 92.0313 88.2856 92.9177C85.5015 94.4223 82.1953 95.1746 80.6293 94.5728C79.0632 93.9709 76.1051 93.5195 75.5831 92.3158C75.0611 91.1121 74.191 87.5011 74.191 87.5011L76.6271 78.3229L79.8463 76.4422Z" fill="#F2F2F2"/>
<path id="Vector_59" d="M79.1744 88.9964C79.5537 88.2878 79.6089 87.4858 79.641 86.7055C79.6921 85.9327 79.6684 85.1575 79.5702 84.3881C79.416 83.3816 79.0369 82.412 78.7976 81.418C78.5877 80.5463 78.4857 79.6577 78.4932 78.7673C78.4967 78.361 78.5308 77.9333 78.7868 77.5926C78.9654 77.355 79.2448 77.1709 79.3564 76.9044C79.5753 76.3818 79.0345 75.8347 78.4419 75.6195C77.7201 75.3854 76.9305 75.358 76.1894 75.5413C75.4542 75.725 74.7439 75.9762 74.0706 76.2908C73.5615 76.4785 73.0933 76.7402 72.6862 77.0646C72.1461 77.5479 71.9086 78.221 71.7168 78.8723C71.5633 79.3936 71.4269 79.9372 71.5437 80.4656C71.7333 81.3236 72.5422 81.9689 72.9735 82.7589C73.4742 83.6762 73.4405 84.7452 73.2413 85.7449C73.0421 86.7445 72.6886 87.7219 72.5796 88.7319C72.4705 89.7419 72.6379 90.8276 73.3697 91.6204C73.6679 91.9435 74.4769 92.7091 75.0228 92.6225C75.4517 92.5545 76.0735 91.7381 76.4189 91.4793C77.417 90.7318 78.6012 90.0668 79.1744 88.9964Z" fill="#2F2E41"/>
<path id="Vector_60" d="M88.2911 75.9515C88.3063 76.7906 87.8785 77.5883 87.3754 78.306C86.8723 79.0237 86.2814 79.7026 85.9106 80.4782C85.4499 81.4491 85.3559 82.5211 85.6419 83.541C85.7482 83.8885 85.8764 84.2306 86.0258 84.5659L86.9792 86.8272C87.1074 87.1827 87.2936 87.5207 87.532 87.8308C87.7476 88.0684 88.0005 88.2788 88.2834 88.4558C89.0075 88.9615 89.8409 89.3374 90.7348 89.5617C91.635 89.7843 92.5958 89.7369 93.4608 89.4272C93.5527 86.3618 94.1223 83.3211 95.1541 80.3873C95.3447 79.8457 95.553 79.2755 95.406 78.7238C95.2413 78.1059 94.6673 77.642 94.1217 77.2183C92.453 75.9226 90.618 74.5616 88.3844 74.3869C87.0917 74.2858 88.2801 75.3448 88.2911 75.9515Z" fill="#2F2E41"/>
<path id="Vector_61" d="M76.872 93.4447C77.0043 93.6687 77.0867 93.9127 77.2176 94.1374C77.4107 94.4386 77.6495 94.7163 77.9276 94.9629C79.091 96.0784 80.5132 97.1897 82.2487 97.257C82.4211 97.2709 82.5949 97.252 82.758 97.2015C82.9047 97.1366 83.0308 97.0415 83.1253 96.9247C83.2198 96.8079 83.2798 96.6729 83.3 96.5314C83.423 95.9487 83.1256 95.3673 82.8277 94.8339C82.1822 93.6779 81.4559 92.4925 80.2473 91.7469C79.6438 91.3893 78.9544 91.1546 78.2309 91.0605C77.5075 90.9664 76.7687 91.0153 76.0703 91.2035C75.4407 91.3712 74.3968 91.664 75.2303 92.1607C75.8626 92.5374 76.5054 92.8243 76.872 93.4447Z" fill="#FFB9B9"/>
<path id="Vector_62" d="M84.3741 78.7264C84.1929 78.3034 83.9152 77.9162 83.5574 77.5879C83.1966 77.3242 82.7694 77.137 82.31 77.0415C81.7148 76.8944 81.0992 76.8182 80.4802 76.8147C79.7432 76.8107 78.8887 76.9817 78.5758 77.5586C78.3273 78.0167 78.5199 78.5592 78.7701 79.0166C78.877 79.2536 79.0551 79.4616 79.286 79.6192C79.6038 79.8049 80.0148 79.799 80.3915 79.8612C80.9757 79.9894 81.5289 80.2062 82.0255 80.5014L83.3163 81.176L85.5333 82.3348C85.4749 82.3043 85.4957 80.9897 85.4276 80.7742C85.2082 80.0802 84.7144 79.3837 84.3741 78.7264Z" fill="#FFB9B9"/>
<path id="Vector_63" d="M77.9159 111.652C77.3971 112.262 77.5011 113.133 77.0416 113.778C76.6433 114.336 75.8926 114.629 75.3944 115.123C75.2354 115.288 75.0937 115.464 74.9709 115.65C74.5087 116.32 74.133 117.178 74.5882 117.85C74.9544 118.392 75.724 118.603 76.4299 118.748C77.3221 118.93 78.2491 119.076 79.1516 118.937C80.054 118.797 80.936 118.319 81.2578 117.577C81.3211 117.39 81.3963 117.207 81.483 117.028C81.9722 116.195 83.5065 116.186 84.0071 115.358C84.3574 114.779 84.0354 114.079 83.7135 113.488L82.7303 111.682C82.404 111.082 81.0813 111.427 80.3918 111.283C79.4925 111.096 78.5628 110.89 77.9159 111.652Z" fill="#2F2E41"/>
<path id="Vector_64" d="M85.5206 110.101C85.118 110.375 84.8103 110.74 84.6311 111.155C84.1445 112.125 83.9774 113.189 83.8151 114.238C83.7226 114.655 83.7131 115.083 83.787 115.503C83.9967 116.359 84.8941 116.99 85.8601 117.252C86.8261 117.513 87.8622 117.473 88.8733 117.43C89.1995 117.437 89.5233 117.381 89.8204 117.264C90.3286 117.022 90.5271 116.452 90.44 115.956C90.3529 115.46 90.0395 115.019 89.7327 114.593C89.4259 114.167 89.1122 113.726 89.0243 113.23C88.8765 112.395 89.2936 111.171 88.7008 110.416C88.1068 109.659 86.3134 109.62 85.5206 110.101Z" fill="#2F2E41"/>
<path id="Vector_65" d="M87.9802 69.8017C87.8874 69.5317 87.6828 69.3008 87.4056 69.153C87.4199 68.8639 87.3789 68.5746 87.2842 68.297C86.9681 67.4889 86.2192 67.5352 85.5126 67.1779C85.206 67.0229 85.2249 66.8859 85.0653 66.6313C84.8562 66.2975 84.543 66.0212 84.1613 65.8337C83.7079 65.5839 83.2294 65.3267 82.6931 65.2951C81.5661 65.2287 80.702 66.1453 79.6248 66.4395C79.15 66.5691 78.6398 66.5745 78.1625 66.6971C77.6852 66.8196 77.209 67.1123 77.1378 67.5385C77.105 67.7352 77.1629 67.937 77.1296 68.1337C77.0634 68.5246 76.6668 68.7983 76.4013 69.1199C75.8142 69.8308 75.8813 70.8352 76.3509 71.6088C76.4498 71.7689 76.563 71.9221 76.6894 72.0669C76.7286 72.4326 76.85 72.7881 77.0469 73.1134C77.5164 73.887 78.3243 74.4651 79.1683 74.9453C79.0992 74.6888 79.0573 74.4273 79.0431 74.1642C79.0312 74.0765 79.0444 73.9876 79.0816 73.9053C79.1755 73.7355 79.4239 73.6903 79.6133 73.5972C80.0055 73.4045 80.1593 72.978 80.1706 72.588C80.182 72.1981 80.0864 71.8075 80.1337 71.4196C80.1355 71.3303 80.1589 71.2425 80.2025 71.1616C80.246 71.0807 80.3087 71.0086 80.3864 70.9499C80.5312 70.8785 80.6965 70.8444 80.863 70.8516C81.6666 70.8233 82.5062 70.8105 83.2151 70.4819C83.4437 70.3506 83.6894 70.2432 83.9472 70.1617C84.5496 70.0259 85.1653 70.391 85.5124 70.8378C85.8596 71.2846 86.0327 71.8164 86.353 72.2779C86.6733 72.7395 87.2267 73.1512 87.846 73.0965C87.8809 73.0965 87.9154 73.0902 87.9473 73.078C87.9791 73.0657 88.0077 73.0478 88.031 73.0253C88.0577 72.9839 88.0695 72.9364 88.065 72.8891L88.0996 70.8421C88.1284 70.4919 88.088 70.1401 87.9802 69.8017Z" fill="#2F2E41"/>
<path id="Vector_66" d="M71.4599 80.5093C70.9618 81.1446 70.3875 81.7555 70.1138 82.4857C69.9529 82.9148 69.9029 83.3685 69.7864 83.8083C69.3984 85.273 68.2774 86.574 68.1647 88.0735C68.1252 88.4067 68.1818 88.7432 68.3294 89.0529C68.651 89.6577 69.4206 89.9765 70.1547 90.177C70.8888 90.3775 71.6772 90.522 72.2632 90.9538C72.5582 91.1983 72.8257 91.4664 73.0621 91.7547C74.0181 92.7828 75.3043 93.5437 76.7589 93.9417C76.644 93.2571 76.5901 92.4319 77.223 92.0087C77.5656 91.7796 78.0234 91.7389 78.4549 91.7066L80.4937 91.5543C79.1341 90.414 77.6356 89.4046 76.0243 88.5437C75.4606 88.2426 74.847 87.925 74.5896 87.397C74.4566 87.0567 74.4014 86.6974 74.427 86.339C74.413 85.0278 74.2846 83.7195 74.0429 82.4251C73.8751 81.5263 73.6529 80.6355 73.3987 79.752C73.3273 79.504 72.9056 78.3915 72.3865 78.6518C72.2642 78.7131 72.1498 79.4189 72.0784 79.5653C71.9084 79.8967 71.7013 80.2129 71.4599 80.5093Z" fill="#2F2E41"/>
<path id="Vector_67" d="M94.9422 78.1082L95.7748 79.6055C96.1759 80.2211 96.3584 80.9253 96.2997 81.6301L96.3491 86.1214C96.3875 86.7215 96.33 87.3233 96.1783 87.9099C96.1264 88.1031 96.0286 88.285 95.8912 88.4439C95.7499 88.5808 95.5836 88.6967 95.3987 88.7869C93.823 89.6382 91.7797 90.1221 90.1149 89.4087C89.7336 89.2329 89.3711 89.0283 89.0316 88.7972C88.3681 88.3723 87.6948 87.9392 87.1984 87.3687C86.6789 86.7716 86.3812 86.0567 86.0317 85.3734C85.4044 84.1476 84.5939 82.9982 83.621 81.9546C83.4598 81.8166 83.355 81.637 83.3225 81.4429C83.3122 81.0492 83.8524 80.8554 84.2736 80.7056C84.9931 80.4498 85.6716 79.956 85.792 79.2914C87.3221 81.0264 89.0106 82.8595 91.425 83.4935C91.4629 83.5144 91.5066 83.5261 91.5515 83.5273C91.5964 83.5285 91.6409 83.5191 91.6801 83.5003C91.7194 83.4814 91.7521 83.4537 91.7746 83.4201C91.7972 83.3865 91.8088 83.3482 91.8082 83.3094C91.9453 82.8135 91.9937 82.3029 92.094 81.8005C92.2779 80.8857 92.632 80.0027 93.1425 79.1858C93.4285 78.7278 94.3545 77.0514 94.9422 78.1082Z" fill="#2F2E41"/>
<path id="Vector_68" opacity="0.1" d="M74.2813 82.438C74.3043 83.5009 74.0432 84.554 73.5183 85.5153C73.3818 85.7278 73.2811 85.956 73.2195 86.1932C73.1282 86.699 73.4611 87.1887 73.8417 87.581C74.5923 88.3524 75.5659 88.9381 76.6634 89.2784" fill="black"/>
<path id="Vector_69" opacity="0.1" d="M92.3609 81.5422C92.2383 81.8275 92.3497 82.143 92.4442 82.4361C92.7182 83.2864 92.8461 84.167 92.8238 85.0495C92.8278 85.0649 92.8273 85.081 92.8223 85.0962C92.8173 85.1114 92.8079 85.1253 92.7952 85.1366C92.7824 85.1479 92.7666 85.1563 92.7491 85.161C92.7317 85.1657 92.7131 85.1665 92.6952 85.1635C92.2935 85.1848 91.8337 85.187 91.5612 84.931" fill="black"/>
<path id="Vector_70" opacity="0.1" d="M160.614 124.073C175.584 124.073 187.72 121.824 187.72 119.05C187.72 116.276 175.584 114.028 160.614 114.028C145.644 114.028 133.508 116.276 133.508 119.05C133.508 121.824 145.644 124.073 160.614 124.073Z" fill="black"/>
<path id="Vector_71" d="M174.167 74.2204L172.231 75.8945L174.167 77.5687L176.103 74.2204H174.167Z" fill="#A0616A"/>
<path id="Vector_72" d="M174.603 59.7037C175.146 59.896 175.404 60.4216 175.609 60.8973L178.121 66.7329L178.61 67.8688C178.849 68.4258 179.089 68.9832 179.292 69.5511C179.42 69.9104 179.533 70.2733 179.632 70.6399C179.733 70.9536 179.773 71.28 179.747 71.6051C179.679 71.9628 179.529 72.3049 179.303 72.6107C178.43 73.9266 177.185 75.0302 175.686 75.8189C175.6 75.3364 175.375 74.8803 175.032 74.4924C174.689 74.1045 174.239 73.7972 173.723 73.5986L175.021 72.981C175.296 72.8695 175.543 72.713 175.749 72.5201C175.875 72.3697 175.964 72.1988 176.012 72.0178C176.06 71.8368 176.065 71.6494 176.027 71.4666C175.949 71.102 175.82 70.7471 175.642 70.4098C175.206 69.4694 174.828 68.5099 174.509 67.5351C174.32 66.9585 174.147 66.3659 173.773 65.8614C173.434 65.4037 172.943 65.0376 172.635 64.5638C172.165 63.8417 172.177 62.9526 172.385 62.1438C172.56 61.4609 172.853 60.8037 173.1 60.1389C173.294 59.6166 174.021 59.4978 174.603 59.7037Z" fill="#D0CDE1"/>
<path id="Vector_73" d="M162.628 44.1125C161.63 44.4041 160.725 45.0862 160.52 45.9804C160.426 46.3948 160.484 46.8257 160.404 47.2425C160.219 48.2092 159.341 48.9475 158.532 49.6333C157.722 50.319 156.887 51.1159 156.827 52.0944C156.763 53.1659 157.661 54.1697 157.506 55.2342C157.325 56.471 155.815 57.2724 155.441 58.4764C155.192 59.2804 155.497 60.1464 156 60.8563C156.958 62.209 158.596 63.1274 160.339 63.6197C162.083 64.112 163.941 64.2156 165.775 64.2322C168.008 64.2524 170.433 64.0866 172.112 62.812C173.07 62.0774 173.672 61.0566 173.797 59.9543C173.956 58.4779 173.244 56.9523 173.735 55.5316C174.045 54.6375 174.82 53.821 174.705 52.8931C174.591 51.9859 173.675 51.3429 173.046 50.6099C172.459 49.9257 172.103 49.1175 171.754 48.3208L170.56 45.5948C170.325 45.059 170.067 44.4954 169.544 44.1437C168.565 43.4852 166.989 43.6146 165.844 43.7504C164.781 43.8764 163.65 43.8141 162.628 44.1125Z" fill="#2F2E41"/>
<path id="Vector_74" d="M163.552 53.0962C163.552 53.0962 163.669 56.1287 163.318 56.4319C162.968 56.7352 164.721 58.7568 164.721 58.7568L167.878 58.6558L169.514 57.5438L168.111 55.9265C168.111 55.9265 167.527 53.2983 167.994 52.6918C168.462 52.0853 163.552 53.0962 163.552 53.0962Z" fill="#A0616A"/>
<path id="Vector_75" opacity="0.1" d="M163.552 53.0962C163.552 53.0962 163.669 56.1287 163.318 56.4319C162.968 56.7352 164.721 58.7568 164.721 58.7568L167.878 58.6558L169.514 57.5438L168.111 55.9265C168.111 55.9265 167.527 53.2983 167.994 52.6918C168.462 52.0853 163.552 53.0962 163.552 53.0962Z" fill="black"/>
<path id="Vector_76" d="M156.246 76.497L158.233 80.3382L159.753 78.7208L156.713 75.284L156.246 76.497Z" fill="#A0616A"/>
<path id="Vector_77" d="M150.927 114.959L150.108 118.902L148.706 120.62L149.524 121.024L150.927 120.822L152.563 120.317L153.265 117.992L154.551 114.959H150.927Z" fill="#A0616A"/>
<path id="Vector_78" d="M165.89 112.533L165.423 118.194L166.591 119.003L168.462 117.587V113.443L165.89 112.533Z" fill="#A0616A"/>
<path id="Vector_79" d="M165.481 54.2587C167.805 54.2587 169.689 52.6294 169.689 50.6197C169.689 48.6099 167.805 46.9807 165.481 46.9807C163.157 46.9807 161.273 48.6099 161.273 50.6197C161.273 52.6294 163.157 54.2587 165.481 54.2587Z" fill="#A0616A"/>
<path id="Vector_80" d="M168.728 55.5141C168.602 55.4616 168.465 55.4333 168.325 55.4309C168.185 55.4286 168.046 55.4524 167.918 55.5006C167.662 55.5984 167.414 55.7101 167.176 55.8351C166.561 56.1114 165.865 56.2209 165.178 56.1493C165.097 56.144 165.018 56.1264 164.944 56.0973C164.866 56.0553 164.794 56.0051 164.73 55.948C164.481 55.7729 164.163 55.6883 163.843 55.7122C163.523 55.736 163.226 55.8664 163.015 56.0758C162.892 56.2089 162.807 56.3679 162.672 56.4927C162.323 56.8157 161.746 56.8288 161.235 56.828C160.174 56.8024 159.114 56.8864 158.077 57.0782C157.035 57.2727 156.075 57.7124 155.304 58.3488C155.094 58.5199 154.926 58.7266 154.811 58.9561C154.67 59.2706 154.689 59.6239 154.562 59.9429C154.421 60.2982 154.108 60.5897 153.982 60.9491C153.886 61.2198 153.9 61.5211 153.74 61.7682C154.423 62.2795 155.002 62.9613 155.685 63.4726C156.137 63.8112 156.611 64.1774 156.781 64.6734C156.858 64.9791 156.892 65.2917 156.882 65.6045C156.967 67.0997 157.905 68.4561 158.953 69.6472C159.241 70.0004 159.585 70.3166 159.975 70.5861C160.505 70.8982 161.107 71.1072 161.74 71.1987C162.934 71.41 164.163 71.4089 165.382 71.3984C166.642 71.3875 167.924 71.3645 169.121 71.026C169.731 70.8789 170.279 70.5845 170.702 70.1774C171.194 69.6543 171.387 68.8976 172.059 68.5549C172.221 68.4905 172.375 68.4109 172.518 68.3176C172.655 68.1892 172.752 68.0329 172.8 67.8632C173.035 67.2283 173.164 66.5678 173.184 65.9014C173.167 65.5015 173.199 65.1011 173.278 64.7069C173.394 64.3595 173.564 64.027 173.782 63.7184L175.174 61.5346C175.287 61.3571 175.258 61.096 175.268 60.8935C175.258 60.6015 175.154 60.3177 174.969 60.0736C174.065 58.6933 172.647 57.6194 170.945 57.0279C170.811 56.9885 170.683 56.9344 170.565 56.8669C170.425 56.7657 170.308 56.6442 170.217 56.508C169.847 56.0265 169.396 55.4841 168.728 55.5141Z" fill="#D0CDE1"/>
<path id="Vector_81" d="M151.373 67.4073C151.099 67.9846 150.897 68.5858 150.772 69.2006C150.637 70.05 150.796 70.9147 151.227 71.6866C151.978 73.0223 153.455 73.9282 154.498 75.1081C155.467 76.2044 156.044 77.5184 156.882 78.692C156.736 78.3932 156.914 78.0474 157.153 77.7976C157.393 77.5478 157.699 77.3406 157.874 77.0539C157.994 76.8318 158.069 76.5939 158.097 76.3501C158.222 75.6224 158.289 74.8317 157.86 74.1963C157.537 73.7181 156.979 73.4004 156.538 72.9994C156.096 72.5913 155.771 72.0992 155.59 71.5628C155.408 71.0263 155.375 70.4605 155.493 69.9109C155.578 69.5326 155.734 69.1694 155.852 68.7975C155.997 68.2978 156.106 67.7909 156.18 67.2796L156.707 64.1531C156.847 63.3216 156.965 62.4013 156.42 61.7054C156.314 61.5597 156.167 61.4395 155.993 61.3558C155.849 61.2988 155.696 61.2615 155.538 61.2451C154.966 61.1641 154.189 60.9472 153.91 61.478C153.572 62.1187 153.337 62.8171 153.054 63.4777L151.373 67.4073Z" fill="#D0CDE1"/>
<path id="Vector_82" d="M171.437 69.1179C171.437 69.1179 164.487 70.2804 162.851 70.2804H159.928C159.928 70.2804 158.876 71.8977 158.876 73.5151C158.876 75.1324 151.979 97.7751 151.979 97.7751C151.979 97.7751 145.432 116.374 152.68 116.476C159.928 116.577 164.487 116.88 164.604 114.757C164.721 112.634 165.423 85.2408 165.423 85.2408L166.514 99.3265C166.807 102.814 166.494 106.319 165.585 109.726C165.061 111.636 165.143 113.729 167.761 114.151C172.787 114.959 179.1 114.252 179.1 112.735C179.1 111.219 175.827 77.5584 175.827 77.5584C175.827 77.5584 174.19 72.6053 173.255 72.201C172.32 71.7966 171.437 69.1179 171.437 69.1179Z" fill="#2F2E41"/>
<path id="Vector_83" d="M149.641 120.418L152.213 119.609L153.966 115.768L155.837 115.566C155.837 115.566 154.784 117.486 154.2 117.79C153.615 118.093 152.68 120.62 152.68 120.62C152.68 120.62 153.148 121.631 150.927 122.035C148.706 122.439 147.069 122.743 147.069 122.743C147.069 122.743 146.835 122.338 147.887 121.328C148.939 120.317 150.168 118.615 150.168 118.615L149.641 120.418Z" fill="#2F2E41"/>
<path id="Vector_84" d="M165.423 115.768L164.955 118.8C164.955 118.8 166.241 120.418 166.592 120.418C166.942 120.418 168.813 119.003 168.813 119.003C168.813 119.003 168.696 117.486 168.813 117.082C168.93 116.678 169.163 114.757 168.813 114.656C168.462 114.555 168.462 116.909 168.462 116.909L166.942 118.295L165.477 117.535L165.423 115.768Z" fill="#2F2E41"/>
<path id="Vector_85" d="M165.832 50.6197C168.35 50.6197 170.391 49.6693 170.391 48.4969C170.391 47.3245 168.35 46.3741 165.832 46.3741C163.314 46.3741 161.273 47.3245 161.273 48.4969C161.273 49.6693 163.314 50.6197 165.832 50.6197Z" fill="#2F2E41"/>
<path id="Vector_86" d="M0 90.1543C0 102.062 8.63949 111.698 19.3162 111.698L0 90.1543Z" fill="#3F3D56"/>
<path id="Vector_87" d="M19.3162 111.698C19.3162 99.6563 28.9574 89.9122 40.872 89.9122L19.3162 111.698Z" fill="#03A4FF"/>
<path id="Vector_88" d="M6.99863 91.2338C6.99863 102.545 12.5079 111.698 19.3162 111.698L6.99863 91.2338Z" fill="#03A4FF"/>
<path id="Vector_89" d="M19.3162 111.698C19.3162 96.3113 30.4599 83.8606 44.2313 83.8606L19.3162 111.698Z" fill="#3F3D56"/>
<path id="Vector_90" d="M15.2526 111.85C15.2526 111.85 17.992 111.777 18.8175 111.269C19.6431 110.76 23.0314 110.153 23.2362 110.969C23.441 111.784 27.3529 115.023 24.2602 115.045C21.1675 115.066 17.0741 114.628 16.2501 114.194C15.4261 113.76 15.2526 111.85 15.2526 111.85Z" fill="#A8A8A8"/>
<path id="Vector_91" opacity="0.2" d="M24.3154 114.761C21.2226 114.783 17.1293 114.345 16.3053 113.911C15.6778 113.58 15.4277 112.394 15.344 111.847C15.2861 111.849 15.2526 111.85 15.2526 111.85C15.2526 111.85 15.4261 113.76 16.2501 114.194C17.0741 114.628 21.1675 115.067 24.2602 115.045C25.1529 115.039 25.4613 114.764 25.4444 114.357C25.3203 114.603 24.9799 114.757 24.3154 114.761Z" fill="black"/>
</g>
<defs>
<clipPath id="clip0_1_1341">
<rect width="223" height="141" fill="white"/>
</clipPath>
</defs>
</svg>
