<svg width="213" height="140" viewBox="0 0 213 140" fill="none" xmlns="http://www.w3.org/2000/svg">
<g id="GOAL 1" clip-path="url(#clip0_1_1070)">
<path id="Vector" d="M0.0725171 12.125C0.764897 17.6644 5.62087 22.0506 6.77297 27.5217C6.91738 28.2389 7.00572 28.9652 7.03727 29.6946C7.20292 32.8367 6.54218 36.0436 6.88278 39.191C7.51747 45.0931 11.3274 49.7054 16.1648 53.7027C19.824 56.7186 24.0713 59.3717 27.978 61.939C37.9245 68.4807 47.253 76.7398 51.3384 87.4961C54.0614 94.6687 54.2699 102.463 56.2689 109.845C58.2678 117.226 62.8204 124.779 70.5148 127.132C78.7731 129.659 87.8727 125.446 96.3711 127.111C105.491 128.899 111.959 137.014 120.958 139.306C132.392 142.219 143.786 135.062 155.523 133.57C161.159 132.854 166.895 133.462 172.561 133.003C178.868 132.486 184.975 130.66 190.442 127.654C192.303 126.626 194.185 125.362 195.05 123.494C195.795 121.88 195.681 120.04 195.452 118.293C194.596 111.809 192.43 104.761 195.837 99.062C198.981 93.8048 206.599 90.0441 205.469 84.1087C204.79 80.5356 201.06 78.3047 197.602 76.7048C190.47 73.405 182.872 70.8219 176.497 66.3656C171.937 63.1727 168.01 58.7181 166.335 53.7079C165.648 51.7048 165.365 49.5984 165.501 47.4974C165.736 44.1853 166.953 40.4667 164.831 37.8153C163.912 36.6657 162.503 35.9595 161.086 35.4198C155.745 33.387 149.811 33.2696 144.257 31.8256C142.353 31.3361 140.523 30.6201 138.811 29.6946C135.424 27.8476 132.697 25.1261 132.038 21.574C131.653 19.4921 131.995 17.2192 130.891 15.3792C129.03 12.2599 125.351 10.9561 121.241 10.5321C116.154 10.0063 110.394 10.8282 106.537 11.233L106.152 11.2716C101.199 11.757 96.2873 10.7248 91.4611 9.16868C86.2497 7.50214 81.1555 5.23452 76.199 3.6223C75.7337 3.47043 75.2696 3.32498 74.8068 3.18595C71.1886 2.1004 67.4842 1.28879 63.7287 0.758865C58.4324 0.00827232 53.064 -0.186854 47.7221 0.177065C45.0128 0.360858 42.3171 0.690853 39.648 1.16542C38.8638 1.30562 38.0808 1.45574 37.2991 1.61579C32.754 2.5323 28.233 3.65209 23.5967 3.71868C23.2635 3.71868 22.9285 3.71868 22.5953 3.71868C17.0656 3.62931 11.4112 2.30624 6.16435 3.90444C3.77824 4.63519 1.49078 6.07217 0.530381 8.25217C-0.00379376 9.46659 -0.0894105 10.8212 0.0725171 12.125Z" fill="#03A4FF"/>
<path id="Vector_2" opacity="0.2" d="M7.03734 29.6946H11.8151C11.8864 28.5315 12.3183 27.4136 13.0573 26.4792C13.7963 25.5448 14.8101 24.8349 15.9731 24.4373C15.1049 23.9873 14.4203 23.2781 14.0271 22.4216C13.6339 21.565 13.5545 20.6096 13.8012 19.7058C14.048 18.8021 14.607 18.0012 15.3902 17.4294C16.1734 16.8576 17.1364 16.5472 18.1275 16.5472C19.1186 16.5472 20.0816 16.8576 20.8648 17.4294C21.648 18.0012 22.207 18.8021 22.4538 19.7058C22.7006 20.6096 22.6211 21.565 22.2279 22.4216C21.8347 23.2781 21.1501 23.9873 20.2819 24.4373C21.445 24.8349 22.4587 25.5448 23.1977 26.4792C23.9368 27.4136 24.3686 28.5315 24.4399 29.6946H24.4809C24.586 28.5635 25.0321 27.4843 25.7668 26.5839C26.5014 25.6836 27.494 24.9996 28.6277 24.6126C27.9679 24.2706 27.4106 23.777 27.0077 23.1779C26.6048 22.5787 26.3694 21.8933 26.3233 21.1855C26.2772 20.4776 26.422 19.7703 26.7441 19.1293C27.0663 18.4883 27.5554 17.9344 28.1659 17.5191C28.7764 17.1038 29.4886 16.8405 30.2361 16.7539C30.9837 16.6672 31.7424 16.76 32.4417 17.0235C33.1409 17.287 33.7581 17.7127 34.2357 18.261C34.7134 18.8093 35.036 19.4625 35.1737 20.1597C35.721 19.7391 36.3395 19.408 37.0033 19.1801C36.135 18.73 35.4504 18.0209 35.0572 17.1643C34.664 16.3077 34.5846 15.3524 34.8313 14.4486C35.0781 13.5448 35.6371 12.744 36.4203 12.1722C37.2036 11.6003 38.1665 11.29 39.1576 11.29C40.1487 11.29 41.1117 11.6003 41.8949 12.1722C42.6782 12.744 43.2372 13.5448 43.4839 14.4486C43.7307 15.3524 43.6512 16.3077 43.258 17.1643C42.8648 18.0209 42.1802 18.73 41.312 19.1801C42.5356 19.5974 43.5927 20.3597 44.3395 21.3632C45.0862 22.3667 45.4862 23.5625 45.4849 24.7878V29.6946H47.5323V25.8393C47.531 24.614 47.931 23.4182 48.6777 22.4147C49.4245 21.4112 50.4816 20.6489 51.7052 20.2315C50.8369 19.7815 50.1524 19.0724 49.7592 18.2158C49.366 17.3592 49.2865 16.4038 49.5333 15.5C49.78 14.5963 50.339 13.7954 51.1223 13.2236C51.9055 12.6518 52.8684 12.3415 53.8595 12.3415C54.8507 12.3415 55.8136 12.6518 56.5969 13.2236C57.3801 13.7954 57.9391 14.5963 58.1858 15.5C58.4326 16.4038 58.3531 17.3592 57.96 18.2158C57.5668 19.0724 56.8822 19.7815 56.0139 20.2315C56.823 20.509 57.5637 20.9386 58.1908 21.4941C58.818 22.0497 59.3185 22.7195 59.662 23.463C60.4107 22.461 61.4685 21.6999 62.6921 21.283C61.8238 20.8329 61.1392 20.1238 60.746 19.2672C60.3528 18.4106 60.2734 17.4553 60.5201 16.5515C60.7669 15.6477 61.3259 14.8469 62.1091 14.2751C62.8924 13.7032 63.8553 13.3929 64.8464 13.3929C65.8375 13.3929 66.8005 13.7032 67.5837 14.2751C68.367 14.8469 68.926 15.6477 69.1727 16.5515C69.4195 17.4553 69.34 18.4106 68.9468 19.2672C68.5536 20.1238 67.869 20.8329 67.0008 21.283C68.35 21.7451 69.4929 22.6242 70.2431 23.7767V23.0354C70.2418 21.8101 70.6418 20.6143 71.3885 19.6108C72.1353 18.6073 73.1924 17.845 74.416 17.4277C73.5478 16.9776 72.8632 16.2685 72.47 15.4119C72.0768 14.5553 71.9973 13.6 72.2441 12.6962C72.4909 11.7924 73.0499 10.9916 73.8331 10.4198C74.6163 9.84794 75.5793 9.5376 76.5704 9.5376C77.5615 9.5376 78.5244 9.84794 79.3077 10.4198C80.0909 10.9916 80.6499 11.7924 80.8967 12.6962C81.1434 13.6 81.064 14.5553 80.6708 15.4119C80.2776 16.2685 79.593 16.9776 78.7248 17.4277C79.9483 17.845 81.0055 18.6073 81.7522 19.6108C82.4989 20.6143 82.8989 21.8101 82.8976 23.0354V29.6946H85.1311C85.4791 28.9689 85.9776 28.316 86.5973 27.7743C87.2171 27.2326 87.9456 26.813 88.7401 26.5402C87.8718 26.0902 87.1873 25.381 86.7941 24.5244C86.4009 23.6679 86.3214 22.7125 86.5682 21.8087C86.8149 20.905 87.3739 20.1041 88.1572 19.5323C88.9404 18.9605 89.9034 18.6501 90.8945 18.6501C91.8856 18.6501 92.8485 18.9605 93.6318 19.5323C94.415 20.1041 94.974 20.905 95.2207 21.8087C95.4675 22.7125 95.388 23.6679 94.9949 24.5244C94.6017 25.381 93.9171 26.0902 93.0488 26.5402C93.4901 26.6912 93.9122 26.8881 94.307 27.1273C94.4642 26.0505 94.9313 25.0347 95.6577 24.1899C96.384 23.3451 97.342 22.7035 98.4278 22.3344C97.5596 21.8844 96.875 21.1752 96.4818 20.3187C96.0886 19.4621 96.0091 18.5067 96.2559 17.6029C96.5027 16.6992 97.0617 15.8983 97.8449 15.3265C98.6281 14.7547 99.5911 14.4443 100.582 14.4443C101.573 14.4443 102.536 14.7547 103.319 15.3265C104.103 15.8983 104.662 16.6992 104.908 17.6029C105.155 18.5067 105.076 19.4621 104.683 20.3187C104.289 21.1752 103.605 21.8844 102.737 22.3344C103.669 22.6551 104.508 23.1773 105.187 23.8591C105.866 24.5409 106.365 25.3632 106.645 26.2598C107.344 25.5178 108.228 24.9516 109.217 24.6126C108.349 24.1625 107.665 23.4534 107.271 22.5968C106.878 21.7402 106.799 20.7848 107.045 19.8811C107.292 18.9773 107.851 18.1765 108.634 17.6046C109.418 17.0328 110.381 16.7225 111.372 16.7225C112.363 16.7225 113.326 17.0328 114.109 17.6046C114.892 18.1765 115.451 18.9773 115.698 19.8811C115.945 20.7848 115.865 21.7402 115.472 22.5968C115.079 23.4534 114.394 24.1625 113.526 24.6126C114.209 24.8472 114.844 25.191 115.402 25.629C115.742 24.8704 116.245 24.1862 116.879 23.6193C117.514 23.0523 118.265 22.6149 119.088 22.3344C118.219 21.8844 117.535 21.1752 117.142 20.3187C116.748 19.4621 116.669 18.5067 116.916 17.6029C117.162 16.6992 117.721 15.8983 118.505 15.3265C119.288 14.7547 120.251 14.4443 121.242 14.4443C122.233 14.4443 123.196 14.7547 123.979 15.3265C124.762 15.8983 125.321 16.6992 125.568 17.6029C125.815 18.5067 125.736 19.4621 125.342 20.3187C124.949 21.1752 124.265 21.8844 123.396 22.3344C124.62 22.7517 125.677 23.5141 126.424 24.5176C127.17 25.521 127.57 26.7169 127.569 27.9421V29.6946H138.811C140.522 30.6192 142.352 31.3347 144.255 31.8237C149.809 33.2677 155.743 33.3851 161.085 35.4179C162.501 35.9577 163.91 36.6639 164.829 37.8135C166.951 40.4649 165.734 44.1835 165.499 47.4955C165.362 49.5951 165.643 51.7002 166.328 53.7026H16.1648C11.3256 49.7141 7.51753 45.093 6.88285 39.1909C6.55155 36.0453 7.20299 32.8384 7.03734 29.6946Z" fill="black"/>
<path id="Vector_3" d="M184.988 13.4883V81.4801L181.266 79.2019V13.4883H179.032L178.102 76.9238L174.565 74.4704L176.985 12.6121" stroke="#E0E0E0" stroke-miterlimit="10"/>
<path id="Vector_4" d="M189.643 18.395L174.567 19.1836" stroke="#E0E0E0" stroke-miterlimit="10"/>
<path id="Vector_5" d="M188.713 21.8998L174.567 22.4256" stroke="#E0E0E0" stroke-miterlimit="10"/>
<path id="Vector_6" d="M188.713 26.1057L174.567 26.4561" stroke="#E0E0E0" stroke-miterlimit="10"/>
<path id="Vector_7" d="M188.713 29.9609L174.567 30.4867" stroke="#E0E0E0" stroke-miterlimit="10"/>
<path id="Vector_8" d="M188.713 34.342H174.009" stroke="#E0E0E0" stroke-miterlimit="10"/>
<path id="Vector_9" d="M188.713 38.723L173.637 38.1973" stroke="#E0E0E0" stroke-miterlimit="10"/>
<path id="Vector_10" d="M188.713 42.7535L173.637 42.0526" stroke="#E0E0E0" stroke-miterlimit="10"/>
<path id="Vector_11" d="M188.713 47.1346L173.637 46.0831" stroke="#E0E0E0" stroke-miterlimit="10"/>
<path id="Vector_12" d="M189.085 50.9899L173.078 49.588" stroke="#E0E0E0" stroke-miterlimit="10"/>
<path id="Vector_13" d="M189.085 55.3709L173.078 53.0928" stroke="#E0E0E0" stroke-miterlimit="10"/>
<path id="Vector_14" d="M189.085 60.4529L172.52 57.649" stroke="#E0E0E0" stroke-miterlimit="10"/>
<path id="Vector_15" d="M189.085 66.2358L172.52 61.6796" stroke="#E0E0E0" stroke-miterlimit="10"/>
<path id="Vector_16" d="M189.457 72.194L171.962 65.7101" stroke="#E0E0E0" stroke-miterlimit="10"/>
<path id="Vector_17" d="M189.457 77.6265L171.962 69.5654" stroke="#E0E0E0" stroke-miterlimit="10"/>
<path id="Vector_18" d="M170.471 13.3131L167.493 73.0685H163.584L166.004 13.3131H161.723L158.931 73.0685H154.65L157.07 13.3131H151.858L149.997 73.0685H145.344L147.391 13.8388H142.552L141.435 73.0685H137.155L138.457 13.3131H134.177L133.246 73.0685H129.151L130.082 13.3131H125.243V73.0685H120.403V13.3131H115.936L116.681 73.0685H112.772L111.656 13.3131H107.189L108.678 73.0685H104.769L102.908 13.3131H98.9992L100.488 73.0685H96.9519L94.16 13.3131H90.4375L93.4155 73.0685H89.693L85.5983 13.3131H81.1313L86.3428 73.0685H82.8064L77.7811 13.3131H74.2448L79.4562 73.0685H75.5476L70.5223 12.6121H66.9859L72.7558 73.0685H69.0333L63.0773 12.6121" stroke="#E0E0E0" stroke-miterlimit="10"/>
<path id="Vector_19" d="M54.7018 13.4883L60.2855 74.1199L57.4936 76.2228L53.2128 13.4883H50.2348L53.2128 78.501L48.9319 81.1296L47.2587 12.6121" stroke="#E0E0E0" stroke-miterlimit="10"/>
<path id="Vector_20" d="M43.1639 20.3227H60.2873" stroke="#E0E0E0" stroke-miterlimit="10"/>
<path id="Vector_21" d="M43.1639 24.7037H60.2873" stroke="#E0E0E0" stroke-miterlimit="10"/>
<path id="Vector_22" d="M43.1639 29.6104L60.2873 29.0847" stroke="#E0E0E0" stroke-miterlimit="10"/>
<path id="Vector_23" d="M43.1639 33.8163L61.0318 32.9401" stroke="#E0E0E0" stroke-miterlimit="10"/>
<path id="Vector_24" d="M43.1639 38.5478L61.0318 37.8468" stroke="#E0E0E0" stroke-miterlimit="10"/>
<path id="Vector_25" d="M43.1639 43.6297L61.7763 42.7535" stroke="#E0E0E0" stroke-miterlimit="10"/>
<path id="Vector_26" d="M43.1639 48.5365L61.7763 46.7841" stroke="#E0E0E0" stroke-miterlimit="10"/>
<path id="Vector_27" d="M43.1639 54.1442L61.7763 49.9384" stroke="#E0E0E0" stroke-miterlimit="10"/>
<path id="Vector_28" d="M43.1639 59.0509L62.5208 52.9175" stroke="#E0E0E0" stroke-miterlimit="10"/>
<path id="Vector_29" d="M43.1639 64.1329L62.5208 57.1233" stroke="#E0E0E0" stroke-miterlimit="10"/>
<path id="Vector_30" d="M42.6056 69.0397L61.875 61.4255" stroke="#E0E0E0" stroke-miterlimit="10"/>
<path id="Vector_31" d="M42.6056 74.6474L62.5208 65.1844" stroke="#E0E0E0" stroke-miterlimit="10"/>
<path id="Vector_32" d="M42.6056 79.7294L63.0792 69.0397" stroke="#E0E0E0" stroke-miterlimit="10"/>
<path id="Vector_33" d="M174.567 18.395L60.2874 19.2712" stroke="#E0E0E0" stroke-miterlimit="10"/>
<path id="Vector_34" d="M174.474 21.5494L60.1943 22.4256" stroke="#E0E0E0" stroke-miterlimit="10"/>
<path id="Vector_35" d="M174.381 24.7037L60.1012 25.5799" stroke="#E0E0E0" stroke-miterlimit="10"/>
<path id="Vector_36" d="M174.288 27.858L60.0082 28.7342" stroke="#E0E0E0" stroke-miterlimit="10"/>
<path id="Vector_37" d="M174.195 31.0124L59.9151 31.8886" stroke="#E0E0E0" stroke-miterlimit="10"/>
<path id="Vector_38" d="M174.102 34.1667L61.311 35.043" stroke="#E0E0E0" stroke-miterlimit="10"/>
<path id="Vector_39" d="M174.009 37.321L61.218 38.1972" stroke="#E0E0E0" stroke-miterlimit="10"/>
<path id="Vector_40" d="M173.916 40.4754L61.1249 41.3516" stroke="#E0E0E0" stroke-miterlimit="10"/>
<path id="Vector_41" d="M173.823 43.6298L61.0319 44.506" stroke="#E0E0E0" stroke-miterlimit="10"/>
<path id="Vector_42" d="M173.73 46.7841L62.0555 47.6603" stroke="#E0E0E0" stroke-miterlimit="10"/>
<path id="Vector_43" d="M173.637 49.9384L61.9625 50.8146" stroke="#E0E0E0" stroke-miterlimit="10"/>
<path id="Vector_44" d="M173.544 53.0928L61.8694 53.969" stroke="#E0E0E0" stroke-miterlimit="10"/>
<path id="Vector_45" d="M173.451 56.2471L62.5208 57.1233" stroke="#E0E0E0" stroke-miterlimit="10"/>
<path id="Vector_46" d="M173.357 59.4014L62.4277 60.2776" stroke="#E0E0E0" stroke-miterlimit="10"/>
<path id="Vector_47" d="M173.264 62.5558L62.8931 63.432" stroke="#E0E0E0" stroke-miterlimit="10"/>
<path id="Vector_48" d="M173.171 65.7101L62.8 66.5863" stroke="#E0E0E0" stroke-miterlimit="10"/>
<path id="Vector_49" d="M173.078 68.8644L62.707 69.7406" stroke="#E0E0E0" stroke-miterlimit="10"/>
<path id="Vector_50" d="M189.455 84.4591L172.518 73.0685H62.5189L43.1639 84.4591" stroke="#E0E0E0" stroke-width="3" stroke-miterlimit="10"/>
<path id="Vector_51" d="M190.507 72.1344C190.507 72.1344 190.937 60.1725 197.809 53.4169C200.711 50.5996 202.565 46.9715 203.091 43.0777C203.325 41.2281 203.38 39.3622 203.253 37.5033" stroke="#535461" stroke-width="2" stroke-miterlimit="10"/>
<path id="Vector_52" d="M207.556 33.2222C207.085 34.5575 203.154 37.6277 203.154 37.6277C203.154 37.6277 201.95 32.9523 202.421 31.617C202.654 30.9844 203.142 30.4636 203.78 30.1673C204.418 29.871 205.154 29.8231 205.829 30.0338C206.504 30.2445 207.064 30.697 207.387 31.2933C207.711 31.8897 207.772 32.5819 207.558 33.2204L207.556 33.2222Z" fill="#03A4FF"/>
<path id="Vector_53" d="M209.196 41.9457C208.031 42.8219 202.957 43.3914 202.957 43.3914C202.957 43.3914 204.645 38.8509 205.81 37.9712C206.086 37.7534 206.406 37.5896 206.75 37.4896C207.094 37.3896 207.456 37.3553 207.815 37.3887C208.173 37.4221 208.521 37.5226 208.838 37.6843C209.155 37.8459 209.434 38.0655 209.659 38.3301C209.885 38.5947 210.052 38.899 210.15 39.2252C210.249 39.5514 210.278 39.8929 210.235 40.2296C210.192 40.5664 210.077 40.8916 209.899 41.1863C209.721 41.481 209.481 41.7392 209.196 41.9457Z" fill="#03A4FF"/>
<path id="Vector_54" d="M204.557 54.5297C203.08 54.7348 198.397 52.8124 198.397 52.8124C198.397 52.8124 202.289 49.6948 203.766 49.4828C204.468 49.4007 205.176 49.5802 205.739 49.9832C206.301 50.3861 206.674 50.9804 206.778 51.6388C206.881 52.2973 206.706 52.9677 206.292 53.5067C205.877 54.0456 205.254 54.4103 204.557 54.5227V54.5297Z" fill="#03A4FF"/>
<path id="Vector_55" d="M198.771 63.3058C197.351 63.7439 192.391 62.5926 192.391 62.5926C192.391 62.5926 195.666 58.902 197.086 58.4622C197.426 58.3504 197.786 58.3035 198.145 58.3243C198.504 58.3451 198.856 58.4332 199.178 58.5833C199.501 58.7334 199.788 58.9426 200.024 59.1987C200.26 59.4547 200.439 59.7524 200.551 60.0744C200.663 60.3964 200.706 60.7362 200.677 61.0739C200.647 61.4116 200.547 61.7405 200.381 62.0412C200.215 62.3419 199.988 62.6085 199.711 62.8254C199.435 63.0422 199.115 63.205 198.771 63.3041V63.3058Z" fill="#03A4FF"/>
<path id="Vector_56" d="M197.472 41.9614C198.162 43.2091 202.562 45.6538 202.562 45.6538C202.562 45.6538 202.962 40.8592 202.274 39.6097C202.11 39.3128 201.885 39.0493 201.613 38.8341C201.341 38.6189 201.026 38.4563 200.687 38.3556C200.348 38.2549 199.992 38.218 199.638 38.2471C199.284 38.2761 198.939 38.3705 198.624 38.525C198.308 38.6794 198.029 38.8908 197.8 39.147C197.572 39.4033 197.399 39.6994 197.292 40.0185C197.185 40.3376 197.146 40.6735 197.177 41.0068C197.207 41.3402 197.308 41.6646 197.472 41.9614Z" fill="#03A4FF"/>
<path id="Vector_57" d="M190.844 52.3112C191.899 53.3083 196.874 54.4001 196.874 54.4001C196.874 54.4001 195.733 49.7124 194.678 48.7153C194.169 48.2491 193.485 47.9901 192.775 47.9941C192.065 47.9982 191.385 48.2649 190.882 48.7369C190.378 49.2088 190.092 49.8481 190.085 50.5168C190.078 51.1855 190.351 51.8299 190.844 52.3112Z" fill="#03A4FF"/>
<path id="Vector_58" d="M185.867 63.1989C186.727 64.3485 191.436 66.2166 191.436 66.2166C191.436 66.2166 191.153 61.4132 190.291 60.2584C190.088 59.9815 189.828 59.7453 189.528 59.5633C189.227 59.3814 188.891 59.2573 188.539 59.1984C188.187 59.1394 187.826 59.1466 187.477 59.2197C187.128 59.2928 186.798 59.4302 186.506 59.6241C186.214 59.818 185.965 60.0644 185.775 60.3493C185.584 60.6341 185.455 60.9516 185.396 61.2835C185.337 61.6154 185.348 61.9551 185.428 62.2829C185.509 62.6108 185.658 62.9203 185.867 63.1937V63.1989Z" fill="#03A4FF"/>
<path id="Vector_59" d="M193.299 82.8241C193.299 82.8241 193.729 70.8622 200.6 64.1066C203.503 61.2893 205.357 57.6612 205.883 53.7674C206.117 51.9178 206.171 50.0519 206.045 48.193" stroke="#535461" stroke-width="2" stroke-miterlimit="10"/>
<path id="Vector_60" d="M210.348 43.9119C209.877 45.2472 205.946 48.3174 205.946 48.3174C205.946 48.3174 204.742 43.642 205.213 42.3067C205.446 41.674 205.934 41.1533 206.572 40.857C207.21 40.5607 207.946 40.5128 208.621 40.7235C209.296 40.9342 209.856 41.3867 210.179 41.983C210.503 42.5794 210.564 43.2716 210.35 43.9101L210.348 43.9119Z" fill="#03A4FF"/>
<path id="Vector_61" d="M211.987 52.6354C210.822 53.5116 205.749 54.0811 205.749 54.0811C205.749 54.0811 207.437 49.5406 208.602 48.6609C208.878 48.4431 209.198 48.2793 209.542 48.1793C209.886 48.0793 210.248 48.045 210.607 48.0784C210.965 48.1118 211.313 48.2123 211.63 48.374C211.946 48.5356 212.226 48.7552 212.451 49.0198C212.676 49.2844 212.843 49.5887 212.942 49.9149C213.041 50.2411 213.07 50.5826 213.027 50.9193C212.983 51.2561 212.869 51.5813 212.691 51.876C212.512 52.1707 212.273 52.4289 211.987 52.6354Z" fill="#03A4FF"/>
<path id="Vector_62" d="M207.349 65.2194C205.871 65.4245 201.189 63.5021 201.189 63.5021C201.189 63.5021 205.08 60.3845 206.558 60.1725C207.26 60.0904 207.968 60.2699 208.53 60.6729C209.093 61.0758 209.466 61.6701 209.569 62.3285C209.673 62.987 209.498 63.6574 209.083 64.1964C208.669 64.7353 208.046 65.1 207.349 65.2124V65.2194Z" fill="#03A4FF"/>
<path id="Vector_63" d="M201.563 73.9955C200.143 74.4336 195.182 73.2823 195.182 73.2823C195.182 73.2823 198.458 69.5917 199.878 69.1519C200.218 69.0401 200.578 68.9932 200.937 69.014C201.296 69.0348 201.648 69.1229 201.97 69.273C202.293 69.4231 202.58 69.6323 202.816 69.8883C203.052 70.1444 203.231 70.4421 203.343 70.7641C203.455 71.0861 203.498 71.4259 203.468 71.7636C203.439 72.1013 203.339 72.4302 203.173 72.7309C203.007 73.0316 202.78 73.2982 202.503 73.5151C202.227 73.7319 201.907 73.8947 201.563 73.9938V73.9955Z" fill="#03A4FF"/>
<path id="Vector_64" d="M200.264 52.6511C200.954 53.8988 205.354 56.3435 205.354 56.3435C205.354 56.3435 205.754 51.5489 205.066 50.2994C204.734 49.6998 204.164 49.2487 203.479 49.0453C202.795 48.8419 202.052 48.9028 201.416 49.2147C200.779 49.5265 200.3 50.0638 200.084 50.7082C199.868 51.3527 199.932 52.0516 200.264 52.6511Z" fill="#03A4FF"/>
<path id="Vector_65" d="M193.636 63.0009C194.691 63.998 199.666 65.0898 199.666 65.0898C199.666 65.0898 198.525 60.4021 197.47 59.405C196.961 58.9388 196.277 58.6798 195.567 58.6838C194.857 58.6879 194.177 58.9546 193.673 59.4266C193.17 59.8985 192.884 60.5378 192.877 61.2065C192.87 61.8751 193.143 62.5196 193.636 63.0009Z" fill="#03A4FF"/>
<path id="Vector_66" d="M188.659 73.8886C189.519 75.0382 194.228 76.9063 194.228 76.9063C194.228 76.9063 193.945 72.1029 193.083 70.9481C192.88 70.6712 192.62 70.435 192.319 70.253C192.019 70.0711 191.683 69.947 191.331 69.8881C190.979 69.8291 190.618 69.8363 190.269 69.9094C189.92 69.9825 189.59 70.1199 189.298 70.3138C189.005 70.5077 188.757 70.7541 188.566 71.039C188.376 71.3238 188.247 71.6413 188.188 71.9732C188.129 72.3051 188.139 72.6448 188.22 72.9726C188.301 73.3005 188.45 73.61 188.659 73.8834V73.8886Z" fill="#03A4FF"/>
<path id="Vector_67" d="M40.4633 18.891C40.5545 15.5001 43.0486 12.521 46.5682 11.7937L46.6687 11.7745C46.8108 11.7478 46.9555 11.7349 47.1005 11.7359H186.395C187.424 11.728 188.438 11.9712 189.337 12.4417C190.236 12.9121 190.991 13.5939 191.527 14.4206L191.562 14.4784C191.767 14.8167 191.877 15.1984 191.882 15.5877L193.176 84.4574H188.709L187.22 17.1649C187.22 17.1649 187.22 15.2372 185.359 15.062C185.074 15.0357 181.62 15.0164 175.976 15.0041L172.704 73.2437H170.843L174.482 15.0024C149.671 14.9568 88.9448 15.0147 60.7601 15.0462L64.3746 72.8932H62.5134L59.2674 15.048L48.5392 15.0602C47.7526 15.0607 46.9797 15.2551 46.2976 15.624C45.6155 15.9929 45.0478 16.5236 44.6511 17.1631L43.1621 84.4556H38.6951L40.4633 18.891Z" fill="#E0E0E0"/>
<path id="Vector_68" d="M38.6709 85.8768C38.6709 85.8768 38.0679 76.6136 42.8457 70.9218C44.8661 68.5466 46.0136 65.6183 46.1159 62.5768C46.152 61.1315 46.0473 59.6861 45.8032 58.2589" stroke="#535461" stroke-width="2" stroke-miterlimit="10"/>
<path id="Vector_69" d="M48.7923 54.6594C48.5336 55.7231 45.738 58.3658 45.738 58.3658C45.738 58.3658 44.4352 54.8399 44.7013 53.778C44.7624 53.5248 44.8759 53.2855 45.0352 53.0736C45.1946 52.8618 45.3967 52.6815 45.63 52.5432C45.8633 52.4049 46.1233 52.3112 46.3951 52.2675C46.6669 52.2238 46.9451 52.2309 47.214 52.2884C47.4829 52.3459 47.7371 52.4528 47.9621 52.6028C48.1871 52.7528 48.3785 52.9431 48.5254 53.1628C48.6723 53.3825 48.7718 53.6273 48.8183 53.8831C48.8647 54.139 48.8572 54.401 48.796 54.6542L48.7923 54.6594Z" fill="#03A4FF"/>
<path id="Vector_70" d="M50.7392 61.28C49.9072 62.0405 46.0358 62.8291 46.0358 62.8291C46.0358 62.8291 46.9832 59.2069 47.8152 58.4481C48.0128 58.2673 48.2463 58.125 48.5023 58.0292C48.7584 57.9334 49.0319 57.886 49.3074 57.8897C49.5829 57.8935 49.8549 57.9483 50.1079 58.051C50.361 58.1537 50.59 58.3023 50.782 58.4884C50.974 58.6745 51.1252 58.8943 51.2269 59.1354C51.3287 59.3765 51.379 59.634 51.375 59.8934C51.371 60.1528 51.3128 60.4089 51.2037 60.6471C51.0946 60.8853 50.9368 61.101 50.7392 61.2817V61.28Z" fill="#03A4FF"/>
<path id="Vector_71" d="M48.1428 71.3143C47.026 71.5754 43.2533 70.4153 43.2533 70.4153C43.2533 70.4153 46.0098 67.7394 47.1377 67.4783C47.678 67.3528 48.2491 67.4345 48.7253 67.7055C49.2016 67.9765 49.5441 68.4145 49.6774 68.9231C49.8106 69.4318 49.7238 69.9695 49.436 70.418C49.1483 70.8664 48.683 71.1888 48.1428 71.3143Z" fill="#03A4FF"/>
<path id="Vector_72" d="M44.3607 78.4904C43.298 78.9268 39.3801 78.3818 39.3801 78.3818C39.3801 78.3818 41.6135 75.3046 42.6819 74.877C42.9354 74.7671 43.2097 74.7059 43.4886 74.6971C43.7676 74.6883 44.0456 74.7319 44.3064 74.8256C44.5672 74.9192 44.8055 75.0609 45.0074 75.2423C45.2093 75.4237 45.3707 75.6413 45.4822 75.8822C45.5936 76.1231 45.6529 76.3826 45.6565 76.6453C45.6602 76.9081 45.6081 77.1689 45.5033 77.4124C45.3985 77.656 45.2431 77.8774 45.0463 78.0637C44.8495 78.25 44.6151 78.3975 44.357 78.4974L44.3607 78.4904Z" fill="#03A4FF"/>
<path id="Vector_73" d="M41.6917 62.1141C42.3208 63.0307 45.9093 64.6113 45.9093 64.6113C45.9093 64.6113 45.8441 60.8822 45.2132 59.9657C44.9106 59.526 44.4349 59.2175 43.8907 59.1081C43.3465 58.9987 42.7785 59.0972 42.3115 59.3821C41.8445 59.667 41.5169 60.1149 41.4007 60.6273C41.2844 61.1396 41.3891 61.6745 41.6917 62.1141Z" fill="#03A4FF"/>
<path id="Vector_74" d="M37.3829 70.552C38.2744 71.253 42.2017 71.7471 42.2017 71.7471C42.2017 71.7471 40.9546 68.2073 40.0612 67.5098C39.8491 67.3442 39.6044 67.2196 39.3411 67.1431C39.0777 67.0666 38.801 67.0396 38.5266 67.0638C38.2523 67.0879 37.9856 67.1627 37.742 67.2839C37.4983 67.4051 37.2824 67.5703 37.1065 67.77C36.9307 67.9698 36.7983 68.2002 36.717 68.4481C36.6357 68.696 36.6071 68.9566 36.6328 69.2149C36.6584 69.4732 36.7379 69.7243 36.8666 69.9537C36.9953 70.1831 37.1708 70.3864 37.3829 70.552Z" fill="#03A4FF"/>
<path id="Vector_75" d="M34.392 79.3018C35.1458 80.1307 38.9259 81.247 38.9259 81.247C38.9259 81.247 38.3322 77.5669 37.5765 76.731C37.2142 76.3332 36.6989 76.0871 36.1439 76.0471C35.5889 76.007 35.0397 76.1761 34.6172 76.5172C34.1946 76.8584 33.9333 77.3436 33.8907 77.8661C33.8482 78.3887 34.0278 78.9057 34.3901 79.3036L34.392 79.3018Z" fill="#03A4FF"/>
<path id="Vector_76" opacity="0.5" d="M48.7923 54.6594C48.5336 55.7231 45.738 58.3658 45.738 58.3658C45.738 58.3658 44.4352 54.8399 44.7013 53.778C44.7624 53.5248 44.8759 53.2855 45.0352 53.0736C45.1946 52.8618 45.3967 52.6815 45.63 52.5432C45.8633 52.4049 46.1233 52.3112 46.3951 52.2675C46.6669 52.2238 46.9451 52.2309 47.214 52.2884C47.4829 52.3459 47.7371 52.4528 47.9621 52.6028C48.1871 52.7528 48.3785 52.9431 48.5254 53.1628C48.6723 53.3825 48.7718 53.6273 48.8183 53.8831C48.8647 54.139 48.8572 54.401 48.796 54.6542L48.7923 54.6594Z" fill="white"/>
<path id="Vector_77" opacity="0.5" d="M50.7392 61.28C49.9072 62.0405 46.0358 62.8291 46.0358 62.8291C46.0358 62.8291 46.9832 59.2069 47.8152 58.4481C48.0128 58.2673 48.2463 58.125 48.5023 58.0292C48.7584 57.9334 49.0319 57.886 49.3074 57.8897C49.5829 57.8935 49.8549 57.9483 50.1079 58.051C50.361 58.1537 50.59 58.3023 50.782 58.4884C50.974 58.6745 51.1252 58.8943 51.2269 59.1354C51.3287 59.3765 51.379 59.634 51.375 59.8934C51.371 60.1528 51.3128 60.4089 51.2037 60.6471C51.0946 60.8853 50.9368 61.101 50.7392 61.2817V61.28Z" fill="white"/>
<path id="Vector_78" opacity="0.5" d="M48.1428 71.3143C47.026 71.5754 43.2533 70.4153 43.2533 70.4153C43.2533 70.4153 46.0098 67.7394 47.1377 67.4783C47.678 67.3528 48.2491 67.4345 48.7253 67.7055C49.2016 67.9765 49.5441 68.4145 49.6774 68.9231C49.8106 69.4318 49.7238 69.9695 49.436 70.418C49.1483 70.8664 48.683 71.1888 48.1428 71.3143Z" fill="white"/>
<path id="Vector_79" opacity="0.5" d="M44.3607 78.4904C43.298 78.9268 39.3801 78.3818 39.3801 78.3818C39.3801 78.3818 41.6135 75.3046 42.6819 74.877C42.9354 74.7671 43.2097 74.7059 43.4886 74.6971C43.7676 74.6883 44.0456 74.7319 44.3064 74.8256C44.5672 74.9192 44.8055 75.0609 45.0074 75.2423C45.2093 75.4237 45.3707 75.6413 45.4822 75.8822C45.5936 76.1231 45.6529 76.3826 45.6565 76.6453C45.6602 76.9081 45.6081 77.1689 45.5033 77.4124C45.3985 77.656 45.2431 77.8774 45.0463 78.0637C44.8495 78.25 44.6151 78.3975 44.357 78.4974L44.3607 78.4904Z" fill="white"/>
<path id="Vector_80" opacity="0.5" d="M41.6917 62.1141C42.3208 63.0307 45.9093 64.6113 45.9093 64.6113C45.9093 64.6113 45.8441 60.8822 45.2132 59.9657C44.9106 59.526 44.4349 59.2175 43.8907 59.1081C43.3465 58.9987 42.7785 59.0972 42.3115 59.3821C41.8445 59.667 41.5169 60.1149 41.4007 60.6273C41.2844 61.1396 41.3891 61.6745 41.6917 62.1141Z" fill="white"/>
<path id="Vector_81" opacity="0.5" d="M37.3829 70.552C38.2744 71.253 42.2017 71.7471 42.2017 71.7471C42.2017 71.7471 40.9546 68.2073 40.0612 67.5098C39.8491 67.3442 39.6044 67.2196 39.3411 67.1431C39.0777 67.0666 38.801 67.0396 38.5266 67.0638C38.2523 67.0879 37.9856 67.1627 37.742 67.2839C37.4983 67.4051 37.2824 67.5703 37.1065 67.77C36.9307 67.9698 36.7983 68.2002 36.717 68.4481C36.6357 68.696 36.6071 68.9566 36.6328 69.2149C36.6584 69.4732 36.7379 69.7243 36.8666 69.9537C36.9953 70.1831 37.1708 70.3864 37.3829 70.552Z" fill="white"/>
<path id="Vector_82" opacity="0.5" d="M34.392 79.3018C35.1458 80.1307 38.9259 81.247 38.9259 81.247C38.9259 81.247 38.3322 77.5669 37.5765 76.731C37.2142 76.3332 36.6989 76.0871 36.1439 76.0471C35.5889 76.007 35.0397 76.1761 34.6172 76.5172C34.1946 76.8584 33.9333 77.3436 33.8907 77.8661C33.8482 78.3887 34.0278 78.9057 34.3901 79.3036L34.392 79.3018Z" fill="white"/>
<g id="Group" opacity="0.1">
<path id="Vector_83" d="M71.1365 50.2588C71.1141 50.2327 71.103 50.2153 71.103 50.2153L71.1365 50.2588Z" fill="url(#paint0_linear_1_1070)"/>
</g>
<path id="Vector_84" d="M101.91 52.6511C101.875 53.7674 102.61 54.1862 102.61 54.1862L109.478 59.9131C112.128 60.8173 112.456 65.5611 112.456 65.5611C112.717 65.9992 112.828 66.7598 112.828 67.664C112.797 70.4679 111.955 74.3757 111.955 74.3757L111.979 74.4125L111.955 74.5264L111.979 74.5632L111.955 74.6772C112.087 74.8772 112.229 75.0708 112.382 75.2572C111.637 76.6924 110.25 79.0021 109.651 79.4945C108.823 80.1727 107.166 85.2179 107.166 85.2179L107.22 85.2056L107.166 85.3686H107.202C106.8 86.0994 106.39 87.0422 106.303 87.9727C106.244 88.5828 106.109 89.1845 105.903 89.7654C105.658 90.4404 105.637 91.1693 105.841 91.856C106.005 92.4053 106.114 92.968 106.165 93.5366C106.269 94.632 106.555 95.7052 107.012 96.7172C107.769 98.4118 108.773 100.727 108.825 101.193C108.853 101.445 108.918 101.817 108.992 102.2L108.949 102.211L107.168 106.014C107.168 106.014 106.671 107.065 105.679 107.065C105.583 107.065 105.487 107.083 105.398 107.12C105.31 107.157 105.231 107.211 105.166 107.279C105.102 107.347 105.053 107.426 105.024 107.513C104.994 107.6 104.985 107.691 104.996 107.782C104.983 107.888 104.998 107.995 105.039 108.094V108.104C105.039 108.122 105.056 108.139 105.063 108.157L105.08 108.187C105.089 108.204 105.1 108.22 105.113 108.238L105.136 108.267L105.177 108.315L105.205 108.344L105.253 108.39L105.286 108.42L105.342 108.462L105.383 108.49L105.448 108.528L105.497 108.556L105.569 108.592L105.625 108.618L105.705 108.649L105.769 108.674L105.858 108.702L105.929 108.723L106.029 108.746L106.109 108.763L106.219 108.781L106.306 108.795L106.427 108.807L106.522 108.818H106.656H106.757H107.012H107.189H107.287C107.383 108.818 107.481 108.81 107.583 108.795C110.814 108.493 113.215 106.166 113.215 106.166V106.122V106.079V106.035L113.227 106.022C113.227 106.022 113.018 102.993 111.836 102.307C111.718 101.744 111.656 101.173 111.65 100.599C111.65 98.4959 112.313 96.3807 110.49 92.9162C110.49 92.9162 110.407 92.012 111.071 90.6574C111.461 89.9314 111.892 89.2259 112.363 88.544L112.445 88.5352L112.313 88.6999C112.313 88.6999 114.466 88.5492 114.632 87.1929C114.647 87.08 114.675 86.969 114.716 86.8617C115.214 85.4983 117.623 83.5654 118.691 83.4269C119.851 83.2762 122.17 85.8365 123.082 87.645C123.134 87.7484 123.188 87.8465 123.242 87.9359C124.132 89.4097 125.235 89.0767 125.235 89.0767C125.196 89.0329 125.163 88.9908 125.127 88.947C125.164 88.9426 125.2 88.9356 125.235 88.926C125.138 88.8146 125.047 88.6975 124.965 88.5755C125.794 89.4202 126.674 90.1982 127.057 90.6521C127.886 91.6317 127.472 92.3081 127.472 92.6096C127.472 93.9677 125.567 97.9562 126.063 100.145C126.309 101.226 126.028 102.491 125.68 103.494H125.607C124.198 103.995 124.035 105.793 124.046 106.697C124.046 106.725 124.046 106.753 124.046 106.78C124.046 106.825 124.046 106.869 124.046 106.911V106.939C124.046 106.973 124.046 107.006 124.046 107.037V107.06C124.046 107.095 124.046 107.128 124.046 107.158C124.046 107.19 124.046 107.219 124.046 107.244V107.254V107.307V107.321V107.349V107.368C124.046 107.368 128.021 109.024 131.418 109.471C131.537 109.487 131.651 109.499 131.761 109.508H131.861L132.075 109.52H132.366H132.459C132.524 109.52 132.585 109.52 132.645 109.506H132.704C132.781 109.497 132.854 109.485 132.922 109.471L132.967 109.461C133.019 109.448 133.067 109.438 133.114 109.424L133.175 109.405L133.285 109.364L133.341 109.34C133.374 109.324 133.406 109.308 133.438 109.291L133.488 109.254C133.526 109.231 133.562 109.206 133.596 109.179C133.63 109.151 133.662 109.121 133.691 109.089L133.715 109.061C133.734 109.04 133.751 109.018 133.767 108.995L133.789 108.96C133.803 108.937 133.815 108.915 133.825 108.893L133.842 108.858C133.852 108.833 133.86 108.807 133.868 108.781V108.755C133.876 108.72 133.881 108.686 133.884 108.651C133.884 108.651 133.884 108.639 133.884 108.632C133.886 108.604 133.886 108.576 133.884 108.548C133.884 108.537 133.884 108.525 133.884 108.514C133.933 108.052 133.544 107.591 133.155 107.661C132.327 107.812 131.249 106.907 131.249 106.907L128.984 103.424C128.948 102.609 129.045 101.573 129.592 100.732C130.67 99.076 131.995 95.5361 131.995 95.5361C131.995 95.5361 131.83 93.3526 132.492 92.2976C133.155 91.2427 132.492 89.5867 132.492 89.5867L130.465 85.9066C130.698 85.9066 130.838 85.9066 130.838 85.9066L130.765 85.7559H130.838C130.838 85.7559 128.353 80.56 127.359 79.9572C126.65 79.5278 125.648 77.1095 125.125 75.7514C125.334 75.648 125.449 75.5761 125.449 75.5761C125.449 75.5761 126.03 69.0239 126.03 64.8864C126.03 60.749 129.008 59.0877 129.008 59.0877L135.908 55.2429C137.73 54.5648 137.979 52.8334 137.979 52.8334L137.959 52.7843C137.974 52.7195 137.979 52.6827 137.979 52.6827L137.959 52.6336C137.974 52.5688 137.979 52.532 137.979 52.532L134.666 44.5497C134.666 44.5743 134.646 44.5953 134.636 44.6181C134.402 43.2424 133.678 41.0887 131.435 40.938C128.122 40.712 126.968 42.2944 127.625 42.4451C128.282 42.5958 131.104 43.6507 131.104 43.6507L132.22 45.3453C132.148 45.3225 132.107 45.3068 132.107 45.3068C132.17 45.3297 132.226 45.3678 132.269 45.4172L132.343 45.5293C132.198 45.4908 132.109 45.4575 132.109 45.4575C132.129 45.4654 132.148 45.4754 132.166 45.4873C132.183 45.4955 132.198 45.5048 132.213 45.5153C132.228 45.528 132.242 45.5414 132.256 45.5556C132.271 45.5695 132.285 45.5842 132.299 45.5994C132.313 45.6169 132.327 45.6362 132.341 45.6555L132.364 45.687C132.278 45.6654 132.194 45.6396 132.111 45.6099C132.978 45.8728 133.341 50.8269 133.413 52.0939L129.123 53.8936C129.123 53.8936 124.816 53.8936 122.994 54.8732C121.395 55.7319 120.625 55.0256 120.461 54.8399C120.573 54.9742 120.671 55.1039 120.757 55.2289L120.711 55.1991L120.668 55.1711L120.632 55.1448L120.593 55.1133L120.58 55.1027C120.204 54.4389 119.955 53.7174 119.847 52.9718C120.05 52.5153 120.15 52.0238 120.14 51.5289C120.129 51.034 120.009 50.5465 119.787 50.0979C119.857 50.1443 119.934 50.1815 120.014 50.2083C119.828 49.8801 119.702 49.5246 119.642 49.1568C119.601 48.745 119.726 48.3069 119.54 47.9301C119.52 47.892 119.498 47.8551 119.473 47.8197C119.473 47.8075 119.473 47.7934 119.458 47.7794C119.272 47.3974 118.816 47.1871 118.527 46.8542C118.341 46.6298 118.235 46.3565 118.056 46.1251C117.83 45.8526 117.517 45.6556 117.163 45.5629C116.809 45.4702 116.432 45.4866 116.089 45.6099C115.817 45.7133 115.564 45.8868 115.27 45.8921C115.118 45.8851 114.967 45.8604 114.822 45.8185C113.91 45.6401 112.96 45.8076 112.179 46.2846C111.417 46.7582 110.815 47.427 110.444 48.2123C110.243 48.598 110.112 49.0126 110.057 49.439C110.035 49.8858 110.043 50.3335 110.079 50.7795C110.096 51.5138 109.981 52.2849 110.314 52.9525C110.334 52.9946 110.36 53.0314 110.383 53.0717C110.383 53.0822 110.383 53.0927 110.396 53.1032C110.712 53.7394 111.375 54.1547 112.009 54.556L112.83 55.0659L112.923 55.1238C112.688 55.1016 112.452 55.0969 112.216 55.1097C110.973 55.1851 108.493 54.0583 108.493 54.0583L105.906 51.8538L107.168 46.9786L107.12 47.0119L107.168 46.8279L107.12 46.8612L107.168 46.6772C107.144 46.6947 107.122 46.7105 107.097 46.7262L108.41 44.718C108.41 44.718 111.226 43.6665 111.888 43.5123C112.551 43.3581 111.391 41.7809 108.078 42.0052C105.64 42.1717 104.996 44.7022 104.827 46.0358C104.683 45.8868 104.6 45.7782 104.6 45.7782L102.277 50.9513C102.034 51.4372 101.907 51.967 101.905 52.5039C101.908 52.5547 101.908 52.6056 101.91 52.6511ZM114.044 55.3008C114.228 55.243 114.393 55.1402 114.522 55.0029C114.73 55.0774 114.944 55.136 115.162 55.1781C115.103 55.3695 115.02 55.5536 114.915 55.7266C114.883 55.6092 114.868 55.5373 114.868 55.5373C114.598 55.4437 114.323 55.3642 114.044 55.299V55.3008ZM112.642 88.0883C112.828 87.8062 113.014 87.5311 113.2 87.2717C113.04 87.5486 112.828 87.85 112.642 88.0883Z" fill="url(#paint1_linear_1_1070)"/>
<path id="Vector_85" d="M129.557 84.9533L131.93 89.422C131.93 89.422 132.563 91.0605 131.93 92.1031C131.297 93.1458 131.455 95.3065 131.455 95.3065C131.455 95.3065 130.19 98.8114 129.161 100.446C128.131 102.081 128.764 104.477 128.764 104.477L124.651 104.924C124.651 104.924 126.233 102.018 125.768 99.8575C125.302 97.6968 127.113 93.7522 127.113 92.4081C127.113 92.1101 127.51 91.439 126.717 90.4716C125.924 89.5043 122.92 87.0457 122.994 85.6297L129.557 84.9533Z" fill="#F7BBC3"/>
<path id="Vector_86" d="M108.592 83.9106C108.592 83.9106 107.073 85.8909 106.896 87.8185C106.843 88.4203 106.718 89.0146 106.524 89.5902C106.291 90.2593 106.27 90.9781 106.465 91.6581C106.621 92.2024 106.725 92.759 106.774 93.3211C106.871 94.4051 107.144 95.4687 107.581 96.4754C108.305 98.1525 109.257 100.441 109.312 100.902C109.392 101.647 109.787 103.434 109.787 103.434L112.951 104.552C112.951 104.552 112.002 102.392 112.002 100.306C112.002 98.2208 112.635 96.1355 110.885 92.7077C110.885 92.7077 110.805 91.814 111.443 90.4734C112.082 89.1328 114.529 85.6315 114.529 85.6315L108.592 83.9106Z" fill="#F7BBC3"/>
<path id="Vector_87" opacity="0.1" d="M113.707 86.5673C113.967 86.8337 112.625 88.53 112.625 88.53C112.625 88.53 114.682 88.3811 114.84 87.0405C114.855 86.929 114.882 86.8192 114.92 86.7128C115.397 85.3652 117.697 83.4533 118.717 83.3166C119.834 83.1676 122.039 85.6999 122.911 87.4873C122.961 87.5907 123.011 87.6853 123.063 87.7747C123.914 89.2327 124.967 88.9033 124.967 88.9033C124.409 88.2549 124.293 87.7414 124.468 87.3261C125.161 85.7191 130.346 85.7665 130.346 85.7665C130.346 85.7665 127.973 80.6266 127.024 80.0308C126.075 79.435 124.571 74.9646 124.571 74.9646C124.571 74.9646 113.256 73.773 113.178 74.2934C113.1 74.8139 110.883 78.9128 110.092 79.5822C109.301 80.2516 107.721 85.246 107.721 85.246C110.41 84.5012 113.377 86.3255 113.694 86.5498L113.707 86.5673Z" fill="black"/>
<path id="Vector_88" d="M113.707 86.4183C113.967 86.6847 112.625 88.381 112.625 88.381C112.625 88.381 114.682 88.2321 114.84 86.8915C114.855 86.78 114.882 86.6702 114.92 86.5638C115.397 85.2162 117.697 83.3043 118.717 83.1676C119.834 83.0187 122.039 85.5509 122.911 87.3383C122.961 87.4417 123.011 87.5364 123.063 87.6257C123.914 89.0837 124.967 88.7543 124.967 88.7543C124.409 88.1059 124.293 87.5924 124.468 87.1771C125.161 85.5702 130.346 85.6175 130.346 85.6175C130.346 85.6175 127.973 80.4777 127.024 79.8818C126.075 79.286 124.571 74.8156 124.571 74.8156C124.571 74.8156 113.256 73.624 113.178 74.1444C113.1 74.6649 110.883 78.7638 110.092 79.4332C109.301 80.1026 107.719 85.0953 107.719 85.0953C110.409 84.3505 113.375 86.1747 113.692 86.3991L113.707 86.4183Z" fill="#565171"/>
<path id="Vector_89" opacity="0.1" d="M128.569 103.093L130.744 106.557C130.744 106.557 131.774 107.451 132.565 107.302C133.356 107.153 134.147 109.387 130.903 108.94C127.659 108.493 123.862 106.855 123.862 106.855C123.862 106.855 123.506 103.837 125.325 103.175L128.569 103.093Z" fill="black"/>
<path id="Vector_90" opacity="0.1" d="M109.422 101.894L107.721 105.656C107.721 105.656 107.246 106.708 106.297 106.708C105.348 106.708 105.031 108.571 108.117 108.273C111.203 107.975 113.498 105.665 113.498 105.665C113.498 105.665 113.26 102.09 111.836 101.866C111.038 101.723 110.217 101.732 109.422 101.894Z" fill="black"/>
<path id="Vector_91" d="M128.569 103.241L130.744 106.706C130.744 106.706 131.774 107.6 132.565 107.451C133.356 107.302 134.147 109.536 130.903 109.089C127.659 108.642 123.862 107.004 123.862 107.004C123.862 107.004 123.506 103.986 125.325 103.324L128.569 103.241Z" fill="#B77983"/>
<path id="Vector_92" d="M109.422 102.05L107.721 105.812C107.721 105.812 107.246 106.864 106.297 106.864C105.348 106.864 105.031 108.726 108.117 108.429C111.203 108.131 113.498 105.821 113.498 105.821C113.498 105.821 113.26 102.246 111.836 102.022C111.038 101.879 110.217 101.888 109.422 102.05Z" fill="#B77983"/>
<g id="Group_2" opacity="0.1">
<path id="Vector_93" d="M113.573 74.1532C113.493 74.6789 111.278 78.7725 110.487 79.4419C109.761 80.057 108.367 84.3172 108.143 85.0076C108 85.0339 107.859 85.0637 107.717 85.1022C107.717 85.1022 109.299 80.1114 110.09 79.4402C110.881 78.769 113.096 74.6719 113.176 74.1514C113.191 74.048 113.655 74.0112 114.382 74.0217C113.891 74.0305 113.588 74.0691 113.573 74.1532Z" fill="black"/>
<path id="Vector_94" d="M119.114 83.1658C120.23 83.0169 122.436 85.5491 123.307 87.3366C123.357 87.44 123.407 87.5346 123.46 87.624C123.951 88.4651 124.507 88.7104 124.893 88.7683C124.638 88.8121 123.776 88.8489 123.063 87.624C123.011 87.5346 122.961 87.44 122.911 87.3366C122.112 85.6963 120.184 83.4322 119.015 83.1833L119.114 83.1658Z" fill="black"/>
<path id="Vector_95" d="M113.707 86.4183L113.694 86.406C113.439 86.2308 111.46 85.0041 109.292 84.9287C111.609 84.8534 113.818 86.215 114.09 86.406L114.103 86.4183C114.332 86.6531 113.323 87.9954 113.076 88.3109C112.928 88.3425 112.778 88.3653 112.627 88.3792C112.627 88.3792 113.967 86.6846 113.707 86.4183Z" fill="black"/>
</g>
<path id="Vector_96" d="M134.067 46.0691C134.067 46.0691 134.067 41.5251 130.903 41.3008C127.739 41.0765 126.622 42.6414 127.264 42.7903C127.906 42.9393 130.586 43.9819 130.586 43.9819L132.327 46.7385L134.067 46.0691Z" fill="#F7BBC3"/>
<path id="Vector_97" d="M105.426 47.1118C105.426 47.1118 105.426 42.5678 108.59 42.3435C111.754 42.1192 112.871 43.6841 112.229 43.833C111.587 43.982 108.907 45.0247 108.907 45.0247L107.166 47.7812L105.426 47.1118Z" fill="#F7BBC3"/>
<path id="Vector_98" d="M119.746 51.8047C119.746 51.8047 119.508 54.7838 121.487 56.4977C123.465 58.2116 116.899 60.3705 116.899 60.3705L113.971 57.0935C113.971 57.0935 116.344 55.7529 115.088 53.4432L119.746 51.8047Z" fill="#F7BBC3"/>
<path id="Vector_99" opacity="0.1" d="M120.379 55.3061C120.379 55.3061 121.092 56.3575 122.832 55.3814C124.573 54.4053 128.688 54.4036 128.688 54.4036L132.801 52.6161C132.801 52.6161 132.485 46.2093 131.535 45.9114C131.535 45.9114 133.434 46.6562 133.989 45.1666L137.153 53.063C137.153 53.063 136.914 54.7768 135.174 55.4463L128.608 59.2455C128.608 59.2455 125.76 60.884 125.76 64.9811C125.76 69.0782 125.202 75.5587 125.202 75.5587C125.202 75.5587 116.024 80.7738 112.305 74.6649C112.305 74.6649 113.809 67.4397 112.78 65.6505C112.78 65.6505 112.463 60.9576 109.932 60.0639L103.369 54.4036C103.369 54.4036 102.104 53.6588 103.053 51.4981L105.268 46.3583C105.268 46.3583 106.614 48.1457 107.721 47.252L106.455 52.3182L108.987 54.5525C108.987 54.5525 111.36 55.6706 112.547 55.604C113.735 55.5374 115.078 56.0508 115.078 56.0508C115.078 56.0508 115.637 59.0299 118.164 58.732C118.164 58.732 122.991 58.5095 120.379 55.3061Z" fill="black"/>
<path id="Vector_100" opacity="0.1" d="M120.379 55.0081C120.379 55.0081 121.092 56.0596 122.832 55.0835C124.573 54.1074 128.688 54.1144 128.688 54.1144L132.801 52.3269C132.801 52.3269 132.485 45.9201 131.535 45.6222C131.535 45.6222 133.434 46.367 133.989 44.8774L137.153 52.7738C137.153 52.7738 136.914 54.4876 135.174 55.1571L128.608 58.9598C128.608 58.9598 125.76 60.5983 125.76 64.6954C125.76 68.7926 125.202 75.273 125.202 75.273C125.202 75.273 116.024 80.4882 112.305 74.3793C112.305 74.3793 113.809 67.1541 112.78 65.3649C112.78 65.3649 112.463 60.6719 109.932 59.7782L103.366 54.1161C103.366 54.1161 102.1 53.3714 103.049 51.2106L105.264 46.0708C105.264 46.0708 106.61 47.8583 107.717 46.9646L106.452 52.0308L108.983 54.2651C108.983 54.2651 111.356 55.3831 112.543 55.3165C113.731 55.2499 115.075 55.7634 115.075 55.7634C115.075 55.7634 115.633 58.7425 118.161 58.4446C118.164 58.4341 122.991 58.2115 120.379 55.0081Z" fill="black"/>
<path id="Vector_101" d="M103.369 54.2634L109.936 59.9254C112.467 60.8192 112.784 65.5121 112.784 65.5121C113.813 67.2996 112.309 74.5265 112.309 74.5265C116.031 80.6354 125.205 75.4202 125.205 75.4202C125.205 75.4202 125.224 75.2064 125.254 74.8297C125.28 74.5002 125.315 74.0446 125.354 73.5031C125.406 72.8021 125.466 71.9557 125.522 71.0375C125.647 69.031 125.76 66.6932 125.76 64.8427C125.76 60.7456 128.608 59.1071 128.608 59.1071L133.534 56.2576L135.176 55.3078C136.916 54.6367 137.155 52.9246 137.155 52.9246L133.99 45.0282C133.473 46.4196 131.781 45.8606 131.562 45.7817C132.492 46.1778 132.803 52.4777 132.803 52.4777L128.69 54.2651C128.69 54.2651 124.576 54.2651 122.834 55.2342C121.345 56.0579 120.617 55.427 120.431 55.2185C122.933 58.3728 118.166 58.5848 118.166 58.5848C115.635 58.8827 115.08 55.9037 115.08 55.9037C115.08 55.9037 113.735 55.3779 112.549 55.4568C111.363 55.5356 108.988 54.4053 108.988 54.4053L106.457 52.171L107.723 47.1048C106.606 47.9985 105.27 46.2111 105.27 46.2111L103.055 51.3509C102.104 53.5186 103.369 54.2634 103.369 54.2634Z" fill="#B45181"/>
<path id="Vector_102" opacity="0.1" d="M119.746 52.1027C119.723 52.5712 119.749 53.0408 119.823 53.5046C119.478 54.3119 118.839 54.9768 118.02 55.3794C117.201 55.7821 116.256 55.8959 115.356 55.7004C115.535 55.0388 115.435 54.3375 115.075 53.7447L119.746 52.1027Z" fill="black"/>
<path id="Vector_103" d="M116.227 55.4935C118.368 55.4935 120.104 53.8592 120.104 51.8433C120.104 49.8273 118.368 48.193 116.227 48.193C114.086 48.193 112.35 49.8273 112.35 51.8433C112.35 53.8592 114.086 55.4935 116.227 55.4935Z" fill="#F7BBC3"/>
<path id="Vector_104" opacity="0.1" d="M116.288 49.7667C116.322 50.1365 116.35 50.5308 116.169 50.8602C116.069 51.0258 115.943 51.1769 115.797 51.3088L114.985 52.0957C114.73 52.3073 114.531 52.5735 114.407 52.872C114.172 53.608 114.864 54.3387 114.842 55.108C114.718 55.2912 114.534 55.4311 114.317 55.5064C114.101 55.5817 113.864 55.5883 113.643 55.5251C113.464 55.4606 113.296 55.3727 113.143 55.264L112.348 54.7541C111.743 54.365 111.11 53.9444 110.807 53.3171C110.489 52.6564 110.597 51.8924 110.582 51.1669C110.547 50.7255 110.54 50.2825 110.561 49.8403C110.614 49.4186 110.74 49.0078 110.933 48.6241C111.284 47.8568 111.858 47.1987 112.59 46.7263C112.956 46.4936 113.368 46.3329 113.802 46.2537C114.236 46.1745 114.682 46.1785 115.114 46.2654C115.253 46.3065 115.396 46.3306 115.542 46.3372C115.823 46.3372 116.065 46.162 116.324 46.0586C116.653 45.9376 117.015 45.922 117.354 46.0141C117.694 46.1063 117.991 46.3011 118.202 46.5686C118.373 46.7964 118.471 47.068 118.65 47.2888C118.916 47.6183 119.35 47.8268 119.53 48.2036C119.711 48.5803 119.59 49.0114 119.629 49.418C119.685 49.7814 119.804 50.1336 119.981 50.4607C119.542 50.317 119.328 49.8648 119.05 49.5179C118.831 49.2603 118.555 49.0499 118.242 48.9006C117.929 48.7513 117.586 48.6666 117.236 48.6522C116.994 48.6417 116.545 48.6241 116.353 48.7976C116.11 49.0202 116.264 49.4968 116.288 49.7667Z" fill="black"/>
<path id="Vector_105" d="M116.21 49.6177C116.244 49.9875 116.272 50.3818 116.091 50.7112C115.99 50.8769 115.865 51.028 115.719 51.1598L114.896 51.9502C114.641 52.1604 114.443 52.4246 114.317 52.7212C114.083 53.4572 114.775 54.188 114.753 54.9573C114.629 55.1405 114.444 55.2803 114.228 55.3556C114.012 55.431 113.775 55.4375 113.554 55.3744C113.375 55.3098 113.207 55.2219 113.053 55.1133L112.27 54.6103C111.665 54.2213 111.032 53.8007 110.729 53.1734C110.41 52.5127 110.518 51.7486 110.504 51.0231C110.469 50.5817 110.462 50.1388 110.483 49.6966C110.536 49.2748 110.662 48.8641 110.855 48.4804C111.206 47.7131 111.78 47.055 112.512 46.5825C112.878 46.3499 113.29 46.1892 113.724 46.11C114.158 46.0308 114.604 46.0348 115.036 46.1217C115.174 46.1627 115.318 46.1869 115.464 46.1935C115.745 46.1935 115.987 46.0183 116.245 45.9149C116.575 45.7939 116.937 45.7782 117.276 45.8704C117.616 45.9626 117.913 46.1574 118.123 46.4248C118.295 46.6526 118.393 46.9243 118.572 47.1451C118.838 47.4745 119.272 47.683 119.452 48.0598C119.633 48.4366 119.512 48.8677 119.551 49.2742C119.607 49.6376 119.726 49.9899 119.903 50.3169C119.464 50.1732 119.249 49.7211 118.972 49.3741C118.752 49.1166 118.477 48.9062 118.164 48.7569C117.851 48.6076 117.508 48.5229 117.157 48.5084C116.916 48.4979 116.467 48.4804 116.275 48.6539C116.03 48.8712 116.178 49.3461 116.21 49.6177Z" fill="#74585E"/>
<g id="Group_3" opacity="0.1">
<path id="Vector_106" d="M120.413 55.1989C120.39 55.1728 120.379 55.1571 120.379 55.1571L120.413 55.1989Z" fill="black"/>
<path id="Vector_107" d="M107.016 47.3607C107.276 47.3657 107.528 47.2766 107.721 47.1118L107.645 47.4132C107.434 47.4531 107.216 47.4348 107.016 47.3607Z" fill="black"/>
<path id="Vector_108" d="M121.042 55.5847C123.024 58.4499 118.561 58.6584 118.561 58.6584C118.221 58.7026 117.875 58.6793 117.545 58.5901C117.75 58.6129 117.958 58.6129 118.164 58.5901C118.164 58.5901 122.948 58.3675 120.413 55.2044C120.578 55.3869 120.797 55.5193 121.042 55.5847Z" fill="black"/>
<path id="Vector_109" d="M112.944 55.5304C112.623 55.538 112.302 55.502 111.992 55.4235C112.177 55.4536 112.364 55.4648 112.551 55.4568C113.044 55.4371 113.537 55.4837 114.016 55.5952C113.662 55.5347 113.302 55.5129 112.944 55.5304Z" fill="black"/>
<path id="Vector_110" d="M103.053 51.3579L105.268 46.2181C105.357 46.3322 105.453 46.4416 105.554 46.5458L103.449 51.4245C102.5 53.5852 103.766 54.33 103.766 54.33L110.332 59.992C112.864 60.8857 113.18 65.5787 113.18 65.5787C114.209 67.3662 112.705 74.5931 112.705 74.5931C113.703 76.2316 115.093 77.0465 116.595 77.3829C114.944 77.1183 113.396 76.2999 112.314 74.5177C112.314 74.5177 113.818 67.2926 112.789 65.5033C112.789 65.5033 112.473 60.8104 109.941 59.9167L103.369 54.2634C103.369 54.2634 102.104 53.5186 103.053 51.3579Z" fill="black"/>
<path id="Vector_111" d="M131.535 45.7712C131.698 45.83 131.865 45.8752 132.036 45.9061C132.903 46.6229 133.196 52.5495 133.196 52.5495L129.082 54.337C129.082 54.337 124.969 54.337 123.227 55.306C122.374 55.7809 121.77 55.7722 121.366 55.6408C121.738 55.6618 122.216 55.5689 122.823 55.2324C124.563 54.2634 128.678 54.2634 128.678 54.2634L132.792 52.4759C132.792 52.4759 132.485 46.0691 131.535 45.7712Z" fill="black"/>
<path id="Vector_112" d="M132.226 45.9359C132.827 46.0095 133.654 45.9272 133.989 45.0264L134.175 45.4908C133.655 46.1848 132.706 46.0568 132.226 45.9359Z" fill="black"/>
</g>
<path id="Vector_113" opacity="0.1" d="M125.522 71.0357C125.647 69.0292 125.76 66.6915 125.76 64.8409C125.76 60.7438 128.608 59.1053 128.608 59.1053L133.534 56.2559C130.668 56.9568 126.854 58.1642 126.512 59.5854C125.954 61.8951 124.93 62.1177 125.325 66.0694C125.488 67.7201 125.554 69.3781 125.522 71.0357Z" fill="black"/>
<path id="Vector_114" opacity="0.1" d="M124.77 76.7222C124.77 76.7222 124.057 78.8076 126.036 80.1482L124.77 76.7222Z" fill="black"/>
<path id="Vector_115" opacity="0.1" d="M113.694 76.7222C113.694 76.7222 113.455 78.2871 112.506 78.883L113.694 76.7222Z" fill="black"/>
<path id="Vector_116" opacity="0.1" d="M123.862 106.706C123.862 106.706 127.659 108.344 130.903 108.791C132.548 109.017 133.155 108.555 133.25 108.064C133.358 108.637 132.877 109.363 130.903 109.089C127.659 108.642 123.862 107.004 123.862 107.004C123.837 106.756 123.829 106.508 123.836 106.259C123.841 106.531 123.862 106.706 123.862 106.706Z" fill="black"/>
<path id="Vector_117" opacity="0.1" d="M108.037 108.269C111.123 107.971 113.418 105.662 113.418 105.662C113.418 105.662 113.301 103.899 112.739 102.772C113.37 103.885 113.498 105.81 113.498 105.81C113.498 105.81 111.203 108.12 108.117 108.418C106.541 108.571 105.852 108.159 105.683 107.717C105.942 108.097 106.641 108.404 108.037 108.269Z" fill="black"/>
<path id="Vector_118" d="M111.749 31.8869C111.748 33.4437 112.334 34.9501 113.403 36.1378C114.472 37.3255 115.954 38.1174 117.586 38.3723C119.217 38.6272 120.891 38.3286 122.31 37.5296C123.729 36.7307 124.801 35.4834 125.335 34.0099C125.868 32.5364 125.829 30.9324 125.223 29.4836C124.618 28.0349 123.486 26.8356 122.029 26.0993C120.572 25.363 118.885 25.1376 117.268 25.4632C115.652 25.7889 114.21 26.6444 113.2 27.8774C112.26 29.0263 111.749 30.4361 111.749 31.8869Z" fill="url(#paint2_linear_1_1070)"/>
<path id="Vector_119" d="M112.006 31.8869C112.003 33.3871 112.567 34.8394 113.596 35.9848C114.625 37.1303 116.053 37.8945 117.624 38.1412C119.196 38.3879 120.81 38.1011 122.178 37.3319C123.546 36.5627 124.58 35.3612 125.094 33.9414C125.609 32.5215 125.572 30.9758 124.989 29.5795C124.406 28.1833 123.315 27.0273 121.911 26.3176C120.507 25.6079 118.881 25.3907 117.323 25.7046C115.765 26.0185 114.376 26.8432 113.403 28.0316C112.499 29.1365 112.008 30.4919 112.006 31.8869Z" fill="#E0E0E0"/>
<path id="Vector_120" d="M114.961 28.7763V31.2332" stroke="#535461" stroke-miterlimit="10"/>
<path id="Vector_121" d="M119.946 31.0142L117.223 32.707" stroke="#535461" stroke-miterlimit="10"/>
<path id="Vector_122" d="M117.223 27.2499L120.411 28.5047" stroke="#535461" stroke-miterlimit="10"/>
<path id="Vector_123" d="M122.555 31.4505L122.38 35.2708" stroke="#535461" stroke-miterlimit="10"/>
<path id="Vector_124" d="M120.411 36.4168L116.817 34.7258" stroke="#535461" stroke-miterlimit="10"/>
<path id="Vector_125" d="M114.961 34.9991V37.1318" stroke="#535461" stroke-miterlimit="10"/>
<path id="Vector_126" d="M113.629 33.3606L112.061 32.707" stroke="#535461" stroke-miterlimit="10"/>
<path id="Vector_127" d="M122.38 28.2856L122.261 26.4999" stroke="#535461" stroke-miterlimit="10"/>
<path id="Vector_128" d="M123.424 30.3605L125.367 30.8827" stroke="#535461" stroke-miterlimit="10"/>
<path id="Vector_129" d="M123.945 30.3605L122.44 27.9036L119.947 28.2857V31.0142L122.613 32.325L123.945 30.3605Z" fill="#03A4FF"/>
<path id="Vector_130" d="M113.403 28.0245L114.963 28.7763C115.484 28.1209 117.628 27.3569 117.628 27.3569L117.405 25.6798C115.814 25.9805 114.393 26.8134 113.403 28.0245Z" fill="#03A4FF"/>
<path id="Vector_131" d="M117.628 32.4336L114.903 31.2332L113.396 33.252L114.961 35.5985L117.628 35.2164V32.4336Z" fill="#03A4FF"/>
<path id="Vector_132" d="M119.946 36.0891V38.1061C120.818 37.9549 121.651 37.6425 122.395 37.1868C123.139 36.7311 123.78 36.1413 124.28 35.4512L122.38 34.717L119.946 36.0891Z" fill="#03A4FF"/>
<path id="Vector_133" d="M20.1944 78.4308C20.1944 79.7369 20.687 81.0006 21.5843 81.9967C22.4816 82.9928 23.7253 83.6566 25.094 83.8698C26.4626 84.083 27.8671 83.8318 29.0574 83.161C30.2476 82.4901 31.1463 81.4432 31.5932 80.2067C32.04 78.9702 32.0062 77.6245 31.4975 76.4093C30.9889 75.1942 30.0386 74.1885 28.8159 73.5715C27.5932 72.9545 26.1776 72.7663 24.8212 73.0403C23.4649 73.3144 22.2559 74.0329 21.4098 75.068C20.6216 76.0319 20.1942 77.2143 20.1944 78.4308Z" fill="url(#paint3_linear_1_1070)"/>
<path id="Vector_134" d="M20.4103 78.4308C20.4107 79.6887 20.8853 80.9057 21.7496 81.8648C22.614 82.824 23.812 83.4631 25.1301 83.6683C26.4482 83.8734 27.8009 83.6313 28.9471 82.9851C30.0933 82.3389 30.9587 81.3305 31.389 80.1396C31.8192 78.9488 31.7865 77.6527 31.2966 76.4825C30.8067 75.3122 29.8914 74.3437 28.7138 73.7495C27.5363 73.1553 26.1729 72.974 24.8666 73.238C23.5603 73.5019 22.396 74.1939 21.5811 75.1906C20.8217 76.1194 20.41 77.2587 20.4103 78.4308Z" fill="#E0E0E0"/>
<path id="Vector_135" d="M22.8895 75.8215V77.8824" stroke="#535461" stroke-miterlimit="10"/>
<path id="Vector_136" d="M27.0698 77.6984L24.7842 79.1178" stroke="#535461" stroke-miterlimit="10"/>
<path id="Vector_137" d="M24.7842 74.5405L27.4588 75.5937" stroke="#535461" stroke-miterlimit="10"/>
<path id="Vector_138" d="M29.2568 78.0646L29.1116 81.2697" stroke="#535461" stroke-miterlimit="10"/>
<path id="Vector_139" d="M27.4588 82.2301L24.4436 80.8106" stroke="#535461" stroke-miterlimit="10"/>
<path id="Vector_140" d="M22.8895 81.0402V82.8294" stroke="#535461" stroke-miterlimit="10"/>
<path id="Vector_141" d="M21.7709 79.6663L20.4568 79.1178" stroke="#535461" stroke-miterlimit="10"/>
<path id="Vector_142" d="M29.1116 75.4097L29.0111 73.9131" stroke="#535461" stroke-miterlimit="10"/>
<path id="Vector_143" d="M29.9864 77.1498L31.6168 77.5879" stroke="#535461" stroke-miterlimit="10"/>
<path id="Vector_144" d="M30.4238 77.1498L29.16 75.0908L27.0698 75.4097V77.6983L29.3052 78.7971L30.4238 77.1498Z" fill="#03A4FF"/>
<path id="Vector_145" d="M21.5811 75.1906L22.8839 75.8215C23.3213 75.273 25.1174 74.6316 25.1174 74.6316L24.9313 73.2297C23.6 73.4817 22.4102 74.1781 21.5811 75.1906Z" fill="#03A4FF"/>
<path id="Vector_146" d="M25.1248 78.8882L22.8411 77.8823L21.5754 79.5752L22.8895 81.5431L25.1248 81.2224V78.8882Z" fill="#03A4FF"/>
<path id="Vector_147" d="M27.0698 81.9549V83.653C27.8019 83.5261 28.5 83.2639 29.1239 82.8816C29.7478 82.4993 30.2851 82.0045 30.7048 81.4257L29.1116 80.8106L27.0698 81.9549Z" fill="#03A4FF"/>
<path id="Vector_148" d="M15.895 85.0567C15.895 86.3628 16.3875 87.6265 17.2848 88.6226C18.1821 89.6187 19.4259 90.2824 20.7945 90.4957C22.1631 90.7089 23.5677 90.4577 24.758 89.7868C25.9482 89.116 26.8468 88.069 27.2937 86.8325C27.7406 85.5961 27.7067 84.2503 27.1981 83.0352C26.6895 81.82 25.7391 80.8144 24.5165 80.1974C23.2938 79.5804 21.8781 79.3921 20.5218 79.6662C19.1654 79.9402 17.9565 80.6588 17.1103 81.6938C16.3221 82.6577 15.8948 83.8401 15.895 85.0567Z" fill="url(#paint4_linear_1_1070)"/>
<path id="Vector_149" d="M16.1109 85.0567C16.1112 86.3146 16.5858 87.5315 17.4502 88.4907C18.3145 89.4499 19.5125 90.089 20.8306 90.2941C22.1487 90.4993 23.5014 90.2572 24.6476 89.611C25.7939 88.9647 26.6592 87.9564 27.0895 86.7655C27.5198 85.5746 27.487 84.2786 26.9971 83.1083C26.5072 81.938 25.5919 80.9695 24.4144 80.3754C23.2368 79.7812 21.8734 79.5999 20.5672 79.8638C19.2609 80.1277 18.0965 80.8197 17.2816 81.8165C16.5222 82.7453 16.1106 83.8846 16.1109 85.0567Z" fill="#E0E0E0"/>
<path id="Vector_150" d="M18.59 82.4474V84.5065" stroke="#535461" stroke-miterlimit="10"/>
<path id="Vector_151" d="M22.7704 84.3242L20.4866 85.7437" stroke="#535461" stroke-miterlimit="10"/>
<path id="Vector_152" d="M20.4866 81.1664L23.1594 82.2196" stroke="#535461" stroke-miterlimit="10"/>
<path id="Vector_153" d="M24.9573 84.6904L24.8121 87.8938" stroke="#535461" stroke-miterlimit="10"/>
<path id="Vector_154" d="M23.1594 88.8559L20.1461 87.4365" stroke="#535461" stroke-miterlimit="10"/>
<path id="Vector_155" d="M18.59 87.666V89.4552" stroke="#535461" stroke-miterlimit="10"/>
<path id="Vector_156" d="M17.4714 86.2922L16.1574 85.7437" stroke="#535461" stroke-miterlimit="10"/>
<path id="Vector_157" d="M24.8122 82.0356L24.7117 80.539" stroke="#535461" stroke-miterlimit="10"/>
<path id="Vector_158" d="M25.687 83.7757L27.3174 84.2138" stroke="#535461" stroke-miterlimit="10"/>
<path id="Vector_159" d="M26.1243 83.7757L24.8606 81.7148L22.7704 82.0355V84.3242L25.0076 85.4229L26.1243 83.7757Z" fill="#03A4FF"/>
<path id="Vector_160" d="M17.2816 81.8165L18.5845 82.4474C19.0218 81.8988 20.8179 81.2575 20.8179 81.2575L20.6318 79.8555C19.3005 80.1075 18.1107 80.8039 17.2816 81.8165Z" fill="#03A4FF"/>
<path id="Vector_161" d="M20.8254 85.5141L18.5416 84.5065L17.2779 86.201L18.59 88.169L20.8254 87.8483V85.5141Z" fill="#03A4FF"/>
<path id="Vector_162" d="M22.7704 88.5755V90.2736C23.5022 90.1471 24.2001 89.8855 24.824 89.5038C25.4478 89.1221 25.9853 88.628 26.4054 88.0498L24.8122 87.4347L22.7704 88.5755Z" fill="#03A4FF"/>
</g>
<defs>
<linearGradient id="paint0_linear_1_1070" x1="71.1123" y1="50.2588" x2="71.1123" y2="50.2153" gradientUnits="userSpaceOnUse">
<stop stop-color="#808080" stop-opacity="0.25"/>
<stop offset="0.54" stop-color="#808080" stop-opacity="0.12"/>
<stop offset="1" stop-color="#808080" stop-opacity="0.1"/>
</linearGradient>
<linearGradient id="paint1_linear_1_1070" x1="119.944" y1="109.526" x2="119.944" y2="40.9117" gradientUnits="userSpaceOnUse">
<stop stop-color="#808080" stop-opacity="0.25"/>
<stop offset="0.54" stop-color="#808080" stop-opacity="0.12"/>
<stop offset="1" stop-color="#808080" stop-opacity="0.1"/>
</linearGradient>
<linearGradient id="paint2_linear_1_1070" x1="118.728" y1="38.4584" x2="118.728" y2="25.3153" gradientUnits="userSpaceOnUse">
<stop stop-color="#808080" stop-opacity="0.25"/>
<stop offset="0.54" stop-color="#808080" stop-opacity="0.12"/>
<stop offset="1" stop-color="#808080" stop-opacity="0.1"/>
</linearGradient>
<linearGradient id="paint3_linear_1_1070" x1="26.048" y1="83.9422" x2="26.048" y2="72.9195" gradientUnits="userSpaceOnUse">
<stop stop-color="#808080" stop-opacity="0.25"/>
<stop offset="0.54" stop-color="#808080" stop-opacity="0.12"/>
<stop offset="1" stop-color="#808080" stop-opacity="0.1"/>
</linearGradient>
<linearGradient id="paint4_linear_1_1070" x1="21.7504" y1="90.568" x2="21.7504" y2="79.5454" gradientUnits="userSpaceOnUse">
<stop stop-color="#808080" stop-opacity="0.25"/>
<stop offset="0.54" stop-color="#808080" stop-opacity="0.12"/>
<stop offset="1" stop-color="#808080" stop-opacity="0.1"/>
</linearGradient>
<clipPath id="clip0_1_1070">
<rect width="213" height="140" fill="white"/>
</clipPath>
</defs>
</svg>
